<?xml version="1.0" encoding="UTF-8" standalone="no"?>
<!-- Created with Inkscape (http://www.inkscape.org/) -->

<svg
   width="210mm"
   height="297mm"
   viewBox="0 0 210 297"
   version="1.1"
   id="svg5"
   sodipodi:docname="Assistant_Name.svg"
   inkscape:version="1.1.1 (3bf5ae0d25, 2021-09-20)"
   xmlns:inkscape="http://www.inkscape.org/namespaces/inkscape"
   xmlns:sodipodi="http://sodipodi.sourceforge.net/DTD/sodipodi-0.dtd"
   xmlns="http://www.w3.org/2000/svg"
   xmlns:svg="http://www.w3.org/2000/svg">
  <sodipodi:namedview
     id="namedview7"
     pagecolor="#ffffff"
     bordercolor="#666666"
     borderopacity="1.0"
     inkscape:pageshadow="2"
     inkscape:pageopacity="0.0"
     inkscape:pagecheckerboard="0"
     inkscape:document-units="mm"
     showgrid="false"
     inkscape:zoom="0.73406285"
     inkscape:cx="397.10496"
     inkscape:cy="343.976"
     inkscape:window-width="1920"
     inkscape:window-height="1009"
     inkscape:window-x="-8"
     inkscape:window-y="-8"
     inkscape:window-maximized="1"
     inkscape:current-layer="text1683" />
  <defs
     id="defs2" />
  <g
     inkscape:label="Layer 1"
     inkscape:groupmode="layer"
     id="layer1">
    <g
       aria-label="Tom Howe|"
       id="text1683"
       style="font-size:50.8px;line-height:1.25;stroke-width:0.264583">
      <path
         d="m 18.935606,67.169424 v -40.35 H 5.2856068 v -8.625 H 42.935605 v 8.625 H 29.210606 v 40.35 z"
         style="font-weight:bold;font-family:Assistant;-inkscape-font-specification:'Assistant Bold';stroke-width:0.390624"
         id="path7177" />
      <path
         d="m 60.035466,68.069424 q -4.724999,0 -8.849999,-2.249999 -4.049999,-2.324999 -6.6,-6.675 -2.474999,-4.350002 -2.474999,-10.500001 0,-6.150001 2.474999,-10.5 2.550001,-4.350001 6.6,-6.675 4.125,-2.325001 8.849999,-2.325001 4.650001,0 8.7,2.325001 4.125001,2.324999 6.675,6.675 2.55,4.349999 2.55,10.5 0,6.149999 -2.55,10.500001 -2.549999,4.350001 -6.675,6.675 -4.049999,2.249999 -8.7,2.249999 z m 0,-8.324998 q 2.400001,0 4.050002,-1.350001 1.649998,-1.35 2.474999,-3.825002 0.9,-2.550001 0.9,-5.924999 0,-3.375001 -0.9,-5.85 -0.825001,-2.550001 -2.474999,-3.900002 -1.650001,-1.424999 -4.050002,-1.424999 -2.474998,0 -4.124999,1.424999 -1.65,1.350001 -2.474999,3.900002 -0.825,2.474999 -0.825,5.85 0,3.374998 0.825,5.924999 0.824999,2.475002 2.474999,3.825002 1.650001,1.350001 4.124999,1.350001 z"
         style="font-weight:bold;font-family:Assistant;-inkscape-font-specification:'Assistant Bold';stroke-width:0.390624"
         id="path7179" />
      <path
         d="M 85.835431,67.169424 V 30.044423 h 8.325001 l 0.75,4.875 h 0.299999 q 2.25,-2.324999 4.949999,-4.05 2.7,-1.725 6.3,-1.725 3.975,0 6.45,1.725 2.475,1.650001 3.825,4.650001 2.475,-2.625001 5.25,-4.500001 2.85,-1.875 6.45,-1.875 6,0 8.775,3.975 2.775,3.975001 2.775,10.95 v 23.100001 h -10.2 V 45.344423 q 0,-4.199999 -1.2,-5.775 -1.2,-1.65 -3.75,-1.65 -1.575,0 -3.225,0.974999 -1.65,0.900001 -3.6,2.925 v 25.350002 h -10.2 V 45.344423 q 0,-4.199999 -1.2,-5.775 -1.2,-1.65 -3.75,-1.65 -3.074998,0 -6.824998,3.899999 v 25.350002 z"
         style="font-weight:bold;font-family:Assistant;-inkscape-font-specification:'Assistant Bold';stroke-width:0.390624"
         id="path7181" />
      <path
         d="m 165.63525,67.169424 v -48.975 h 10.27499 v 19.125 h 17.85002 v -19.125 h 10.27499 v 48.975 H 193.76026 V 46.319423 h -17.85002 v 20.850001 z"
         style="font-weight:bold;font-family:Assistant;-inkscape-font-specification:'Assistant Bold';stroke-width:0.390624"
         id="path7183" />
      <path
         d="m 230.73512,68.069424 q -4.72501,0 -8.85,-2.249999 -4.05,-2.324999 -6.6,-6.675 -2.475,-4.350002 -2.475,-10.500001 0,-6.150001 2.475,-10.5 2.55,-4.350001 6.6,-6.675 4.12499,-2.325001 8.85,-2.325001 4.64999,0 8.69999,2.325001 4.12501,2.324999 6.67501,6.675 2.55,4.349999 2.55,10.5 0,6.149999 -2.55,10.500001 -2.55,4.350001 -6.67501,6.675 -4.05,2.249999 -8.69999,2.249999 z m 0,-8.324998 q 2.4,0 4.05,-1.350001 1.65,-1.35 2.475,-3.825002 0.9,-2.550001 0.9,-5.924999 0,-3.375001 -0.9,-5.85 -0.825,-2.550001 -2.475,-3.900002 -1.65,-1.424999 -4.05,-1.424999 -2.475,0 -4.125,1.424999 -1.65,1.350001 -2.475,3.900002 -0.825,2.474999 -0.825,5.85 0,3.374998 0.825,5.924999 0.825,2.475002 2.475,3.825002 1.65,1.350001 4.125,1.350001 z"
         style="font-weight:bold;font-family:Assistant;-inkscape-font-specification:'Assistant Bold';stroke-width:0.390624"
         id="path7185" />
      <path
         d="m 262.15993,67.169424 -9.44999,-37.125001 h 10.19999 l 3.9,17.85 q 0.45001,2.7 0.825,5.474999 0.45001,2.700004 0.9,5.475004 h 0.30001 q 0.52499,-2.775 1.05,-5.475004 0.52499,-2.774999 1.19999,-5.474999 l 4.35001,-17.85 h 9 l 4.42499,17.85 q 0.67499,2.7 1.20001,5.474999 0.59999,2.700004 1.12499,5.475004 h 0.3 q 0.525,-2.775 0.9,-5.475004 0.37501,-2.774999 0.90001,-5.474999 l 3.82499,-17.85 h 9.52499 l -9.07498,37.125001 h -12.00001 l -3.75,-15.675001 q -0.52499,-2.625 -1.05,-5.25 -0.44999,-2.625001 -0.975,-5.55 h -0.29999 q -0.52501,2.924999 -0.97501,5.625 -0.44999,2.625 -1.05,5.25 l -3.52499,15.600001 z"
         style="font-weight:bold;font-family:Assistant;-inkscape-font-specification:'Assistant Bold';stroke-width:0.390624"
         id="path7187" />
      <path
         d="m 329.35967,68.069424 q -5.25001,0 -9.52501,-2.324999 -4.19999,-2.324999 -6.67499,-6.6 -2.4,-4.350002 -2.4,-10.500001 0,-6.000002 2.475,-10.35 2.47501,-4.350001 6.45,-6.75 3.975,-2.400001 8.39999,-2.400001 5.17501,0 8.62501,2.325001 3.52499,2.324999 5.24999,6.374999 1.8,3.974999 1.8,9.075 0,1.349999 -0.15003,2.7 -0.15004,1.275 -0.29999,1.95 h -24.525 l -0.075,-6.824999 h 16.275 q 0,-3.525001 -1.65001,-5.625 -1.57499,-2.100002 -5.025,-2.100002 -2.02499,0 -3.89999,1.125002 -1.87501,1.125 -3.075,3.674998 -1.20001,2.550001 -1.20001,6.825002 0,4.274999 1.5,6.824999 1.575,2.475003 3.975,3.600002 2.4,1.125 5.1,1.125 2.25,0 4.2,-0.599999 2.02499,-0.675001 4.05,-1.875 l 3.37501,6.224999 q -2.77501,1.875 -6.22502,2.999999 -3.37498,1.125 -6.74998,1.125 z"
         style="font-weight:bold;font-family:Assistant;-inkscape-font-specification:'Assistant Bold';stroke-width:0.390624"
         id="path7189" />
      <path
         d="m 352.98465,85.919424 v -75 h 6.75001 v 75 z"
         style="font-weight:bold;font-family:Assistant;-inkscape-font-specification:'Assistant Bold';stroke-width:0.390624"
         id="path7191" />
    </g>
  </g>
</svg>
