<?xml version="1.0" encoding="UTF-8" standalone="no"?>
<svg id="typewriter-big-o" height="75" width="360" fill="black" xmlns="http://www.w3.org/2000/svg">
    <!-- <path d="M287.012 38.68C287.012 37.06 286.872 35.453 286.592 33.86C286.319 32.267 286.052 30.673 285.792 29.08C285.672 28.5 285.492 27.947 285.252 27.42C285.006 26.9 284.792 26.367 284.612 25.82C284.266 24.773 283.936 23.73 283.622 22.69C283.302 21.643 282.982 20.6 282.662 19.56C282.462 18.92 282.056 18.363 281.442 17.89C280.836 17.41 280.126 17.003 279.312 16.67C278.506 16.337 277.629 16.06 276.682 15.84C275.742 15.627 274.839 15.453 273.972 15.32C273.099 15.193 272.296 15.107 271.562 15.06C270.822 15.02 270.262 15 269.882 15L270.452 14.95L269.972 15C269.332 15 268.702 14.97 268.082 14.91C267.462 14.85 266.832 14.82 266.192 14.82C265.672 14.82 265.159 14.857 264.652 14.93C264.146 15.003 263.689 15.2 263.282 15.52C262.322 16.273 261.422 16.973 260.582 17.62C259.742 18.273 259.049 19.167 258.502 20.3C258.329 20.673 258.139 20.94 257.932 21.1C257.732 21.26 257.539 21.42 257.352 21.58C257.159 21.74 256.992 21.92 256.852 22.12C256.706 22.327 256.602 22.66 256.542 23.12C256.396 23.96 256.229 24.793 256.042 25.62C255.856 26.447 255.762 27.28 255.762 28.12C255.762 29.02 255.682 29.91 255.522 30.79C255.362 31.677 255.109 32.54 254.762 33.38C254.676 33.613 254.596 33.83 254.522 34.03C254.449 34.23 254.412 34.447 254.412 34.68C254.412 35.113 254.516 35.483 254.722 35.79C254.922 36.097 255.022 36.363 255.022 36.59C255.022 36.71 254.986 36.777 254.912 36.79C254.839 36.803 254.766 36.833 254.692 36.88C254.626 36.92 254.556 37.013 254.482 37.16C254.409 37.307 254.372 37.567 254.372 37.94C254.372 38.78 254.379 39.633 254.392 40.5C254.406 41.373 254.486 42.23 254.632 43.07C254.719 43.563 254.872 44.033 255.092 44.48C255.306 44.927 255.412 45.397 255.412 45.89C255.412 46.21 255.339 46.53 255.192 46.85C255.052 47.17 254.982 47.503 254.982 47.85C254.982 48.257 255.096 48.583 255.322 48.83C255.556 49.077 255.789 49.357 256.022 49.67C256.196 49.903 256.349 50.2 256.482 50.56C256.609 50.927 256.739 51.27 256.872 51.59C256.999 51.903 257.122 52.177 257.242 52.41C257.356 52.643 257.486 52.76 257.632 52.76C257.746 52.76 257.846 52.737 257.932 52.69C258.019 52.65 258.122 52.63 258.242 52.63C258.822 52.63 259.262 52.883 259.562 53.39C259.869 53.897 260.022 54.397 260.022 54.89C260.022 55.297 260.139 55.637 260.372 55.91C260.599 56.183 260.872 56.437 261.192 56.67C261.512 56.903 261.839 57.127 262.172 57.34C262.506 57.56 262.789 57.8 263.022 58.06C263.396 58.493 263.692 58.783 263.912 58.93C264.126 59.077 264.319 59.17 264.492 59.21C264.672 59.257 264.839 59.293 264.992 59.32C265.152 59.347 265.362 59.45 265.622 59.63C265.942 59.857 266.269 60.11 266.602 60.39C266.936 60.663 267.262 60.917 267.582 61.15C268.482 61.783 269.489 62.167 270.602 62.3C271.716 62.427 272.809 62.49 273.882 62.49C274.316 62.49 274.722 62.39 275.102 62.19C275.476 61.99 275.852 61.767 276.232 61.52C276.606 61.273 276.989 61.047 277.382 60.84C277.776 60.64 278.202 60.54 278.662 60.54C279.042 60.54 279.432 60.627 279.832 60.8C280.499 59.787 281.139 58.977 281.752 58.37C282.359 57.757 282.909 57.16 283.402 56.58C283.896 56 284.316 55.333 284.662 54.58C285.009 53.827 285.256 52.8 285.402 51.5C285.456 50.947 285.606 50.433 285.852 49.96C286.099 49.48 286.252 48.98 286.312 48.46C286.459 47.3 286.539 46.14 286.552 44.98C286.566 43.82 286.659 42.66 286.832 41.5C286.892 41.04 286.936 40.577 286.962 40.11C286.996 39.65 287.012 39.173 287.012 38.68ZM294.092 38.98C294.092 39.593 294.032 40.18 293.912 40.74C293.799 41.307 293.669 41.873 293.522 42.44C293.382 43.007 293.252 43.577 293.132 44.15C293.019 44.73 292.962 45.31 292.962 45.89C292.962 46.123 292.982 46.35 293.022 46.57C293.069 46.783 293.092 47.007 293.092 47.24C293.092 47.82 292.999 48.37 292.812 48.89C292.619 49.41 292.392 49.917 292.132 50.41C291.906 50.843 291.769 51.293 291.722 51.76C291.676 52.227 291.646 52.69 291.632 53.15C291.619 53.617 291.569 54.08 291.482 54.54C291.396 55.007 291.222 55.44 290.962 55.84C290.902 56.133 290.822 56.563 290.722 57.13C290.622 57.69 290.499 58.087 290.352 58.32C290.326 58.38 290.239 58.423 290.092 58.45C289.946 58.483 289.786 58.513 289.612 58.54C289.439 58.567 289.252 58.623 289.052 58.71C288.846 58.797 288.672 58.927 288.532 59.1C288.386 59.247 288.269 59.45 288.182 59.71C288.096 59.97 287.992 60.23 287.872 60.49C287.759 60.757 287.622 60.983 287.462 61.17C287.302 61.357 287.092 61.45 286.832 61.45C286.572 61.45 286.342 61.4 286.142 61.3C285.936 61.2 285.732 61.097 285.532 60.99C285.326 60.89 285.122 60.813 284.922 60.76C284.716 60.7 284.469 60.713 284.182 60.8C284.269 60.86 284.299 60.997 284.272 61.21C284.239 61.43 284.246 61.657 284.292 61.89C284.332 62.117 284.456 62.333 284.662 62.54C284.862 62.74 285.222 62.84 285.742 62.84C286.009 62.84 286.266 62.827 286.512 62.8C286.752 62.767 287.006 62.723 287.272 62.67C287.039 63.303 286.762 63.803 286.442 64.17C286.122 64.53 285.769 64.847 285.382 65.12C284.989 65.4 284.582 65.677 284.162 65.95C283.742 66.223 283.329 66.577 282.922 67.01C282.429 67.503 281.959 67.81 281.512 67.93C281.059 68.043 280.529 68.187 279.922 68.36C279.229 68.56 278.736 68.807 278.442 69.1C278.156 69.387 277.839 69.66 277.492 69.92C277.146 70.187 276.676 70.413 276.082 70.6C275.482 70.787 274.546 70.88 273.272 70.88C272.112 70.88 270.962 70.837 269.822 70.75C268.676 70.663 267.539 70.547 266.412 70.4C265.886 70.347 265.456 70.253 265.122 70.12C264.789 69.987 264.479 69.843 264.192 69.69C263.906 69.53 263.616 69.363 263.322 69.19C263.036 69.017 262.672 68.84 262.232 68.66C262.006 68.573 261.732 68.467 261.412 68.34C261.092 68.207 260.759 68.07 260.412 67.93C260.066 67.783 259.746 67.63 259.452 67.47C259.166 67.31 258.936 67.157 258.762 67.01C258.556 66.837 258.419 66.643 258.352 66.43C258.279 66.21 258.212 65.977 258.152 65.73C258.092 65.483 258.026 65.253 257.952 65.04C257.886 64.82 257.749 64.637 257.542 64.49C257.109 64.437 256.689 64.357 256.282 64.25C255.876 64.15 255.469 64.027 255.062 63.88C254.949 63.567 254.842 63.257 254.742 62.95C254.642 62.643 254.532 62.333 254.412 62.02C254.039 61.613 253.679 61.27 253.332 60.99C252.979 60.717 252.672 60.437 252.412 60.15C252.152 59.857 251.929 59.517 251.742 59.13C251.556 58.737 251.432 58.22 251.372 57.58C251.286 56.827 251.112 56.097 250.852 55.39C250.592 54.677 250.322 53.973 250.042 53.28C249.769 52.587 249.526 51.877 249.312 51.15C249.092 50.423 248.982 49.687 248.982 48.94C248.982 48.153 249.142 47.353 249.462 46.54C248.622 45.353 248.099 44.06 247.892 42.66C247.692 41.253 247.592 39.84 247.592 38.42C247.592 37.953 247.599 37.497 247.612 37.05C247.626 36.603 247.632 36.16 247.632 35.72C247.632 35.233 247.526 34.85 247.312 34.57C247.092 34.297 246.982 33.957 246.982 33.55C246.982 32.917 247.076 32.293 247.262 31.68C247.456 31.073 247.579 30.45 247.632 29.81C247.259 29.757 247.012 29.613 246.892 29.38L246.982 29.21C247.189 28.857 247.356 28.537 247.482 28.25C247.616 27.957 247.709 27.68 247.762 27.42C247.822 27.16 247.882 26.887 247.942 26.6C247.996 26.307 248.066 25.973 248.152 25.6C248.386 24.413 248.686 23.253 249.052 22.12C249.412 20.993 249.766 19.85 250.112 18.69C250.486 17.357 250.949 16.183 251.502 15.17C252.056 14.157 252.909 13.213 254.062 12.34C254.556 11.94 255.006 11.507 255.412 11.04C255.819 10.58 256.109 10.03 256.282 9.39C256.429 9.277 256.589 9.203 256.762 9.17C256.936 9.143 257.109 9.13 257.282 9.13H257.632C257.832 9.13 258.026 9.107 258.212 9.06C258.406 9.02 258.589 8.927 258.762 8.78C259.196 8.373 259.579 8.083 259.912 7.91C260.246 7.737 260.702 7.64999 261.282 7.64999C261.689 7.64999 262.079 7.68699 262.452 7.75999C262.832 7.83299 263.226 7.913 263.632 8C263.772 7.853 263.982 7.657 264.262 7.41C264.536 7.163 264.772 6.997 264.972 6.91V7.03999C264.972 7.15999 264.996 7.27 265.042 7.37C265.082 7.47 265.176 7.52 265.322 7.52C265.696 7.52 266.059 7.43299 266.412 7.25999C266.759 7.08699 267.119 6.97 267.492 6.91C268.332 6.763 269.172 6.54001 270.012 6.24001C270.852 5.93301 271.709 5.78 272.582 5.78C273.509 5.78 274.499 5.84001 275.552 5.96001C276.612 6.07301 277.649 6.29 278.662 6.61C279.676 6.93 280.619 7.36999 281.492 7.92999C282.359 8.49699 283.052 9.23 283.572 10.13C283.806 10.537 284.039 10.847 284.272 11.06C284.499 11.28 284.729 11.47 284.962 11.63C285.196 11.79 285.429 11.95 285.662 12.11C285.896 12.263 286.142 12.487 286.402 12.78C286.949 13.413 287.389 14.1 287.722 14.84C288.056 15.58 288.526 16.24 289.132 16.82C289.886 17.513 290.446 18.353 290.812 19.34C291.172 20.327 291.352 21.327 291.352 22.34C291.352 22.66 291.309 22.98 291.222 23.3C291.136 23.613 291.092 23.943 291.092 24.29C291.092 24.583 291.159 24.89 291.292 25.21C291.419 25.53 291.569 25.863 291.742 26.21C291.916 26.557 292.076 26.917 292.222 27.29C292.369 27.67 292.469 28.033 292.522 28.38C292.609 29.16 292.742 29.92 292.922 30.66C293.096 31.4 293.269 32.16 293.442 32.94C293.669 33.927 293.842 34.927 293.962 35.94C294.076 36.953 294.119 37.967 294.092 38.98Z"/> -->
      <path fill="black" d="m 229.73924,67.169 q -4.65252,0 -8.71422,-2.830923 -3.98787,-2.925288 -6.49874,-8.398411 -2.43703,-5.473123 -2.43703,-13.210983 0,-7.737862 2.43703,-13.210982 2.51087,-5.473123 6.49874,-8.398411 4.0617,-2.92529 8.71422,-2.92529 4.57864,0 8.56651,2.92529 4.06172,2.925288 6.57259,8.398411 2.51088,5.47312 2.51088,13.210982 0,7.73786 -2.51088,13.210983 -2.51087,5.473123 -6.57259,8.398411 -3.98787,2.830923 -8.56651,2.830923 z m 0,-10.474419 q 2.36317,0 3.98786,-1.698557 1.62468,-1.698555 2.43703,-4.812573 0.88619,-3.208384 0.88619,-7.454768 0,-4.246388 -0.88619,-7.360404 -0.81235,-3.208384 -2.43703,-4.90694 -1.62469,-1.792917 -3.98786,-1.792917 -2.43703,0 -4.06172,1.792917 -1.62468,1.698556 -2.43702,4.90694 -0.81235,3.114016 -0.81235,7.360404 0,4.246384 0.81235,7.454768 0.81234,3.114018 2.43702,4.812573 1.62469,1.698557 4.06172,1.698557 z"/>
</svg>