<?xml version="1.0" encoding="UTF-8" standalone="no"?>
<svg id="typewriter-e" height="75" width="360" fill="black" xmlns="http://www.w3.org/2000/svg">
    <!-- <path d="M393.443 41.488C393.443 41.055 393.369 40.635 393.223 40.228C393.076 39.828 392.959 39.408 392.873 38.968C392.733 38.161 392.663 37.375 392.663 36.608C392.663 35.835 392.546 35.058 392.313 34.278H392.273C392.273 34.451 392.213 34.618 392.093 34.778C391.979 34.938 391.819 35.018 391.613 35.018C391.266 35.018 390.933 34.931 390.613 34.758C390.299 34.585 390.026 34.368 389.793 34.108C388.693 33.615 387.699 33.151 386.813 32.718C385.933 32.278 385.049 31.891 384.163 31.558C383.276 31.225 382.336 30.965 381.343 30.778C380.343 30.591 379.189 30.498 377.883 30.498C377.769 30.498 377.659 30.505 377.553 30.518C377.453 30.531 377.359 30.581 377.273 30.668L377.493 31.148L377.143 31.238C376.363 31.385 375.719 31.521 375.213 31.648C374.706 31.781 374.249 31.961 373.843 32.188C373.436 32.421 373.036 32.705 372.643 33.038C372.256 33.371 371.756 33.798 371.143 34.318C370.856 34.578 370.546 34.775 370.213 34.908C369.879 35.041 369.546 35.158 369.213 35.258C368.879 35.358 368.563 35.465 368.263 35.578C367.956 35.698 367.699 35.888 367.493 36.148C367.293 36.875 366.996 37.578 366.603 38.258C366.216 38.938 366.023 39.655 366.023 40.408C366.023 40.841 366.203 41.225 366.563 41.558C366.923 41.891 367.386 42.175 367.953 42.408C368.519 42.635 369.143 42.835 369.823 43.008C370.503 43.188 371.176 43.321 371.843 43.408C372.509 43.495 373.126 43.558 373.693 43.598C374.253 43.645 374.693 43.668 375.013 43.668C376.113 43.668 377.199 43.558 378.273 43.338C379.346 43.118 380.433 43.008 381.533 43.008C382.666 43.008 383.796 43.061 384.923 43.168C386.056 43.268 387.186 43.318 388.313 43.318C388.606 43.318 389.039 43.305 389.613 43.278C390.193 43.245 390.766 43.165 391.333 43.038C391.899 42.905 392.393 42.715 392.813 42.468C393.233 42.221 393.443 41.895 393.443 41.488ZM399.963 59.138C399.963 59.918 399.839 60.585 399.593 61.138C399.346 61.685 399.026 62.175 398.633 62.608C398.239 63.048 397.789 63.455 397.283 63.828C396.776 64.208 396.263 64.615 395.743 65.048C395.336 65.395 394.976 65.655 394.663 65.828C394.343 66.001 394.029 66.145 393.723 66.258C393.416 66.378 393.096 66.495 392.763 66.608C392.436 66.728 392.053 66.888 391.613 67.088C391.033 67.375 390.549 67.641 390.163 67.888C389.769 68.135 389.376 68.361 388.983 68.568C388.596 68.768 388.169 68.935 387.703 69.068C387.243 69.195 386.663 69.301 385.963 69.388C384.809 69.535 383.646 69.708 382.473 69.908C381.299 70.115 380.133 70.218 378.973 70.218C378.739 70.218 378.499 70.168 378.253 70.068C378.006 69.961 377.723 69.858 377.403 69.758C377.083 69.658 376.729 69.558 376.343 69.458C375.949 69.358 375.479 69.308 374.933 69.308C374.353 69.308 373.889 69.221 373.543 69.048C373.189 68.868 372.876 68.665 372.603 68.438C372.329 68.205 372.046 67.951 371.753 67.678C371.466 67.398 371.089 67.158 370.623 66.958C368.889 66.178 367.413 65.238 366.193 64.138C364.979 63.031 363.936 61.798 363.063 60.438C362.196 59.078 361.473 57.601 360.893 56.008C360.313 54.415 359.819 52.748 359.413 51.008C359.093 49.795 358.933 48.578 358.933 47.358C358.933 45.765 359.309 44.288 360.063 42.928C359.776 42.115 359.633 41.331 359.633 40.578C359.633 40.031 359.793 39.215 360.113 38.128C360.426 37.041 360.839 35.945 361.353 34.838C361.859 33.738 362.409 32.748 363.003 31.868C363.596 30.981 364.153 30.438 364.673 30.238C365.079 30.091 365.363 29.968 365.523 29.868C365.683 29.768 365.763 29.485 365.763 29.018C365.763 28.671 365.899 28.381 366.173 28.148C366.446 27.915 366.779 27.728 367.173 27.588C367.566 27.441 367.956 27.311 368.343 27.198C368.736 27.078 369.063 26.961 369.323 26.848C370.396 26.328 371.416 25.885 372.383 25.518C373.356 25.158 374.329 24.855 375.303 24.608C376.269 24.361 377.276 24.181 378.323 24.068C379.363 23.948 380.476 23.888 381.663 23.888C382.303 23.888 382.926 23.975 383.533 24.148C384.139 24.328 384.726 24.555 385.293 24.828C385.859 25.101 386.416 25.405 386.963 25.738C387.516 26.071 388.053 26.398 388.573 26.718H388.533C388.966 26.778 389.379 26.901 389.773 27.088C390.159 27.275 390.569 27.398 391.003 27.458C391.409 27.951 391.939 28.421 392.593 28.868C393.246 29.315 393.883 29.785 394.503 30.278C395.129 30.771 395.666 31.301 396.113 31.868C396.559 32.435 396.783 33.078 396.783 33.798C396.783 33.918 396.776 34.035 396.763 34.148C396.749 34.261 396.729 34.391 396.703 34.538L396.873 34.318C396.993 34.405 397.103 34.551 397.203 34.758C397.303 34.958 397.396 35.181 397.483 35.428C397.569 35.675 397.643 35.921 397.703 36.168C397.756 36.415 397.799 36.611 397.833 36.758C398.066 37.131 398.376 37.435 398.763 37.668C399.156 37.901 399.469 38.221 399.703 38.628C399.409 38.915 399.263 39.291 399.263 39.758C399.263 40.245 399.366 40.728 399.573 41.208C399.773 41.688 399.873 42.175 399.873 42.668C399.873 43.248 399.843 43.805 399.783 44.338C399.729 44.871 399.703 45.428 399.703 46.008C399.703 46.448 399.536 46.781 399.203 47.008C398.869 47.241 398.506 47.445 398.113 47.618C397.719 47.791 397.366 47.965 397.053 48.138C396.733 48.311 396.573 48.558 396.573 48.878C396.573 49.111 396.433 49.221 396.153 49.208C395.879 49.195 395.656 49.188 395.483 49.188C394.209 49.188 392.943 49.028 391.683 48.708C390.423 48.388 389.169 48.228 387.923 48.228C386.563 48.228 385.216 48.321 383.883 48.508C382.549 48.695 381.203 48.788 379.843 48.788C378.829 48.788 377.823 48.761 376.823 48.708C375.823 48.648 374.816 48.618 373.803 48.618C373.536 48.618 373.043 48.668 372.323 48.768C371.596 48.875 370.836 49.005 370.043 49.158C369.243 49.318 368.483 49.508 367.763 49.728C367.036 49.941 366.526 50.151 366.233 50.358C366.206 50.505 366.193 50.708 366.193 50.968C366.193 52.328 366.593 53.731 367.393 55.178C368.186 56.631 369.236 57.951 370.543 59.138C371.843 60.325 373.306 61.308 374.933 62.088C376.553 62.875 378.189 63.268 379.843 63.268C380.796 63.268 381.743 63.301 382.683 63.368C383.629 63.441 384.549 63.651 385.443 63.998C386.229 63.625 386.946 63.191 387.593 62.698C388.246 62.205 388.876 61.685 389.483 61.138C390.096 60.585 390.693 60.018 391.273 59.438C391.846 58.858 392.439 58.278 393.053 57.698C393.166 57.585 393.446 57.478 393.893 57.378C394.346 57.278 394.833 57.191 395.353 57.118C395.873 57.045 396.373 56.985 396.853 56.938C397.333 56.898 397.659 56.878 397.833 56.878C398.499 56.878 399.123 56.978 399.703 57.178C399.876 57.845 399.963 58.498 399.963 59.138Z"/> -->
      <path fill="black" d="m 329.35967,68.069424 q -5.25001,0 -9.52501,-2.324999 -4.19999,-2.324999 -6.67499,-6.6 -2.4,-4.350002 -2.4,-10.500001 0,-6.000002 2.475,-10.35 2.47501,-4.350001 6.45,-6.75 3.975,-2.400001 8.39999,-2.400001 5.17501,0 8.62501,2.325001 3.52499,2.324999 5.24999,6.374999 1.8,3.974999 1.8,9.075 0,1.349999 -0.15003,2.7 -0.15004,1.275 -0.29999,1.95 h -24.525 l -0.075,-6.824999 h 16.275 q 0,-3.525001 -1.65001,-5.625 -1.57499,-2.100002 -5.025,-2.100002 -2.02499,0 -3.89999,1.125002 -1.87501,1.125 -3.075,3.674998 -1.20001,2.550001 -1.20001,6.825002 0,4.274999 1.5,6.824999 1.575,2.475003 3.975,3.600002 2.4,1.125 5.1,1.125 2.25,0 4.2,-0.599999 2.02499,-0.675001 4.05,-1.875 l 3.37501,6.224999 q -2.77501,1.875 -6.22502,2.999999 -3.37498,1.125 -6.74998,1.125 z"/>
</svg>