<?xml version="1.0" encoding="UTF-8" standalone="no"?>
<svg id="typewriter-h" height="75" width="360" fill="black" xmlns="http://www.w3.org/2000/svg">
    <!-- <path d="M240.263 65.788C240.263 66.221 240.053 66.581 239.633 66.868C239.213 67.161 238.676 67.395 238.023 67.568C237.37 67.741 236.653 67.878 235.873 67.978C235.093 68.078 234.32 68.151 233.553 68.198C232.786 68.238 232.09 68.258 231.463 68.258C230.843 68.258 230.373 68.258 230.053 68.258C229.3 68.258 228.62 68.345 228.013 68.518C227.4 68.691 226.826 68.881 226.293 69.088C225.76 69.288 225.26 69.475 224.793 69.648C224.326 69.821 223.863 69.908 223.403 69.908C222.996 69.908 222.656 69.778 222.383 69.518C222.11 69.258 221.77 69.128 221.363 69.128C220.896 69.128 220.46 69.028 220.053 68.828C219.646 68.621 219.286 68.351 218.973 68.018C218.653 67.685 218.4 67.301 218.213 66.868C218.02 66.435 217.923 66.001 217.923 65.568C217.923 65.015 218.063 64.551 218.343 64.178C218.616 63.798 218.97 63.485 219.403 63.238C219.836 62.991 220.306 62.818 220.813 62.718C221.32 62.618 221.806 62.568 222.273 62.568C222.68 62.568 223.07 62.618 223.443 62.718C223.823 62.818 224.173 63.001 224.493 63.268C224.52 62.828 224.633 62.458 224.833 62.158C225.04 61.851 225.26 61.561 225.493 61.288C225.72 61.015 225.93 60.718 226.123 60.398C226.31 60.078 226.403 59.685 226.403 59.218C226.403 58.465 226.36 57.705 226.273 56.938C226.186 56.171 226.143 55.411 226.143 54.658C226.143 54.165 226.193 53.671 226.293 53.178C226.393 52.691 226.443 52.185 226.443 51.658C226.443 51.078 226.406 50.485 226.333 49.878C226.26 49.271 226.223 48.665 226.223 48.058C226.223 47.478 226.31 46.998 226.483 46.618C226.663 46.245 226.753 45.898 226.753 45.578C226.753 44.971 226.65 44.355 226.443 43.728C226.243 43.108 225.97 42.545 225.623 42.038C225.27 41.531 224.863 41.095 224.403 40.728C223.936 40.368 223.456 40.145 222.963 40.058C221.516 39.798 220.07 39.668 218.623 39.668C218.216 39.668 217.84 39.731 217.493 39.858C217.146 39.991 216.87 40.058 216.663 40.058C216.49 40.058 216.29 39.991 216.063 39.858C215.83 39.731 215.67 39.668 215.583 39.668C215.203 39.668 214.82 39.731 214.433 39.858C214.04 39.991 213.64 40.131 213.233 40.278C212.826 40.418 212.42 40.555 212.013 40.688C211.613 40.821 211.223 40.888 210.843 40.888C210.203 40.888 209.543 40.895 208.863 40.908C208.183 40.921 207.516 40.978 206.863 41.078C206.216 41.178 205.596 41.368 205.003 41.648C204.403 41.921 203.873 42.318 203.413 42.838V43.148C203.413 43.721 203.426 44.278 203.453 44.818C203.486 45.351 203.503 45.908 203.503 46.488C203.503 47.155 203.46 47.778 203.373 48.358C203.286 48.938 203.083 49.531 202.763 50.138C202.676 50.371 202.633 50.575 202.633 50.748C202.633 51.215 202.72 51.658 202.893 52.078C203.066 52.498 203.153 52.938 203.153 53.398C203.153 53.605 203.08 53.821 202.933 54.048C202.786 54.281 202.713 54.528 202.713 54.788C202.713 55.195 202.78 55.588 202.913 55.968C203.046 56.341 203.2 56.725 203.373 57.118C203.546 57.505 203.703 57.888 203.843 58.268C203.99 58.641 204.093 59.031 204.153 59.438C204.24 60.278 204.536 60.908 205.043 61.328C205.55 61.748 206.136 62.081 206.803 62.328C207.47 62.575 208.173 62.801 208.913 63.008C209.646 63.208 210.29 63.495 210.843 63.868C210.783 64.161 210.753 64.381 210.753 64.528C210.753 65.015 210.84 65.478 211.013 65.918C211.186 66.351 211.273 66.815 211.273 67.308C211.273 67.801 211.093 68.191 210.733 68.478C210.373 68.771 209.933 68.981 209.413 69.108C208.886 69.241 208.356 69.321 207.823 69.348C207.29 69.375 206.846 69.388 206.493 69.388C206.44 69.388 206.326 69.368 206.153 69.328C205.98 69.281 205.796 69.221 205.603 69.148C205.416 69.081 205.236 69.018 205.063 68.958C204.89 68.898 204.76 68.855 204.673 68.828C203.053 69.148 201.403 69.351 199.723 69.438C198.036 69.525 196.37 69.568 194.723 69.568C194.29 69.568 193.723 69.531 193.023 69.458C192.33 69.385 191.643 69.238 190.963 69.018C190.283 68.805 189.703 68.501 189.223 68.108C188.743 67.715 188.503 67.201 188.503 66.568C188.503 66.275 188.546 65.935 188.633 65.548C188.72 65.155 188.85 64.771 189.023 64.398C189.203 64.018 189.406 63.668 189.633 63.348C189.866 63.028 190.13 62.798 190.423 62.658C191.056 62.365 191.773 62.138 192.573 61.978C193.366 61.818 194.12 61.558 194.833 61.198C195.54 60.838 196.14 60.281 196.633 59.528C197.126 58.775 197.373 57.645 197.373 56.138C197.373 55.385 197.343 54.645 197.283 53.918C197.223 53.198 197.193 52.461 197.193 51.708C197.193 51.301 197.21 50.888 197.243 50.468C197.27 50.048 197.283 49.635 197.283 49.228C197.283 47.981 197.22 46.741 197.093 45.508C196.96 44.281 196.893 43.045 196.893 41.798C196.893 41.278 196.936 40.748 197.023 40.208C197.11 39.675 197.153 39.161 197.153 38.668C197.153 37.941 197.053 37.231 196.853 36.538C196.646 35.845 196.543 35.148 196.543 34.448C196.543 34.308 196.56 34.208 196.593 34.148C196.706 34.001 196.806 33.705 196.893 33.258C196.98 32.811 197.06 32.325 197.133 31.798C197.206 31.278 197.263 30.788 197.303 30.328C197.35 29.861 197.373 29.511 197.373 29.278C197.373 28.585 197.306 27.898 197.173 27.218C197.046 26.538 196.983 25.848 196.983 25.148C196.983 24.748 197.02 24.338 197.093 23.918C197.16 23.498 197.193 23.085 197.193 22.678C197.193 22.505 197.166 22.395 197.113 22.348C197.053 22.308 196.98 22.271 196.893 22.238C196.806 22.211 196.733 22.161 196.673 22.088C196.62 22.015 196.593 21.848 196.593 21.588C196.593 21.355 196.723 21.058 196.983 20.698C197.243 20.338 197.373 19.998 197.373 19.678C197.373 19.418 197.286 19.048 197.113 18.568C196.94 18.088 196.713 17.601 196.433 17.108C196.16 16.621 195.873 16.175 195.573 15.768C195.266 15.361 194.983 15.085 194.723 14.938C194.17 14.678 193.54 14.485 192.833 14.358C192.12 14.225 191.446 14.048 190.813 13.828C190.173 13.615 189.636 13.291 189.203 12.858C188.77 12.418 188.553 11.765 188.553 10.898C188.553 10.118 188.77 9.475 189.203 8.968C189.636 8.461 190.18 8.048 190.833 7.728C191.486 7.408 192.19 7.181 192.943 7.048C193.696 6.921 194.376 6.858 194.983 6.858C195.416 6.858 195.9 6.878 196.433 6.918C196.973 6.965 197.51 7.045 198.043 7.158C198.583 7.278 199.106 7.418 199.613 7.578C200.12 7.731 200.56 7.911 200.933 8.118C201.633 7.885 202.343 7.695 203.063 7.548C203.79 7.408 204.53 7.338 205.283 7.338C205.716 7.338 206.186 7.381 206.693 7.468C207.2 7.555 207.663 7.72801 208.083 7.98801C208.503 8.24801 208.85 8.601 209.123 9.048C209.403 9.501 209.543 10.088 209.543 10.808C209.543 11.128 209.5 11.381 209.413 11.568C209.326 11.761 209.18 11.858 208.973 11.858C208.193 11.858 207.403 12.038 206.603 12.398C205.81 12.758 205.08 13.245 204.413 13.858C203.746 14.465 203.203 15.151 202.783 15.918C202.363 16.685 202.153 17.458 202.153 18.238C202.153 18.618 202.196 18.981 202.283 19.328C202.543 20.228 202.76 21.111 202.933 21.978C203.106 22.851 203.193 23.751 203.193 24.678C203.193 25.458 203.136 26.231 203.023 26.998C202.903 27.765 202.843 28.541 202.843 29.328C202.843 30.341 203.083 31.158 203.563 31.778C204.043 32.405 204.66 32.891 205.413 33.238C206.166 33.585 206.983 33.815 207.863 33.928C208.75 34.048 209.613 34.108 210.453 34.108C211.293 34.108 212.133 34.071 212.973 33.998C213.813 33.925 214.666 33.888 215.533 33.888C216.406 33.888 217.263 33.995 218.103 34.208C218.943 34.428 219.796 34.538 220.663 34.538C220.983 34.538 221.303 34.518 221.623 34.478C221.943 34.431 222.216 34.335 222.443 34.188C222.53 34.135 222.67 34.035 222.863 33.888C223.05 33.741 223.25 33.605 223.463 33.478C223.683 33.345 223.886 33.221 224.073 33.108C224.266 32.988 224.406 32.928 224.493 32.928C224.98 32.841 225.356 32.551 225.623 32.058C225.883 31.565 226.076 31.008 226.203 30.388C226.336 29.768 226.416 29.131 226.443 28.478C226.47 27.825 226.483 27.295 226.483 26.888C226.483 26.428 226.413 25.981 226.273 25.548C226.126 25.108 225.96 24.678 225.773 24.258C225.586 23.838 225.42 23.411 225.273 22.978C225.126 22.545 225.053 22.081 225.053 21.588C225.053 21.008 225.103 20.421 225.203 19.828C225.31 19.235 225.363 18.648 225.363 18.068C225.363 16.855 225.136 15.941 224.683 15.328C224.236 14.721 223.68 14.275 223.013 13.988C222.346 13.695 221.613 13.505 220.813 13.418C220.02 13.331 219.29 13.195 218.623 13.008C217.956 12.821 217.4 12.525 216.953 12.118C216.5 11.711 216.273 11.045 216.273 10.118C216.273 9.511 216.403 9.03099 216.663 8.67799C216.923 8.33099 217.263 8.06501 217.683 7.87801C218.11 7.69101 218.566 7.568 219.053 7.508C219.546 7.448 220.026 7.418 220.493 7.418C221.42 7.418 222.323 7.47801 223.203 7.59801C224.09 7.71101 224.996 7.76801 225.923 7.76801C226.79 7.76801 227.746 7.681 228.793 7.508C229.833 7.335 230.89 7.248 231.963 7.248C232.543 7.248 233.223 7.285 234.003 7.358C234.79 7.431 235.543 7.581 236.263 7.808C236.99 8.041 237.6 8.391 238.093 8.858C238.586 9.318 238.833 9.95501 238.833 10.768C238.833 11.321 238.686 11.765 238.393 12.098C238.106 12.425 237.746 12.711 237.313 12.958C236.873 13.205 236.38 13.415 235.833 13.588C235.28 13.768 234.743 13.951 234.223 14.138C233.703 14.325 233.226 14.541 232.793 14.788C232.353 15.035 232.033 15.361 231.833 15.768C231.633 16.115 231.51 16.505 231.463 16.938C231.423 17.371 231.403 17.791 231.403 18.198C231.403 18.951 231.436 19.691 231.503 20.418C231.576 21.138 231.613 21.875 231.613 22.628C231.613 25.235 231.526 27.821 231.353 30.388C231.18 32.955 231.093 35.525 231.093 38.098C231.093 38.998 231.1 39.891 231.113 40.778C231.126 41.658 231.18 42.548 231.273 43.448C231.326 44.288 231.483 45.105 231.743 45.898C232.003 46.698 232.133 47.518 232.133 48.358C232.133 48.765 232.09 49.085 232.003 49.318C231.916 49.545 231.823 49.745 231.723 49.918C231.623 50.098 231.53 50.258 231.443 50.398C231.356 50.545 231.313 50.705 231.313 50.878C231.313 51.371 231.43 51.848 231.663 52.308C231.89 52.775 232.003 53.255 232.003 53.748C232.003 54.381 231.94 55.018 231.813 55.658C231.68 56.298 231.613 56.935 231.613 57.568C231.613 57.628 231.663 57.855 231.763 58.248C231.87 58.635 231.986 59.061 232.113 59.528C232.246 59.988 232.386 60.421 232.533 60.828C232.673 61.235 232.786 61.481 232.873 61.568C233.22 61.915 233.64 62.175 234.133 62.348C234.626 62.521 235.15 62.675 235.703 62.808C236.25 62.941 236.793 63.078 237.333 63.218C237.866 63.365 238.336 63.581 238.743 63.868C239.03 64.075 239.356 64.345 239.723 64.678C240.083 65.011 240.263 65.381 240.263 65.788Z"/> -->
    <path fill="black" d="m 165.63525,67.169424 v -48.975 h 10.27499 v 19.125 h 17.85002 v -19.125 h 10.27499 v 48.975 H 193.76026 V 46.319423 h -17.85002 v 20.850001 z"/>
</svg>