<?xml version="1.0" encoding="UTF-8" standalone="no"?>
<svg id="typewriter-little-o" height="75" width="360" fill="black" xmlns="http://www.w3.org/2000/svg">
    <!-- <path d="M287.022 49.528C287.022 49.068 286.849 48.788 286.502 48.688C286.155 48.581 285.762 48.515 285.322 48.488C284.889 48.461 284.462 48.418 284.042 48.358C283.622 48.298 283.339 48.081 283.192 47.708V47.268C283.192 46.635 283.115 45.891 282.962 45.038C282.802 44.178 282.605 43.308 282.372 42.428C282.139 41.541 281.892 40.671 281.632 39.818C281.372 38.965 281.125 38.205 280.892 37.538C280.659 36.871 280.472 36.335 280.332 35.928C280.185 35.521 280.112 35.318 280.112 35.318C279.879 35.378 279.689 35.408 279.542 35.408C279.055 35.408 278.629 35.308 278.262 35.108C277.902 34.901 277.499 34.681 277.052 34.448C276.599 34.221 276.045 34.005 275.392 33.798C274.745 33.598 273.885 33.498 272.812 33.498C271.625 33.498 270.452 33.418 269.292 33.258C268.132 33.098 266.959 33.018 265.772 33.018C264.145 33.018 262.625 33.388 261.212 34.128C259.792 34.868 258.545 35.838 257.472 37.038C256.399 38.238 255.559 39.591 254.952 41.098C254.339 42.605 254.032 44.128 254.032 45.668C254.032 46.301 254.049 47.045 254.082 47.898C254.109 48.758 254.182 49.615 254.302 50.468C254.415 51.321 254.602 52.118 254.862 52.858C255.122 53.598 255.485 54.155 255.952 54.528V55.748C256.065 55.861 256.215 55.925 256.402 55.938C256.595 55.958 256.785 55.968 256.972 55.968C257.159 55.968 257.325 55.988 257.472 56.028C257.619 56.075 257.735 56.198 257.822 56.398C258.195 57.471 258.685 58.291 259.292 58.858C259.905 59.418 260.559 59.895 261.252 60.288C261.945 60.681 262.639 61.071 263.332 61.458C264.032 61.851 264.672 62.425 265.252 63.178C265.479 63.151 265.725 63.128 265.992 63.108C266.252 63.095 266.495 63.088 266.722 63.088C267.649 63.088 268.555 63.155 269.442 63.288C270.329 63.415 271.219 63.478 272.112 63.478C273.072 63.478 273.935 63.231 274.702 62.738C275.469 62.251 276.129 61.631 276.682 60.878C277.029 60.385 277.345 59.965 277.632 59.618C277.925 59.265 278.222 58.938 278.522 58.638C278.829 58.331 279.162 58.041 279.522 57.768C279.889 57.495 280.315 57.181 280.802 56.828C280.975 56.715 281.185 56.571 281.432 56.398C281.679 56.225 281.925 56.028 282.172 55.808C282.419 55.595 282.629 55.378 282.802 55.158C282.975 54.945 283.062 54.735 283.062 54.528C283.062 54.268 283.029 54.008 282.962 53.748C282.889 53.488 282.852 53.228 282.852 52.968C282.852 52.675 282.895 52.325 282.982 51.918C283.069 51.518 283.205 51.128 283.392 50.748C283.579 50.375 283.812 50.065 284.092 49.818C284.365 49.571 284.705 49.448 285.112 49.448C285.425 49.448 285.742 49.518 286.062 49.658C286.382 49.805 286.672 49.981 286.932 50.188C286.992 49.895 287.022 49.675 287.022 49.528ZM291.362 49.188C291.362 49.588 291.299 49.971 291.172 50.338C291.039 50.698 290.892 51.008 290.732 51.268C290.579 51.528 290.435 51.745 290.302 51.918C290.169 52.091 290.102 52.195 290.102 52.228C290.102 52.515 290.199 52.818 290.392 53.138C290.579 53.458 290.672 53.805 290.672 54.178C290.672 54.351 290.605 54.468 290.472 54.528C290.345 54.588 290.209 54.618 290.062 54.618C289.802 54.618 289.585 54.588 289.412 54.528C289.439 55.081 289.489 55.618 289.562 56.138C289.635 56.658 289.672 57.195 289.672 57.748C289.672 58.588 289.592 59.131 289.432 59.378C289.272 59.625 289.105 59.775 288.932 59.828C288.759 59.888 288.592 59.955 288.432 60.028C288.272 60.101 288.192 60.368 288.192 60.828C288.192 61.088 288.012 61.421 287.652 61.828C287.292 62.235 286.855 62.641 286.342 63.048C285.835 63.455 285.315 63.801 284.782 64.088C284.249 64.381 283.822 64.528 283.502 64.528C283.415 64.528 283.312 64.498 283.192 64.438C283.192 64.671 283.209 64.918 283.242 65.178C283.269 65.438 283.282 65.685 283.282 65.918C283.282 66.291 283.165 66.545 282.932 66.678C282.705 66.805 282.445 66.928 282.152 67.048C281.719 67.248 281.269 67.545 280.802 67.938C280.342 68.325 279.865 68.721 279.372 69.128C278.879 69.535 278.379 69.891 277.872 70.198C277.365 70.498 276.835 70.648 276.282 70.648C275.822 70.648 275.395 70.535 275.002 70.308C274.615 70.075 274.159 69.958 273.632 69.958C273.172 69.958 272.782 70.021 272.462 70.148C272.142 70.281 271.845 70.428 271.572 70.588C271.299 70.748 271.015 70.891 270.722 71.018C270.435 71.151 270.102 71.218 269.722 71.218C268.969 71.218 268.215 71.021 267.462 70.628C266.709 70.241 265.985 69.931 265.292 69.698C264.885 69.551 264.452 69.441 263.992 69.368C263.525 69.295 263.075 69.215 262.642 69.128C262.209 69.041 261.795 68.905 261.402 68.718C261.009 68.531 260.669 68.265 260.382 67.918C259.775 67.165 259.065 66.541 258.252 66.048C257.439 65.555 256.612 65.091 255.772 64.658C254.932 64.218 254.122 63.761 253.342 63.288C252.562 62.808 251.882 62.178 251.302 61.398C250.862 60.785 250.369 60.125 249.822 59.418C249.269 58.711 248.755 57.965 248.282 57.178C247.802 56.398 247.402 55.601 247.082 54.788C246.762 53.975 246.602 53.178 246.602 52.398C246.602 51.818 246.662 51.255 246.782 50.708C246.895 50.155 247.019 49.595 247.152 49.028C247.279 48.468 247.402 47.911 247.522 47.358C247.635 46.805 247.692 46.241 247.692 45.668V45.188C247.692 45.068 247.649 44.938 247.562 44.798C247.475 44.651 247.382 44.511 247.282 44.378C247.175 44.251 247.072 44.138 246.972 44.038C246.872 43.931 246.809 43.878 246.782 43.878C246.722 43.878 246.692 43.895 246.692 43.928C246.719 43.668 246.799 43.268 246.932 42.728C247.059 42.195 247.212 41.645 247.392 41.078C247.565 40.511 247.739 39.991 247.912 39.518C248.085 39.038 248.245 38.725 248.392 38.578C248.565 38.438 248.729 38.288 248.882 38.128C249.042 37.968 249.122 37.758 249.122 37.498C249.122 37.231 249.109 36.978 249.082 36.738C249.055 36.491 249.042 36.235 249.042 35.968C249.042 35.621 249.085 35.411 249.172 35.338C249.259 35.271 249.375 35.238 249.522 35.238C249.662 35.238 249.805 35.215 249.952 35.168C250.099 35.128 250.242 34.975 250.382 34.708C250.649 34.188 250.902 33.705 251.142 33.258C251.389 32.811 251.659 32.398 251.952 32.018C252.239 31.645 252.572 31.298 252.952 30.978C253.325 30.658 253.789 30.351 254.342 30.058C254.802 29.798 255.259 29.481 255.712 29.108C256.159 28.728 256.615 28.351 257.082 27.978C257.542 27.598 258.012 27.278 258.492 27.018C258.972 26.758 259.485 26.628 260.032 26.628C260.819 26.628 261.579 26.491 262.312 26.218C263.052 25.945 263.799 25.735 264.552 25.588C265.739 25.415 266.919 25.248 268.092 25.088C269.265 24.928 270.462 24.848 271.682 24.848C272.349 24.848 273.159 24.958 274.112 25.178C275.072 25.391 276.052 25.671 277.052 26.018C278.045 26.365 278.985 26.758 279.872 27.198C280.759 27.631 281.462 28.065 281.982 28.498V28.628C281.982 29.035 281.909 29.448 281.762 29.868C281.615 30.288 281.542 30.701 281.542 31.108C281.542 31.161 281.542 31.218 281.542 31.278C281.542 31.338 281.572 31.368 281.632 31.368C282.125 31.368 282.595 31.301 283.042 31.168C283.495 31.041 283.965 30.978 284.452 30.978C284.512 31.471 284.732 31.805 285.112 31.978C285.485 32.151 285.862 32.308 286.242 32.448C286.589 32.628 286.912 32.941 287.212 33.388C287.519 33.835 287.802 34.341 288.062 34.908C288.322 35.475 288.575 36.031 288.822 36.578C289.069 37.131 289.309 37.581 289.542 37.928C289.775 38.275 289.985 38.688 290.172 39.168C290.359 39.648 290.519 40.148 290.652 40.668C290.779 41.188 290.872 41.701 290.932 42.208C290.992 42.715 291.022 43.185 291.022 43.618C291.022 44.198 290.912 44.685 290.692 45.078C290.472 45.471 290.232 45.818 289.972 46.118C289.712 46.425 289.475 46.715 289.262 46.988C289.042 47.261 288.932 47.575 288.932 47.928C288.932 48.128 288.975 48.315 289.062 48.488C289.149 48.661 289.265 48.821 289.412 48.968C289.472 48.941 289.595 48.911 289.782 48.878C289.969 48.851 290.062 48.765 290.062 48.618V48.578C290.062 48.345 289.969 48.128 289.782 47.928C289.595 47.721 289.502 47.475 289.502 47.188C289.502 47.128 289.529 47.031 289.582 46.898C289.642 46.771 289.715 46.708 289.802 46.708C289.975 46.708 290.149 46.815 290.322 47.028C290.495 47.248 290.662 47.481 290.822 47.728C290.982 47.975 291.105 48.185 291.192 48.358C291.279 48.531 291.322 48.588 291.322 48.528L291.282 48.488C291.309 48.635 291.329 48.758 291.342 48.858C291.355 48.958 291.362 49.068 291.362 49.188Z"/> -->
    <path fill="black" d="m 230.73512,68.069424 q -4.72501,0 -8.85,-2.249999 -4.05,-2.324999 -6.6,-6.675 -2.475,-4.350002 -2.475,-10.500001 0,-6.150001 2.475,-10.5 2.55,-4.350001 6.6,-6.675 4.12499,-2.325001 8.85,-2.325001 4.64999,0 8.69999,2.325001 4.12501,2.324999 6.67501,6.675 2.55,4.349999 2.55,10.5 0,6.149999 -2.55,10.500001 -2.55,4.350001 -6.67501,6.675 -4.05,2.249999 -8.69999,2.249999 z m 0,-8.324998 q 2.4,0 4.05,-1.350001 1.65,-1.35 2.475,-3.825002 0.9,-2.550001 0.9,-5.924999 0,-3.375001 -0.9,-5.85 -0.825,-2.550001 -2.475,-3.900002 -1.65,-1.424999 -4.05,-1.424999 -2.475,0 -4.125,1.424999 -1.65,1.350001 -2.475,3.900002 -0.825,2.474999 -0.825,5.85 0,3.374998 0.825,5.924999 0.825,2.475002 2.475,3.825002 1.65,1.350001 4.125,1.350001 z"/>
</svg>