<?xml version="1.0" encoding="UTF-8" standalone="no"?>
<svg id="typewriter-m" height="75" width="360" fill="black" xmlns="http://www.w3.org/2000/svg">
    <!-- <path d="M156.135 66.178C156.135 66.378 156.099 66.688 156.025 67.108C155.952 67.528 155.835 67.948 155.675 68.368C155.522 68.788 155.342 69.158 155.135 69.478C154.935 69.798 154.705 69.958 154.445 69.958C154.125 69.958 153.805 69.891 153.485 69.758C153.165 69.631 152.845 69.568 152.525 69.568C151.512 69.568 150.512 69.661 149.525 69.848C148.545 70.035 147.549 70.128 146.535 70.128C146.042 70.128 145.579 70.065 145.145 69.938C144.705 69.805 144.275 69.665 143.855 69.518C143.435 69.378 143.009 69.235 142.575 69.088C142.142 68.941 141.692 68.838 141.225 68.778C140.532 68.725 140.005 68.451 139.645 67.958C139.285 67.465 139.105 66.885 139.105 66.218C139.105 65.438 139.315 64.778 139.735 64.238C140.155 63.705 140.625 63.141 141.145 62.548C141.665 61.955 142.135 61.238 142.555 60.398C142.975 59.558 143.185 58.428 143.185 57.008C143.185 54.168 143.062 51.351 142.815 48.558C142.569 45.758 142.445 42.938 142.445 40.098V38.798C142.445 38.191 142.415 37.568 142.355 36.928C142.302 36.288 142.159 35.715 141.925 35.208C141.692 34.701 141.359 34.291 140.925 33.978C140.492 33.658 139.885 33.498 139.105 33.498C138.439 33.905 137.799 34.345 137.185 34.818C136.579 35.298 136.045 35.858 135.585 36.498C135.379 36.785 135.159 37.261 134.925 37.928C134.699 38.595 134.482 39.361 134.275 40.228C134.075 41.101 133.879 42.028 133.685 43.008C133.499 43.995 133.335 44.938 133.195 45.838C133.049 46.738 132.932 47.565 132.845 48.318C132.759 49.071 132.715 49.635 132.715 50.008C132.715 51.108 132.795 52.218 132.955 53.338C133.115 54.451 133.195 55.558 133.195 56.658C133.195 57.238 133.142 57.795 133.035 58.328C132.935 58.868 132.885 59.428 132.885 60.008C132.885 60.235 132.899 60.465 132.925 60.698C132.959 60.931 133.049 61.165 133.195 61.398C133.509 61.571 133.892 61.788 134.345 62.048C134.792 62.308 135.212 62.605 135.605 62.938C135.992 63.271 136.325 63.625 136.605 63.998C136.879 64.378 137.015 64.771 137.015 65.178C137.015 66.018 136.712 66.698 136.105 67.218C135.492 67.738 134.782 67.998 133.975 67.998C133.769 67.998 133.579 67.985 133.405 67.958C133.232 67.931 133.045 67.918 132.845 67.918C132.552 67.918 132.269 67.968 131.995 68.068C131.722 68.168 131.439 68.285 131.145 68.418C130.859 68.545 130.562 68.658 130.255 68.758C129.955 68.865 129.629 68.918 129.275 68.918C128.382 68.918 127.515 68.801 126.675 68.568C125.835 68.335 124.965 68.218 124.065 68.218C123.805 68.218 123.572 68.108 123.365 67.888C123.165 67.675 122.999 67.421 122.865 67.128C122.739 66.841 122.645 66.538 122.585 66.218C122.525 65.898 122.495 65.638 122.495 65.438C122.495 64.918 122.605 64.518 122.825 64.238C123.045 63.965 123.312 63.728 123.625 63.528C123.945 63.321 124.302 63.111 124.695 62.898C125.089 62.678 125.442 62.381 125.755 62.008C126.075 61.628 126.345 61.111 126.565 60.458C126.779 59.811 126.885 58.951 126.885 57.878C126.885 57.445 126.829 57.025 126.715 56.618C126.602 56.211 126.479 55.805 126.345 55.398C126.212 54.991 126.095 54.585 125.995 54.178C125.895 53.771 125.845 53.351 125.845 52.918C125.845 52.165 125.932 51.411 126.105 50.658C126.279 49.905 126.365 49.151 126.365 48.398C126.365 47.851 126.265 47.331 126.065 46.838C125.859 46.345 125.755 45.838 125.755 45.318C125.755 44.938 125.865 44.605 126.085 44.318C126.305 44.025 126.415 43.691 126.415 43.318C126.415 43.205 126.385 42.988 126.325 42.668C126.265 42.348 126.199 41.978 126.125 41.558C126.052 41.138 125.989 40.695 125.935 40.228C125.875 39.768 125.845 39.335 125.845 38.928C125.845 38.408 125.912 37.888 126.045 37.368C126.172 36.841 126.235 36.318 126.235 35.798C126.235 35.478 126.155 35.181 125.995 34.908C125.835 34.635 125.625 34.388 125.365 34.168C125.105 33.955 124.815 33.788 124.495 33.668C124.182 33.555 123.879 33.498 123.585 33.498C123.092 33.498 122.615 33.591 122.155 33.778C121.689 33.965 121.252 34.205 120.845 34.498C120.439 34.785 120.049 35.101 119.675 35.448C119.295 35.795 118.932 36.128 118.585 36.448C118.499 36.708 118.419 36.985 118.345 37.278C118.279 37.565 118.172 37.825 118.025 38.058C117.905 38.231 117.725 38.378 117.485 38.498C117.239 38.611 116.992 38.725 116.745 38.838C116.499 38.958 116.279 39.081 116.085 39.208C115.899 39.341 115.805 39.538 115.805 39.798C115.805 40.031 115.885 40.218 116.045 40.358C116.205 40.505 116.372 40.608 116.545 40.668C116.839 41.301 116.985 41.895 116.985 42.448C116.985 42.941 116.932 43.418 116.825 43.878C116.725 44.345 116.612 44.801 116.485 45.248C116.352 45.701 116.235 46.165 116.135 46.638C116.035 47.118 115.985 47.591 115.985 48.058L116.025 52.398C116.025 52.805 116.075 53.075 116.175 53.208C116.275 53.335 116.392 53.435 116.525 53.508C116.652 53.581 116.782 53.691 116.915 53.838C117.049 53.978 117.159 54.281 117.245 54.748C117.332 55.328 117.412 55.915 117.485 56.508C117.552 57.101 117.585 57.688 117.585 58.268C117.585 58.875 117.529 59.475 117.415 60.068C117.302 60.661 117.245 61.265 117.245 61.878C117.245 62.511 117.339 62.981 117.525 63.288C117.712 63.588 117.952 63.805 118.245 63.938C118.532 64.071 118.835 64.158 119.155 64.198C119.475 64.245 119.779 64.325 120.065 64.438C120.359 64.551 120.599 64.755 120.785 65.048C120.972 65.335 121.065 65.798 121.065 66.438C121.065 67.018 120.905 67.488 120.585 67.848C120.265 68.208 119.832 68.461 119.285 68.608C117.459 69.101 115.562 69.491 113.595 69.778C111.622 70.071 109.695 70.218 107.815 70.218C107.235 70.218 106.742 70.195 106.335 70.148C105.929 70.108 105.602 69.995 105.355 69.808C105.109 69.615 104.929 69.318 104.815 68.918C104.695 68.511 104.635 67.931 104.635 67.178C104.635 66.511 104.905 65.908 105.445 65.368C105.979 64.835 106.559 64.321 107.185 63.828C107.805 63.335 108.382 62.835 108.915 62.328C109.455 61.821 109.725 61.265 109.725 60.658C109.725 60.398 109.719 60.158 109.705 59.938C109.685 59.725 109.675 59.528 109.675 59.348C109.675 59.088 109.712 58.828 109.785 58.568C109.859 58.308 110.012 58.018 110.245 57.698C110.245 57.065 110.179 56.428 110.045 55.788C109.919 55.155 109.782 54.525 109.635 53.898C109.489 53.278 109.352 52.655 109.225 52.028C109.092 51.408 109.025 50.765 109.025 50.098C109.025 48.738 109.149 47.405 109.395 46.098C109.642 44.791 109.765 43.458 109.765 42.098C109.765 41.345 109.745 40.608 109.705 39.888C109.659 39.161 109.605 38.421 109.545 37.668C109.459 36.801 109.359 36.098 109.245 35.558C109.132 35.025 108.952 34.568 108.705 34.188C108.459 33.815 108.109 33.491 107.655 33.218C107.209 32.938 106.579 32.611 105.765 32.238C105.305 32.005 104.895 31.698 104.535 31.318C104.169 30.945 103.985 30.481 103.985 29.928C103.985 29.321 104.122 28.895 104.395 28.648C104.675 28.401 104.995 28.215 105.355 28.088C105.715 27.955 106.072 27.831 106.425 27.718C106.772 27.598 107.015 27.365 107.155 27.018C107.275 26.758 107.385 26.608 107.485 26.568C107.585 26.521 107.782 26.498 108.075 26.498C108.855 26.498 109.609 26.621 110.335 26.868C111.055 27.115 111.749 27.375 112.415 27.648C113.082 27.928 113.729 28.191 114.355 28.438C114.975 28.678 115.575 28.798 116.155 28.798C116.762 28.798 117.405 28.605 118.085 28.218C118.765 27.825 119.512 27.398 120.325 26.938C121.139 26.471 122.045 26.041 123.045 25.648C124.045 25.261 125.182 25.068 126.455 25.068C126.949 25.068 127.455 25.181 127.975 25.408C128.495 25.641 129.002 25.931 129.495 26.278C129.989 26.631 130.445 27.008 130.865 27.408C131.285 27.815 131.639 28.208 131.925 28.588C132.625 27.921 133.439 27.341 134.365 26.848C135.292 26.355 136.262 25.948 137.275 25.628C138.289 25.308 139.319 25.078 140.365 24.938C141.405 24.791 142.402 24.718 143.355 24.718C144.082 24.718 144.735 24.915 145.315 25.308C145.895 25.695 146.409 26.215 146.855 26.868C147.309 27.521 147.702 28.255 148.035 29.068C148.369 29.875 148.672 30.685 148.945 31.498C149.219 32.311 149.459 33.101 149.665 33.868C149.865 34.635 150.052 35.278 150.225 35.798C150.285 35.945 150.329 36.091 150.355 36.238C150.382 36.378 150.395 36.535 150.395 36.708C150.395 37.115 150.339 37.508 150.225 37.888C150.112 38.261 149.989 38.631 149.855 38.998C149.729 39.358 149.605 39.725 149.485 40.098C149.372 40.478 149.315 40.871 149.315 41.278C149.315 41.685 149.395 42.075 149.555 42.448C149.715 42.821 149.795 43.211 149.795 43.618C149.795 44.058 149.705 44.471 149.525 44.858C149.352 45.251 149.265 45.665 149.265 46.098C149.265 46.678 149.375 47.228 149.595 47.748C149.815 48.268 149.925 48.818 149.925 49.398C149.925 49.831 149.859 50.245 149.725 50.638C149.592 51.031 149.449 51.431 149.295 51.838C149.135 52.245 148.989 52.641 148.855 53.028C148.729 53.421 148.665 53.835 148.665 54.268C148.665 54.415 148.679 54.551 148.705 54.678C148.732 54.811 148.775 54.951 148.835 55.098L150.525 59.348C150.792 59.961 151.229 60.541 151.835 61.088C152.442 61.641 153.065 62.178 153.705 62.698C154.339 63.218 154.902 63.761 155.395 64.328C155.889 64.895 156.135 65.511 156.135 66.178Z"/> -->
    <path fill="black" d="M 85.835431,67.169424 V 30.044423 h 8.325001 l 0.75,4.875 h 0.299999 q 2.25,-2.324999 4.949999,-4.05 2.7,-1.725 6.3,-1.725 3.975,0 6.45,1.725 2.475,1.650001 3.825,4.650001 2.475,-2.625001 5.25,-4.500001 2.85,-1.875 6.45,-1.875 6,0 8.775,3.975 2.775,3.975001 2.775,10.95 v 23.100001 h -10.2 V 45.344423 q 0,-4.199999 -1.2,-5.775 -1.2,-1.65 -3.75,-1.65 -1.575,0 -3.225,0.974999 -1.65,0.900001 -3.6,2.925 v 25.350002 h -10.2 V 45.344423 q 0,-4.199999 -1.2,-5.775 -1.2,-1.65 -3.75,-1.65 -3.074998,0 -6.824998,3.899999 v 25.350002 z"/>
</svg>