<?xml version="1.0" encoding="UTF-8" standalone="no"?>
<svg id="typewriter-o" height="75" width="360" fill="black" xmlns="http://www.w3.org/2000/svg">
    <!-- <path d="M91.867 49.528C91.867 49.068 91.693 48.788 91.347 48.688C91 48.581 90.607 48.515 90.167 48.488C89.733 48.461 89.307 48.418 88.887 48.358C88.467 48.298 88.183 48.081 88.037 47.708V47.268C88.037 46.635 87.96 45.891 87.807 45.038C87.647 44.178 87.45 43.308 87.217 42.428C86.983 41.541 86.737 40.671 86.477 39.818C86.217 38.965 85.97 38.205 85.737 37.538C85.503 36.871 85.317 36.335 85.177 35.928C85.03 35.521 84.957 35.318 84.957 35.318C84.723 35.378 84.533 35.408 84.387 35.408C83.9 35.408 83.473 35.308 83.107 35.108C82.747 34.901 82.343 34.681 81.897 34.448C81.443 34.221 80.89 34.005 80.237 33.798C79.59 33.598 78.73 33.498 77.657 33.498C76.47 33.498 75.297 33.418 74.137 33.258C72.977 33.098 71.803 33.018 70.617 33.018C68.99 33.018 67.47 33.388 66.057 34.128C64.637 34.868 63.39 35.838 62.317 37.038C61.243 38.238 60.403 39.591 59.797 41.098C59.183 42.605 58.877 44.128 58.877 45.668C58.877 46.301 58.893 47.045 58.927 47.898C58.953 48.758 59.027 49.615 59.147 50.468C59.26 51.321 59.447 52.118 59.707 52.858C59.967 53.598 60.33 54.155 60.797 54.528V55.748C60.91 55.861 61.06 55.925 61.247 55.938C61.44 55.958 61.63 55.968 61.817 55.968C62.003 55.968 62.17 55.988 62.317 56.028C62.463 56.075 62.58 56.198 62.667 56.398C63.04 57.471 63.53 58.291 64.137 58.858C64.75 59.418 65.403 59.895 66.097 60.288C66.79 60.681 67.483 61.071 68.177 61.458C68.877 61.851 69.517 62.425 70.097 63.178C70.323 63.151 70.57 63.128 70.837 63.108C71.097 63.095 71.34 63.088 71.567 63.088C72.493 63.088 73.4 63.155 74.287 63.288C75.173 63.415 76.063 63.478 76.957 63.478C77.917 63.478 78.78 63.231 79.547 62.738C80.313 62.251 80.973 61.631 81.527 60.878C81.873 60.385 82.19 59.965 82.477 59.618C82.77 59.265 83.067 58.938 83.367 58.638C83.673 58.331 84.007 58.041 84.367 57.768C84.733 57.495 85.16 57.181 85.647 56.828C85.82 56.715 86.03 56.571 86.277 56.398C86.523 56.225 86.77 56.028 87.017 55.808C87.263 55.595 87.473 55.378 87.647 55.158C87.82 54.945 87.907 54.735 87.907 54.528C87.907 54.268 87.873 54.008 87.807 53.748C87.733 53.488 87.697 53.228 87.697 52.968C87.697 52.675 87.74 52.325 87.827 51.918C87.913 51.518 88.05 51.128 88.237 50.748C88.423 50.375 88.657 50.065 88.937 49.818C89.21 49.571 89.55 49.448 89.957 49.448C90.27 49.448 90.587 49.518 90.907 49.658C91.227 49.805 91.517 49.981 91.777 50.188C91.837 49.895 91.867 49.675 91.867 49.528ZM96.207 49.188C96.207 49.588 96.143 49.971 96.017 50.338C95.883 50.698 95.737 51.008 95.577 51.268C95.423 51.528 95.28 51.745 95.147 51.918C95.013 52.091 94.947 52.195 94.947 52.228C94.947 52.515 95.043 52.818 95.237 53.138C95.423 53.458 95.517 53.805 95.517 54.178C95.517 54.351 95.45 54.468 95.317 54.528C95.19 54.588 95.053 54.618 94.907 54.618C94.647 54.618 94.43 54.588 94.257 54.528C94.283 55.081 94.333 55.618 94.407 56.138C94.48 56.658 94.517 57.195 94.517 57.748C94.517 58.588 94.437 59.131 94.277 59.378C94.117 59.625 93.95 59.775 93.777 59.828C93.603 59.888 93.437 59.955 93.277 60.028C93.117 60.101 93.037 60.368 93.037 60.828C93.037 61.088 92.857 61.421 92.497 61.828C92.137 62.235 91.7 62.641 91.187 63.048C90.68 63.455 90.16 63.801 89.627 64.088C89.093 64.381 88.667 64.528 88.347 64.528C88.26 64.528 88.157 64.498 88.037 64.438C88.037 64.671 88.053 64.918 88.087 65.178C88.113 65.438 88.127 65.685 88.127 65.918C88.127 66.291 88.01 66.545 87.777 66.678C87.55 66.805 87.29 66.928 86.997 67.048C86.563 67.248 86.113 67.545 85.647 67.938C85.187 68.325 84.71 68.721 84.217 69.128C83.723 69.535 83.223 69.891 82.717 70.198C82.21 70.498 81.68 70.648 81.127 70.648C80.667 70.648 80.24 70.535 79.847 70.308C79.46 70.075 79.003 69.958 78.477 69.958C78.017 69.958 77.627 70.021 77.307 70.148C76.987 70.281 76.69 70.428 76.417 70.588C76.143 70.748 75.86 70.891 75.567 71.018C75.28 71.151 74.947 71.218 74.567 71.218C73.813 71.218 73.06 71.021 72.307 70.628C71.553 70.241 70.83 69.931 70.137 69.698C69.73 69.551 69.297 69.441 68.837 69.368C68.37 69.295 67.92 69.215 67.487 69.128C67.053 69.041 66.64 68.905 66.247 68.718C65.853 68.531 65.513 68.265 65.227 67.918C64.62 67.165 63.91 66.541 63.097 66.048C62.283 65.555 61.457 65.091 60.617 64.658C59.777 64.218 58.967 63.761 58.187 63.288C57.407 62.808 56.727 62.178 56.147 61.398C55.707 60.785 55.213 60.125 54.667 59.418C54.113 58.711 53.6 57.965 53.127 57.178C52.647 56.398 52.247 55.601 51.927 54.788C51.607 53.975 51.447 53.178 51.447 52.398C51.447 51.818 51.507 51.255 51.627 50.708C51.74 50.155 51.863 49.595 51.997 49.028C52.123 48.468 52.247 47.911 52.367 47.358C52.48 46.805 52.537 46.241 52.537 45.668V45.188C52.537 45.068 52.493 44.938 52.407 44.798C52.32 44.651 52.227 44.511 52.127 44.378C52.02 44.251 51.917 44.138 51.817 44.038C51.717 43.931 51.653 43.878 51.627 43.878C51.567 43.878 51.537 43.895 51.537 43.928C51.563 43.668 51.643 43.268 51.777 42.728C51.903 42.195 52.057 41.645 52.237 41.078C52.41 40.511 52.583 39.991 52.757 39.518C52.93 39.038 53.09 38.725 53.237 38.578C53.41 38.438 53.573 38.288 53.727 38.128C53.887 37.968 53.967 37.758 53.967 37.498C53.967 37.231 53.953 36.978 53.927 36.738C53.9 36.491 53.887 36.235 53.887 35.968C53.887 35.621 53.93 35.411 54.017 35.338C54.103 35.271 54.22 35.238 54.367 35.238C54.507 35.238 54.65 35.215 54.797 35.168C54.943 35.128 55.087 34.975 55.227 34.708C55.493 34.188 55.747 33.705 55.987 33.258C56.233 32.811 56.503 32.398 56.797 32.018C57.083 31.645 57.417 31.298 57.797 30.978C58.17 30.658 58.633 30.351 59.187 30.058C59.647 29.798 60.103 29.481 60.557 29.108C61.003 28.728 61.46 28.351 61.927 27.978C62.387 27.598 62.857 27.278 63.337 27.018C63.817 26.758 64.33 26.628 64.877 26.628C65.663 26.628 66.423 26.491 67.157 26.218C67.897 25.945 68.643 25.735 69.397 25.588C70.583 25.415 71.763 25.248 72.937 25.088C74.11 24.928 75.307 24.848 76.527 24.848C77.193 24.848 78.003 24.958 78.957 25.178C79.917 25.391 80.897 25.671 81.897 26.018C82.89 26.365 83.83 26.758 84.717 27.198C85.603 27.631 86.307 28.065 86.827 28.498V28.628C86.827 29.035 86.753 29.448 86.607 29.868C86.46 30.288 86.387 30.701 86.387 31.108C86.387 31.161 86.387 31.218 86.387 31.278C86.387 31.338 86.417 31.368 86.477 31.368C86.97 31.368 87.44 31.301 87.887 31.168C88.34 31.041 88.81 30.978 89.297 30.978C89.357 31.471 89.577 31.805 89.957 31.978C90.33 32.151 90.707 32.308 91.087 32.448C91.433 32.628 91.757 32.941 92.057 33.388C92.363 33.835 92.647 34.341 92.907 34.908C93.167 35.475 93.42 36.031 93.667 36.578C93.913 37.131 94.153 37.581 94.387 37.928C94.62 38.275 94.83 38.688 95.017 39.168C95.203 39.648 95.363 40.148 95.497 40.668C95.623 41.188 95.717 41.701 95.777 42.208C95.837 42.715 95.867 43.185 95.867 43.618C95.867 44.198 95.757 44.685 95.537 45.078C95.317 45.471 95.077 45.818 94.817 46.118C94.557 46.425 94.32 46.715 94.107 46.988C93.887 47.261 93.777 47.575 93.777 47.928C93.777 48.128 93.82 48.315 93.907 48.488C93.993 48.661 94.11 48.821 94.257 48.968C94.317 48.941 94.44 48.911 94.627 48.878C94.813 48.851 94.907 48.765 94.907 48.618V48.578C94.907 48.345 94.813 48.128 94.627 47.928C94.44 47.721 94.347 47.475 94.347 47.188C94.347 47.128 94.373 47.031 94.427 46.898C94.487 46.771 94.56 46.708 94.647 46.708C94.82 46.708 94.993 46.815 95.167 47.028C95.34 47.248 95.507 47.481 95.667 47.728C95.827 47.975 95.95 48.185 96.037 48.358C96.123 48.531 96.167 48.588 96.167 48.528L96.127 48.488C96.153 48.635 96.173 48.758 96.187 48.858C96.2 48.958 96.207 49.068 96.207 49.188Z"/> -->
    <path fill="black" d="m 60.035466,68.069424 q -4.724999,0 -8.849999,-2.249999 -4.049999,-2.324999 -6.6,-6.675 -2.474999,-4.350002 -2.474999,-10.500001 0,-6.150001 2.474999,-10.5 2.550001,-4.350001 6.6,-6.675 4.125,-2.325001 8.849999,-2.325001 4.650001,0 8.7,2.325001 4.125001,2.324999 6.675,6.675 2.55,4.349999 2.55,10.5 0,6.149999 -2.55,10.500001 -2.549999,4.350001 -6.675,6.675 -4.049999,2.249999 -8.7,2.249999 z m 0,-8.324998 q 2.400001,0 4.050002,-1.350001 1.649998,-1.35 2.474999,-3.825002 0.9,-2.550001 0.9,-5.924999 0,-3.375001 -0.9,-5.85 -0.825001,-2.550001 -2.474999,-3.900002 -1.650001,-1.424999 -4.050002,-1.424999 -2.474998,0 -4.124999,1.424999 -1.65,1.350001 -2.474999,3.900002 -0.825,2.474999 -0.825,5.85 0,3.374998 0.825,5.924999 0.824999,2.475002 2.474999,3.825002 1.650001,1.350001 4.124999,1.350001 z"/>
</svg>