<?xml version="1.0" encoding="UTF-8" standalone="no"?>
<svg id="typewriter-t" height="75" width="360" xmlns="http://www.w3.org/2000/svg">
    <!-- <path fill="black" d="M47.93 22.848C47.93 23.368 47.923 23.898 47.91 24.438C47.897 24.971 47.833 25.485 47.72 25.978C47.66 26.238 47.527 26.521 47.32 26.828C47.12 27.128 46.883 27.418 46.61 27.698C46.33 27.971 46.033 28.201 45.72 28.388C45.4 28.575 45.11 28.668 44.85 28.668C44.417 28.668 44.14 28.495 44.02 28.148C43.907 27.801 43.827 27.425 43.78 27.018C43.74 26.611 43.653 26.235 43.52 25.888C43.393 25.541 43.097 25.368 42.63 25.368C42.483 25.368 42.36 25.398 42.26 25.458C42.16 25.518 42.037 25.548 41.89 25.548C41.837 25.548 41.78 25.371 41.72 25.018C41.66 24.671 41.587 24.251 41.5 23.758C41.413 23.265 41.313 22.765 41.2 22.258C41.08 21.751 40.95 21.325 40.81 20.978C40.543 20.431 40.273 19.861 40 19.268C39.727 18.668 39.59 18.038 39.59 17.378C39.59 16.911 39.677 16.511 39.85 16.178C40.023 15.845 40.21 15.535 40.41 15.248C40.617 14.955 40.807 14.665 40.98 14.378C41.153 14.085 41.24 13.735 41.24 13.328C41.24 12.748 41.053 12.241 40.68 11.808C40.3 11.375 39.827 11.021 39.26 10.748C38.7 10.475 38.107 10.271 37.48 10.138C36.86 10.005 36.317 9.938 35.85 9.938C35.07 9.938 34.31 10.035 33.57 10.228C32.83 10.415 32.09 10.638 31.35 10.898C30.617 11.158 29.887 11.435 29.16 11.728C28.433 12.015 27.71 12.258 26.99 12.458C27.13 12.865 27.223 13.285 27.27 13.718C27.31 14.158 27.33 14.595 27.33 15.028C27.33 16.015 27.287 16.991 27.2 17.958C27.113 18.931 27.07 19.911 27.07 20.898C27.07 21.965 27.13 23.028 27.25 24.088C27.363 25.148 27.487 26.198 27.62 27.238C27.747 28.278 27.87 29.328 27.99 30.388C28.103 31.448 28.16 32.498 28.16 33.538C28.16 34.811 27.943 36.058 27.51 37.278C27.423 37.511 27.38 37.698 27.38 37.838C27.38 38.158 27.45 38.471 27.59 38.778C27.737 39.078 27.903 39.395 28.09 39.728C28.283 40.061 28.45 40.405 28.59 40.758C28.737 41.105 28.81 41.465 28.81 41.838C28.81 42.185 28.753 42.518 28.64 42.838C28.52 43.158 28.46 43.478 28.46 43.798C28.46 44.258 28.527 44.705 28.66 45.138C28.793 45.578 28.86 46.028 28.86 46.488C28.86 46.748 28.793 46.908 28.66 46.968C28.527 47.028 28.373 47.058 28.2 47.058C28.027 47.058 27.877 47.065 27.75 47.078C27.617 47.091 27.55 47.171 27.55 47.318C27.55 47.751 27.643 48.165 27.83 48.558C28.023 48.945 28.12 49.355 28.12 49.788C28.12 50.168 28.04 50.525 27.88 50.858C27.72 51.191 27.64 51.545 27.64 51.918C27.64 52.298 27.807 52.631 28.14 52.918C28.473 53.211 28.713 53.561 28.86 53.968C29 54.455 29.12 55.018 29.22 55.658C29.327 56.298 29.53 56.908 29.83 57.488C30.137 58.068 30.61 58.551 31.25 58.938C31.883 59.331 32.823 59.528 34.07 59.528H35.33C35.677 59.528 36.103 59.558 36.61 59.618C37.117 59.671 37.61 59.778 38.09 59.938C38.57 60.098 38.977 60.331 39.31 60.638C39.643 60.938 39.81 61.321 39.81 61.788C39.81 62.248 39.723 62.698 39.55 63.138C39.37 63.571 39.28 64.018 39.28 64.478C39.28 64.625 39.31 64.841 39.37 65.128C38.937 65.128 38.553 65.225 38.22 65.418C37.887 65.605 37.647 65.915 37.5 66.348C36.92 66.235 36.333 66.155 35.74 66.108C35.147 66.068 34.56 66.048 33.98 66.048C32.507 66.048 31.043 66.155 29.59 66.368C28.143 66.588 26.69 66.821 25.23 67.068C23.763 67.315 22.3 67.545 20.84 67.758C19.373 67.978 17.903 68.088 16.43 68.088C15.937 68.088 15.327 68.075 14.6 68.048C13.873 68.015 13.18 67.911 12.52 67.738C11.853 67.565 11.28 67.298 10.8 66.938C10.32 66.571 10.08 66.041 10.08 65.348C10.08 64.541 10.16 63.941 10.32 63.548C10.48 63.155 10.677 62.878 10.91 62.718C11.143 62.558 11.41 62.465 11.71 62.438C12.017 62.411 12.313 62.355 12.6 62.268C12.687 62.181 12.73 62.095 12.73 62.008C12.73 61.861 12.667 61.738 12.54 61.638C12.407 61.531 12.267 61.451 12.12 61.398C12.613 60.965 13.173 60.658 13.8 60.478C14.42 60.305 15.057 60.191 15.71 60.138C16.363 60.078 17.023 60.018 17.69 59.958C18.357 59.905 18.98 59.761 19.56 59.528C19.787 59.441 20.03 59.195 20.29 58.788C20.557 58.381 20.797 57.931 21.01 57.438C21.23 56.945 21.403 56.455 21.53 55.968C21.663 55.475 21.73 55.098 21.73 54.838V54.748C21.523 53.355 21.363 51.991 21.25 50.658C21.137 49.325 21.08 47.965 21.08 46.578C21.08 46.458 21.123 46.261 21.21 45.988C21.297 45.715 21.41 45.431 21.55 45.138C21.67 44.825 21.83 44.465 22.03 44.058C21.797 43.678 21.593 43.328 21.42 43.008C21.28 42.721 21.15 42.448 21.03 42.188C20.917 41.928 20.86 41.725 20.86 41.578C20.86 41.231 20.917 40.898 21.03 40.578C21.15 40.258 21.237 39.941 21.29 39.628C21.463 38.408 21.55 37.175 21.55 35.928C21.55 35.408 21.517 34.895 21.45 34.388C21.377 33.881 21.28 33.381 21.16 32.888C20.787 31.121 20.6 29.295 20.6 27.408C20.6 25.208 20.743 23.021 21.03 20.848C21.323 18.675 21.47 16.488 21.47 14.288C21.47 13.535 21.34 12.948 21.08 12.528C20.82 12.108 20.313 11.781 19.56 11.548C18.54 11.261 17.487 11.031 16.4 10.858C15.32 10.685 14.243 10.598 13.17 10.598C12.357 10.598 11.51 10.691 10.63 10.878C9.743 11.065 8.93 11.368 8.19 11.788C7.45 12.208 6.843 12.758 6.37 13.438C5.89 14.118 5.65 14.938 5.65 15.898C5.65 16.391 5.68 16.868 5.74 17.328C5.793 17.795 5.82 18.275 5.82 18.768C5.82 19.228 5.727 19.625 5.54 19.958C5.353 20.291 5.26 20.618 5.26 20.938C5.26 21.371 5.377 21.778 5.61 22.158C5.837 22.531 5.95 22.935 5.95 23.368C5.95 23.661 5.887 23.981 5.76 24.328C5.627 24.675 5.473 25.028 5.3 25.388C5.127 25.755 4.96 26.111 4.8 26.458C4.64 26.805 4.517 27.121 4.43 27.408C4.29 27.848 4.103 28.225 3.87 28.538C3.637 28.858 3.273 29.018 2.78 29.018C2.373 29.018 1.997 28.881 1.65 28.608C1.303 28.335 1.13 27.995 1.13 27.588C1.13 27.268 1.21 27.015 1.37 26.828C1.53 26.635 1.61 26.408 1.61 26.148C1.61 25.861 1.55 25.565 1.43 25.258C1.317 24.958 1.18 24.655 1.02 24.348C0.859997 24.041 0.722997 23.731 0.609997 23.418C0.489997 23.098 0.43 22.778 0.43 22.458C0.43 22.051 0.496997 21.661 0.629997 21.288C0.762997 20.908 0.829998 20.515 0.829998 20.108C0.829998 19.241 0.69 18.388 0.41 17.548C0.137 16.708 0 15.855 0 14.988C0 14.201 0.0869983 13.271 0.259998 12.198C0.432998 11.131 0.729998 10.105 1.15 9.118C1.57 8.131 2.12 7.298 2.8 6.618C3.48 5.938 4.343 5.59801 5.39 5.59801C6.11 5.59801 6.827 5.678 7.54 5.838C8.247 5.998 8.977 6.078 9.73 6.078C10.57 6.078 11.41 6.005 12.25 5.858C13.09 5.711 13.933 5.638 14.78 5.638C15.353 5.638 15.893 5.731 16.4 5.918C16.913 6.111 17.457 6.20799 18.03 6.20799C18.383 6.20799 18.683 6.128 18.93 5.968C19.17 5.808 19.45 5.728 19.77 5.728C20.117 5.728 20.457 5.808 20.79 5.968C21.123 6.128 21.467 6.20799 21.82 6.20799C22.133 6.20799 22.43 6.165 22.71 6.078C22.983 5.991 23.263 5.948 23.55 5.948C23.99 5.948 24.42 6.005 24.84 6.118C25.26 6.231 25.67 6.28799 26.07 6.28799L31.33 5.638C32.117 5.578 32.9 5.521 33.68 5.468C34.46 5.408 35.257 5.37801 36.07 5.37801C37.463 5.37801 38.847 5.48799 40.22 5.70799C41.593 5.92099 42.977 6.188 44.37 6.508V6.548C45.323 6.781 46.003 7.275 46.41 8.028C46.817 8.781 47.087 9.645 47.22 10.618C47.347 11.585 47.397 12.575 47.37 13.588C47.337 14.608 47.35 15.478 47.41 16.198C47.497 17.298 47.607 18.408 47.74 19.528C47.867 20.641 47.93 21.748 47.93 22.848Z"/> -->
    <path fill="black" d="m 18.935606,67.169424 v -40.35 H 5.2856068 v -8.625 H 42.935605 v 8.625 H 29.210606 v 40.35 z"/>
</svg>