<svg width="419" height="75" viewBox="0 0 419 75" fill="none" xmlns="http://www.w3.org/2000/svg">
<path d="M419 29.1562C419 29.3438 418.976 29.7031 418.929 30.2344C418.906 30.7344 418.871 31.2812 418.824 31.875C418.776 32.4375 418.729 32.9844 418.682 33.5156C418.659 34.0469 418.647 34.4062 418.647 34.5938C418.647 35.0938 418.682 35.5938 418.753 36.0938C418.824 36.5625 418.859 37.0781 418.859 37.6406C418.859 37.9531 418.812 38.2656 418.718 38.5781C418.624 38.8594 418.576 39.1719 418.576 39.5156C418.576 39.7656 418.588 40.1875 418.612 40.7812C418.635 41.375 418.659 42.0156 418.682 42.7031C418.729 43.3594 418.765 43.9844 418.788 44.5781C418.835 45.1719 418.859 45.5938 418.859 45.8438C418.859 46.1875 418.824 46.5 418.753 46.7812C418.682 47.0625 418.647 47.375 418.647 47.7188C418.647 48.0312 418.694 48.3125 418.788 48.5625C418.882 48.7812 418.929 49.0469 418.929 49.3594C418.929 49.5469 418.918 49.9062 418.894 50.4375C418.871 50.9375 418.847 51.4844 418.824 52.0781C418.8 52.6406 418.765 53.1719 418.718 53.6719C418.694 54.1719 418.671 54.5 418.647 54.6562C418.6 55.25 418.612 55.8281 418.682 56.3906C418.753 56.9531 418.788 57.5156 418.788 58.0781C418.788 58.2656 418.765 58.5312 418.718 58.875C418.694 59.1875 418.659 59.5312 418.612 59.9062C418.588 60.2812 418.565 60.6406 418.541 60.9844C418.518 61.2969 418.506 61.5312 418.506 61.6875C418.506 61.9062 418.529 62.0938 418.576 62.25C418.624 62.4062 418.647 62.6094 418.647 62.8594C418.694 63.3281 418.694 63.7969 418.647 64.2656C418.6 64.7031 418.576 65.1562 418.576 65.625C418.576 65.9375 418.624 66.2188 418.718 66.4688C418.812 66.6875 418.859 66.9531 418.859 67.2656C418.859 67.5469 418.824 67.7812 418.753 67.9688C418.682 68.1562 418.647 68.375 418.647 68.625C418.647 68.875 418.694 69.0781 418.788 69.2344C418.882 69.3906 418.929 69.5781 418.929 69.7969C418.929 70.0469 418.871 70.2812 418.753 70.5C418.635 70.7188 418.576 71 418.576 71.3438C418.576 71.5625 418.612 71.7656 418.682 71.9531C418.753 72.1719 418.788 72.4062 418.788 72.6562C418.788 73 418.682 73.2969 418.471 73.5469C418.259 73.7969 418 74 417.694 74.1562C417.388 74.3125 417.071 74.4375 416.741 74.5312C416.412 74.625 416.129 74.6719 415.894 74.6719C414.906 74.6719 414.176 74.2812 413.706 73.5C413.235 72.7188 413 71.7812 413 70.6875C413 69.7812 413.082 68.8906 413.247 68.0156C413.435 67.1094 413.529 66.2031 413.529 65.2969C413.529 64.8906 413.447 64.5312 413.282 64.2188C413.141 63.9062 413.071 63.5312 413.071 63.0938C413.071 62.7812 413.094 62.3906 413.141 61.9219C413.212 61.4219 413.271 60.9062 413.318 60.375C413.388 59.8438 413.447 59.3438 413.494 58.875C413.565 58.375 413.6 57.9531 413.6 57.6094C413.6 57.1406 413.529 56.6562 413.388 56.1562C413.247 55.6562 413.176 55.125 413.176 54.5625C413.176 54.0938 413.188 53.4531 413.212 52.6406C413.235 51.8281 413.259 50.9844 413.282 50.1094C413.329 49.2031 413.365 48.3281 413.388 47.4844C413.435 46.6406 413.459 45.9844 413.459 45.5156C413.459 45.3594 413.447 45.0312 413.424 44.5312C413.4 44.0312 413.376 43.4844 413.353 42.8906C413.329 42.2969 413.306 41.75 413.282 41.25C413.259 40.75 413.247 40.4219 413.247 40.2656C413.247 39.8594 413.294 39.4688 413.388 39.0938C413.482 38.6875 413.529 38.2656 413.529 37.8281C413.529 37.1719 413.506 36.5 413.459 35.8125C413.412 35.0938 413.388 34.3906 413.388 33.7031C413.388 33.3906 413.412 32.9062 413.459 32.25C413.529 31.5625 413.6 30.8594 413.671 30.1406C413.741 29.4219 413.8 28.75 413.847 28.125C413.918 27.4688 413.953 26.9844 413.953 26.6719C413.953 26.4531 413.929 26.1562 413.882 25.7812C413.835 25.375 413.776 24.9531 413.706 24.5156C413.635 24.0781 413.576 23.6562 413.529 23.25C413.482 22.8438 413.459 22.5156 413.459 22.2656C413.459 21.9531 413.482 21.5469 413.529 21.0469C413.576 20.5156 413.624 19.9688 413.671 19.4062C413.718 18.8438 413.765 18.3125 413.812 17.8125C413.859 17.3125 413.882 16.8906 413.882 16.5469C413.882 16.2656 413.835 15.8281 413.741 15.2344C413.671 14.6406 413.576 14 413.459 13.3125C413.365 12.5938 413.271 11.8906 413.176 11.2031C413.106 10.4844 413.071 9.84375 413.071 9.28125C413.071 8.8125 413.141 8.375 413.282 7.96875C413.447 7.53125 413.529 7.10938 413.529 6.70312C413.529 6.39062 413.494 6.10938 413.424 5.85938C413.353 5.60938 413.318 5.35938 413.318 5.10938C413.318 4.57812 413.353 4.01562 413.424 3.42188C413.518 2.82812 413.671 2.28125 413.882 1.78125C414.094 1.25 414.376 0.828125 414.729 0.515625C415.106 0.171875 415.576 0 416.141 0C416.635 0 417.035 0.140625 417.341 0.421875C417.647 0.703125 417.894 1.0625 418.082 1.5C418.271 1.9375 418.4 2.42188 418.471 2.95312C418.541 3.45312 418.576 3.9375 418.576 4.40625C418.576 4.75 418.529 5.0625 418.435 5.34375C418.341 5.625 418.294 5.92188 418.294 6.23438C418.294 7.20312 418.353 8.25 418.471 9.375C418.588 10.4688 418.647 11.6094 418.647 12.7969C418.647 13.3906 418.6 14.1406 418.506 15.0469C418.412 15.9219 418.365 16.6562 418.365 17.25C418.365 17.5938 418.388 18.0156 418.435 18.5156C418.506 18.9844 418.576 19.5 418.647 20.0625C418.718 20.5938 418.776 21.1094 418.824 21.6094C418.894 22.1094 418.929 22.5156 418.929 22.8281C418.929 22.9844 418.906 23.2344 418.859 23.5781C418.835 23.8906 418.8 24.2344 418.753 24.6094C418.729 24.9844 418.706 25.3438 418.682 25.6875C418.659 26 418.647 26.2188 418.647 26.3438C418.647 26.8125 418.706 27.2812 418.824 27.75C418.941 28.2188 419 28.6875 419 29.1562Z" fill="#333333"/>
<path d="M393.443 40.488C393.443 40.055 393.369 39.635 393.223 39.228C393.076 38.828 392.959 38.408 392.873 37.968C392.733 37.161 392.663 36.375 392.663 35.608C392.663 34.835 392.546 34.058 392.313 33.278H392.273C392.273 33.451 392.213 33.618 392.093 33.778C391.979 33.938 391.819 34.018 391.613 34.018C391.266 34.018 390.933 33.931 390.613 33.758C390.299 33.585 390.026 33.368 389.793 33.108C388.693 32.615 387.699 32.151 386.813 31.718C385.933 31.278 385.049 30.891 384.163 30.558C383.276 30.225 382.336 29.965 381.343 29.778C380.343 29.591 379.189 29.498 377.883 29.498C377.769 29.498 377.659 29.505 377.553 29.518C377.453 29.531 377.359 29.581 377.273 29.668L377.493 30.148L377.143 30.238C376.363 30.385 375.719 30.521 375.213 30.648C374.706 30.781 374.249 30.961 373.843 31.188C373.436 31.421 373.036 31.705 372.643 32.038C372.256 32.371 371.756 32.798 371.143 33.318C370.856 33.578 370.546 33.775 370.213 33.908C369.879 34.041 369.546 34.158 369.213 34.258C368.879 34.358 368.563 34.465 368.263 34.578C367.956 34.698 367.699 34.888 367.493 35.148C367.293 35.875 366.996 36.578 366.603 37.258C366.216 37.938 366.023 38.655 366.023 39.408C366.023 39.841 366.203 40.225 366.563 40.558C366.923 40.891 367.386 41.175 367.953 41.408C368.519 41.635 369.143 41.835 369.823 42.008C370.503 42.188 371.176 42.321 371.843 42.408C372.509 42.495 373.126 42.558 373.693 42.598C374.253 42.645 374.693 42.668 375.013 42.668C376.113 42.668 377.199 42.558 378.273 42.338C379.346 42.118 380.433 42.008 381.533 42.008C382.666 42.008 383.796 42.061 384.923 42.168C386.056 42.268 387.186 42.318 388.313 42.318C388.606 42.318 389.039 42.305 389.613 42.278C390.193 42.245 390.766 42.165 391.333 42.038C391.899 41.905 392.393 41.715 392.813 41.468C393.233 41.221 393.443 40.895 393.443 40.488ZM399.963 58.138C399.963 58.918 399.839 59.585 399.593 60.138C399.346 60.685 399.026 61.175 398.633 61.608C398.239 62.048 397.789 62.455 397.283 62.828C396.776 63.208 396.263 63.615 395.743 64.048C395.336 64.395 394.976 64.655 394.663 64.828C394.343 65.001 394.029 65.145 393.723 65.258C393.416 65.378 393.096 65.495 392.763 65.608C392.436 65.728 392.053 65.888 391.613 66.088C391.033 66.375 390.549 66.641 390.163 66.888C389.769 67.135 389.376 67.361 388.983 67.568C388.596 67.768 388.169 67.935 387.703 68.068C387.243 68.195 386.663 68.301 385.963 68.388C384.809 68.535 383.646 68.708 382.473 68.908C381.299 69.115 380.133 69.218 378.973 69.218C378.739 69.218 378.499 69.168 378.253 69.068C378.006 68.961 377.723 68.858 377.403 68.758C377.083 68.658 376.729 68.558 376.343 68.458C375.949 68.358 375.479 68.308 374.933 68.308C374.353 68.308 373.889 68.221 373.543 68.048C373.189 67.868 372.876 67.665 372.603 67.438C372.329 67.205 372.046 66.951 371.753 66.678C371.466 66.398 371.089 66.158 370.623 65.958C368.889 65.178 367.413 64.238 366.193 63.138C364.979 62.031 363.936 60.798 363.063 59.438C362.196 58.078 361.473 56.601 360.893 55.008C360.313 53.415 359.819 51.748 359.413 50.008C359.093 48.795 358.933 47.578 358.933 46.358C358.933 44.765 359.309 43.288 360.063 41.928C359.776 41.115 359.633 40.331 359.633 39.578C359.633 39.031 359.793 38.215 360.113 37.128C360.426 36.041 360.839 34.945 361.353 33.838C361.859 32.738 362.409 31.748 363.003 30.868C363.596 29.981 364.153 29.438 364.673 29.238C365.079 29.091 365.363 28.968 365.523 28.868C365.683 28.768 365.763 28.485 365.763 28.018C365.763 27.671 365.899 27.381 366.173 27.148C366.446 26.915 366.779 26.728 367.173 26.588C367.566 26.441 367.956 26.311 368.343 26.198C368.736 26.078 369.063 25.961 369.323 25.848C370.396 25.328 371.416 24.885 372.383 24.518C373.356 24.158 374.329 23.855 375.303 23.608C376.269 23.361 377.276 23.181 378.323 23.068C379.363 22.948 380.476 22.888 381.663 22.888C382.303 22.888 382.926 22.975 383.533 23.148C384.139 23.328 384.726 23.555 385.293 23.828C385.859 24.101 386.416 24.405 386.963 24.738C387.516 25.071 388.053 25.398 388.573 25.718H388.533C388.966 25.778 389.379 25.901 389.773 26.088C390.159 26.275 390.569 26.398 391.003 26.458C391.409 26.951 391.939 27.421 392.593 27.868C393.246 28.315 393.883 28.785 394.503 29.278C395.129 29.771 395.666 30.301 396.113 30.868C396.559 31.435 396.783 32.078 396.783 32.798C396.783 32.918 396.776 33.035 396.763 33.148C396.749 33.261 396.729 33.391 396.703 33.538L396.873 33.318C396.993 33.405 397.103 33.551 397.203 33.758C397.303 33.958 397.396 34.181 397.483 34.428C397.569 34.675 397.643 34.921 397.703 35.168C397.756 35.415 397.799 35.611 397.833 35.758C398.066 36.131 398.376 36.435 398.763 36.668C399.156 36.901 399.469 37.221 399.703 37.628C399.409 37.915 399.263 38.291 399.263 38.758C399.263 39.245 399.366 39.728 399.573 40.208C399.773 40.688 399.873 41.175 399.873 41.668C399.873 42.248 399.843 42.805 399.783 43.338C399.729 43.871 399.703 44.428 399.703 45.008C399.703 45.448 399.536 45.781 399.203 46.008C398.869 46.241 398.506 46.445 398.113 46.618C397.719 46.791 397.366 46.965 397.053 47.138C396.733 47.311 396.573 47.558 396.573 47.878C396.573 48.111 396.433 48.221 396.153 48.208C395.879 48.195 395.656 48.188 395.483 48.188C394.209 48.188 392.943 48.028 391.683 47.708C390.423 47.388 389.169 47.228 387.923 47.228C386.563 47.228 385.216 47.321 383.883 47.508C382.549 47.695 381.203 47.788 379.843 47.788C378.829 47.788 377.823 47.761 376.823 47.708C375.823 47.648 374.816 47.618 373.803 47.618C373.536 47.618 373.043 47.668 372.323 47.768C371.596 47.875 370.836 48.005 370.043 48.158C369.243 48.318 368.483 48.508 367.763 48.728C367.036 48.941 366.526 49.151 366.233 49.358C366.206 49.505 366.193 49.708 366.193 49.968C366.193 51.328 366.593 52.731 367.393 54.178C368.186 55.631 369.236 56.951 370.543 58.138C371.843 59.325 373.306 60.308 374.933 61.088C376.553 61.875 378.189 62.268 379.843 62.268C380.796 62.268 381.743 62.301 382.683 62.368C383.629 62.441 384.549 62.651 385.443 62.998C386.229 62.625 386.946 62.191 387.593 61.698C388.246 61.205 388.876 60.685 389.483 60.138C390.096 59.585 390.693 59.018 391.273 58.438C391.846 57.858 392.439 57.278 393.053 56.698C393.166 56.585 393.446 56.478 393.893 56.378C394.346 56.278 394.833 56.191 395.353 56.118C395.873 56.045 396.373 55.985 396.853 55.938C397.333 55.898 397.659 55.878 397.833 55.878C398.499 55.878 399.123 55.978 399.703 56.178C399.876 56.845 399.963 57.498 399.963 58.138Z" fill="#333333"/>
<path d="M340.56 33.368C340.18 32.901 339.687 32.445 339.08 31.998C338.474 31.545 337.844 31.145 337.19 30.798C336.537 30.451 335.92 30.178 335.34 29.978C334.76 29.771 334.297 29.668 333.95 29.668C333.89 29.668 333.79 29.748 333.65 29.908C333.504 30.068 333.337 30.258 333.15 30.478C332.957 30.691 332.747 30.895 332.52 31.088C332.287 31.275 332.084 31.411 331.91 31.498C331.91 32.918 331.887 34.331 331.84 35.738C331.8 37.138 331.78 38.548 331.78 39.968C331.78 40.695 331.844 41.368 331.97 41.988C332.104 42.615 332.417 43.218 332.91 43.798C333.144 44.085 333.367 44.541 333.58 45.168C333.8 45.788 334.034 46.418 334.28 47.058C334.527 47.691 334.807 48.248 335.12 48.728C335.44 49.208 335.804 49.448 336.21 49.448C336.73 49.448 337.174 49.115 337.54 48.448C337.9 47.781 338.21 46.925 338.47 45.878C338.73 44.838 338.947 43.681 339.12 42.408C339.294 41.128 339.454 39.895 339.6 38.708C339.747 37.521 339.89 36.441 340.03 35.468C340.177 34.501 340.354 33.801 340.56 33.368ZM330.47 28.628C330.47 28.368 330.35 28.171 330.11 28.038C329.864 27.911 329.637 27.818 329.43 27.758C329.404 28.078 329.31 28.331 329.15 28.518C328.99 28.705 328.88 28.931 328.82 29.198C328.88 29.251 328.91 29.351 328.91 29.498C328.91 29.558 328.99 29.578 329.15 29.558C329.31 29.545 329.49 29.501 329.69 29.428C329.897 29.361 330.08 29.255 330.24 29.108C330.394 28.961 330.47 28.801 330.47 28.628ZM354.9 27.278C354.9 28.205 354.604 28.931 354.01 29.458C353.417 29.978 352.714 30.425 351.9 30.798C351.087 31.178 350.254 31.548 349.4 31.908C348.547 32.268 347.874 32.755 347.38 33.368C346.54 34.381 345.94 35.568 345.58 36.928C345.214 38.288 344.937 39.708 344.75 41.188C344.564 42.668 344.404 44.145 344.27 45.618C344.144 47.098 343.89 48.461 343.51 49.708C343.364 50.141 343.29 50.641 343.29 51.208C343.29 51.768 343.27 52.318 343.23 52.858C343.184 53.391 343.06 53.881 342.86 54.328C342.66 54.781 342.297 55.108 341.77 55.308C341.63 55.368 341.457 55.441 341.25 55.528C341.05 55.615 340.95 55.745 340.95 55.918C340.95 56.125 341.037 56.285 341.21 56.398C341.384 56.511 341.564 56.621 341.75 56.728C341.937 56.828 342.117 56.958 342.29 57.118C342.47 57.278 342.56 57.501 342.56 57.788C342.56 58.368 342.48 58.948 342.32 59.528C342.16 60.108 341.984 60.688 341.79 61.268C341.604 61.848 341.43 62.448 341.27 63.068C341.11 63.688 341.03 64.348 341.03 65.048C341.03 65.481 340.98 65.798 340.88 65.998C340.78 66.205 340.644 66.365 340.47 66.478C340.297 66.598 340.08 66.691 339.82 66.758C339.56 66.831 339.27 66.971 338.95 67.178C338.657 67.351 338.36 67.508 338.06 67.648C337.754 67.795 337.414 67.868 337.04 67.868C336.72 67.868 336.4 67.795 336.08 67.648C335.76 67.508 335.434 67.341 335.1 67.148C334.767 66.961 334.434 66.775 334.1 66.588C333.767 66.401 333.444 66.265 333.13 66.178C332.897 65.278 332.67 64.538 332.45 63.958C332.237 63.378 332.034 62.871 331.84 62.438C331.654 62.005 331.487 61.598 331.34 61.218C331.2 60.845 331.07 60.405 330.95 59.898C330.837 59.391 330.75 58.788 330.69 58.088C330.63 57.395 330.6 56.498 330.6 55.398C330.6 54.905 330.557 54.418 330.47 53.938C330.384 53.465 330.21 53.025 329.95 52.618C329.457 51.865 329.074 51.081 328.8 50.268C328.527 49.455 328.317 48.638 328.17 47.818C328.024 46.991 327.917 46.151 327.85 45.298C327.777 44.438 327.697 43.575 327.61 42.708C327.577 42.508 327.547 42.218 327.52 41.838C327.494 41.465 327.427 41.088 327.32 40.708C327.22 40.335 327.077 40.018 326.89 39.758C326.704 39.491 326.45 39.358 326.13 39.358C325.81 39.358 325.47 39.498 325.11 39.778C324.744 40.051 324.33 40.355 323.87 40.688C323.404 41.021 322.867 41.325 322.26 41.598C321.654 41.871 320.944 42.008 320.13 42.008C320.424 42.361 320.714 42.595 321 42.708C321.294 42.821 321.64 42.908 322.04 42.968C322.447 43.055 322.744 43.171 322.93 43.318C323.124 43.465 323.27 43.638 323.37 43.838C323.47 44.038 323.557 44.271 323.63 44.538C323.704 44.798 323.827 45.071 324 45.358C324.287 45.851 324.43 46.388 324.43 46.968C324.43 47.781 324.257 48.585 323.91 49.378C323.564 50.178 323.174 50.911 322.74 51.578C322.447 52.038 322.25 52.528 322.15 53.048C322.05 53.575 321.98 54.098 321.94 54.618C321.894 55.138 321.84 55.658 321.78 56.178C321.727 56.698 321.584 57.205 321.35 57.698C321.264 57.905 321.134 58.188 320.96 58.548C320.787 58.908 320.7 59.205 320.7 59.438C320.7 59.525 320.737 59.641 320.81 59.788C320.877 59.935 320.964 60.101 321.07 60.288C321.17 60.475 321.257 60.678 321.33 60.898C321.404 61.111 321.44 61.305 321.44 61.478C321.44 61.771 321.367 62.098 321.22 62.458C321.074 62.818 320.907 63.195 320.72 63.588C320.534 63.981 320.344 64.365 320.15 64.738C319.964 65.118 319.827 65.468 319.74 65.788C319.567 66.335 319.327 66.761 319.02 67.068C318.72 67.368 318.36 67.591 317.94 67.738C317.52 67.885 317.07 67.971 316.59 67.998C316.11 68.031 315.64 68.048 315.18 68.048C314.34 68.048 313.687 68.011 313.22 67.938C312.76 67.865 312.407 67.705 312.16 67.458C311.914 67.211 311.724 66.855 311.59 66.388C311.464 65.928 311.314 65.321 311.14 64.568C310.967 63.875 310.784 63.178 310.59 62.478C310.404 61.785 310.31 61.075 310.31 60.348C310.31 59.568 310.484 58.831 310.83 58.138C310.597 57.758 310.394 57.321 310.22 56.828C310.047 56.335 309.83 55.945 309.57 55.658C309.284 55.338 308.98 55.028 308.66 54.728C308.34 54.421 308.037 54.108 307.75 53.788C307.777 53.468 307.79 53.171 307.79 52.898C307.79 52.625 307.79 52.328 307.79 52.008C307.79 49.661 307.544 47.248 307.05 44.768C306.557 42.295 305.964 39.928 305.27 37.668C304.95 36.741 304.604 35.828 304.23 34.928C303.85 34.028 303.574 33.088 303.4 32.108C303.08 32.108 302.777 32.098 302.49 32.078C302.197 32.065 301.894 32.058 301.58 32.058C301.314 32.058 301.094 32.131 300.92 32.278C300.747 32.425 300.567 32.585 300.38 32.758C300.194 32.931 299.99 33.091 299.77 33.238C299.557 33.378 299.304 33.448 299.01 33.448C298.577 33.448 298.15 33.305 297.73 33.018C297.31 32.725 296.934 32.368 296.6 31.948C296.267 31.528 296 31.081 295.8 30.608C295.594 30.128 295.49 29.685 295.49 29.278C295.49 28.731 295.644 28.181 295.95 27.628C296.25 27.075 296.64 26.575 297.12 26.128C297.6 25.681 298.13 25.318 298.71 25.038C299.29 24.765 299.84 24.628 300.36 24.628C301.027 24.628 301.664 24.758 302.27 25.018C302.877 25.278 303.514 25.408 304.18 25.408C304.707 25.408 305.23 25.375 305.75 25.308C306.27 25.235 306.807 25.198 307.36 25.198C308.14 25.198 308.92 25.225 309.7 25.278C310.487 25.338 311.27 25.368 312.05 25.368C312.457 25.368 312.847 25.461 313.22 25.648C313.6 25.841 313.964 26.061 314.31 26.308C314.657 26.548 315.004 26.808 315.35 27.088C315.697 27.361 316.044 27.585 316.39 27.758C316.364 28.398 316.214 28.885 315.94 29.218C315.667 29.551 315.32 29.825 314.9 30.038C314.474 30.258 314.024 30.468 313.55 30.668C313.07 30.875 312.634 31.158 312.24 31.518C311.854 31.878 311.52 32.371 311.24 32.998C310.967 33.618 310.83 34.451 310.83 35.498C310.83 36.771 311.134 37.901 311.74 38.888C311.887 39.148 311.96 39.481 311.96 39.888C311.96 40.201 311.93 40.525 311.87 40.858C311.817 41.191 311.79 41.505 311.79 41.798C311.79 42.145 311.877 42.418 312.05 42.618C312.484 43.145 312.75 43.818 312.85 44.638C312.95 45.465 313.037 46.315 313.11 47.188C313.184 48.055 313.3 48.871 313.46 49.638C313.62 50.405 313.977 50.961 314.53 51.308H314.83C315.61 51.308 316.184 51.021 316.55 50.448C316.91 49.868 317.164 49.178 317.31 48.378C317.45 47.585 317.53 46.768 317.55 45.928C317.564 45.088 317.597 44.405 317.65 43.878C318.117 43.478 318.48 42.878 318.74 42.078C319 41.285 319.204 40.438 319.35 39.538C319.497 38.638 319.59 37.748 319.63 36.868C319.677 35.981 319.7 35.248 319.7 34.668C319.7 33.768 319.59 33.038 319.37 32.478C319.157 31.911 318.91 31.425 318.63 31.018C318.357 30.611 318.11 30.228 317.89 29.868C317.677 29.508 317.57 29.065 317.57 28.538C317.57 27.931 317.91 27.405 318.59 26.958C319.27 26.505 320.087 26.141 321.04 25.868C322 25.595 322.974 25.391 323.96 25.258C324.94 25.131 325.737 25.068 326.35 25.068C326.784 25.068 327.08 25.075 327.24 25.088C327.4 25.101 327.507 25.121 327.56 25.148C327.56 24.921 327.837 24.808 328.39 24.808C328.824 24.808 329.36 24.865 330 24.978C330.634 25.091 331.27 25.215 331.91 25.348C332.544 25.475 333.137 25.598 333.69 25.718C334.244 25.831 334.65 25.888 334.91 25.888C335.75 25.888 336.61 25.771 337.49 25.538C338.377 25.311 339.197 25.025 339.95 24.678C341.11 24.151 342.277 23.795 343.45 23.608C344.624 23.421 345.83 23.328 347.07 23.328C347.737 23.328 348.52 23.401 349.42 23.548C350.32 23.688 351.184 23.911 352.01 24.218C352.837 24.525 353.53 24.895 354.09 25.328C354.657 25.761 354.94 26.251 354.94 26.798C354.94 26.918 354.934 27.021 354.92 27.108C354.907 27.195 354.9 27.251 354.9 27.278Z" fill="#333333"/>
<path d="M287.022 48.528C287.022 48.068 286.849 47.788 286.502 47.688C286.155 47.581 285.762 47.515 285.322 47.488C284.889 47.461 284.462 47.418 284.042 47.358C283.622 47.298 283.339 47.081 283.192 46.708V46.268C283.192 45.635 283.115 44.891 282.962 44.038C282.802 43.178 282.605 42.308 282.372 41.428C282.139 40.541 281.892 39.671 281.632 38.818C281.372 37.965 281.125 37.205 280.892 36.538C280.659 35.871 280.472 35.335 280.332 34.928C280.185 34.521 280.112 34.318 280.112 34.318C279.879 34.378 279.689 34.408 279.542 34.408C279.055 34.408 278.629 34.308 278.262 34.108C277.902 33.901 277.499 33.681 277.052 33.448C276.599 33.221 276.045 33.005 275.392 32.798C274.745 32.598 273.885 32.498 272.812 32.498C271.625 32.498 270.452 32.418 269.292 32.258C268.132 32.098 266.959 32.018 265.772 32.018C264.145 32.018 262.625 32.388 261.212 33.128C259.792 33.868 258.545 34.838 257.472 36.038C256.399 37.238 255.559 38.591 254.952 40.098C254.339 41.605 254.032 43.128 254.032 44.668C254.032 45.301 254.049 46.045 254.082 46.898C254.109 47.758 254.182 48.615 254.302 49.468C254.415 50.321 254.602 51.118 254.862 51.858C255.122 52.598 255.485 53.155 255.952 53.528V54.748C256.065 54.861 256.215 54.925 256.402 54.938C256.595 54.958 256.785 54.968 256.972 54.968C257.159 54.968 257.325 54.988 257.472 55.028C257.619 55.075 257.735 55.198 257.822 55.398C258.195 56.471 258.685 57.291 259.292 57.858C259.905 58.418 260.559 58.895 261.252 59.288C261.945 59.681 262.639 60.071 263.332 60.458C264.032 60.851 264.672 61.425 265.252 62.178C265.479 62.151 265.725 62.128 265.992 62.108C266.252 62.095 266.495 62.088 266.722 62.088C267.649 62.088 268.555 62.155 269.442 62.288C270.329 62.415 271.219 62.478 272.112 62.478C273.072 62.478 273.935 62.231 274.702 61.738C275.469 61.251 276.129 60.631 276.682 59.878C277.029 59.385 277.345 58.965 277.632 58.618C277.925 58.265 278.222 57.938 278.522 57.638C278.829 57.331 279.162 57.041 279.522 56.768C279.889 56.495 280.315 56.181 280.802 55.828C280.975 55.715 281.185 55.571 281.432 55.398C281.679 55.225 281.925 55.028 282.172 54.808C282.419 54.595 282.629 54.378 282.802 54.158C282.975 53.945 283.062 53.735 283.062 53.528C283.062 53.268 283.029 53.008 282.962 52.748C282.889 52.488 282.852 52.228 282.852 51.968C282.852 51.675 282.895 51.325 282.982 50.918C283.069 50.518 283.205 50.128 283.392 49.748C283.579 49.375 283.812 49.065 284.092 48.818C284.365 48.571 284.705 48.448 285.112 48.448C285.425 48.448 285.742 48.518 286.062 48.658C286.382 48.805 286.672 48.981 286.932 49.188C286.992 48.895 287.022 48.675 287.022 48.528ZM291.362 48.188C291.362 48.588 291.299 48.971 291.172 49.338C291.039 49.698 290.892 50.008 290.732 50.268C290.579 50.528 290.435 50.745 290.302 50.918C290.169 51.091 290.102 51.195 290.102 51.228C290.102 51.515 290.199 51.818 290.392 52.138C290.579 52.458 290.672 52.805 290.672 53.178C290.672 53.351 290.605 53.468 290.472 53.528C290.345 53.588 290.209 53.618 290.062 53.618C289.802 53.618 289.585 53.588 289.412 53.528C289.439 54.081 289.489 54.618 289.562 55.138C289.635 55.658 289.672 56.195 289.672 56.748C289.672 57.588 289.592 58.131 289.432 58.378C289.272 58.625 289.105 58.775 288.932 58.828C288.759 58.888 288.592 58.955 288.432 59.028C288.272 59.101 288.192 59.368 288.192 59.828C288.192 60.088 288.012 60.421 287.652 60.828C287.292 61.235 286.855 61.641 286.342 62.048C285.835 62.455 285.315 62.801 284.782 63.088C284.249 63.381 283.822 63.528 283.502 63.528C283.415 63.528 283.312 63.498 283.192 63.438C283.192 63.671 283.209 63.918 283.242 64.178C283.269 64.438 283.282 64.685 283.282 64.918C283.282 65.291 283.165 65.545 282.932 65.678C282.705 65.805 282.445 65.928 282.152 66.048C281.719 66.248 281.269 66.545 280.802 66.938C280.342 67.325 279.865 67.721 279.372 68.128C278.879 68.535 278.379 68.891 277.872 69.198C277.365 69.498 276.835 69.648 276.282 69.648C275.822 69.648 275.395 69.535 275.002 69.308C274.615 69.075 274.159 68.958 273.632 68.958C273.172 68.958 272.782 69.021 272.462 69.148C272.142 69.281 271.845 69.428 271.572 69.588C271.299 69.748 271.015 69.891 270.722 70.018C270.435 70.151 270.102 70.218 269.722 70.218C268.969 70.218 268.215 70.021 267.462 69.628C266.709 69.241 265.985 68.931 265.292 68.698C264.885 68.551 264.452 68.441 263.992 68.368C263.525 68.295 263.075 68.215 262.642 68.128C262.209 68.041 261.795 67.905 261.402 67.718C261.009 67.531 260.669 67.265 260.382 66.918C259.775 66.165 259.065 65.541 258.252 65.048C257.439 64.555 256.612 64.091 255.772 63.658C254.932 63.218 254.122 62.761 253.342 62.288C252.562 61.808 251.882 61.178 251.302 60.398C250.862 59.785 250.369 59.125 249.822 58.418C249.269 57.711 248.755 56.965 248.282 56.178C247.802 55.398 247.402 54.601 247.082 53.788C246.762 52.975 246.602 52.178 246.602 51.398C246.602 50.818 246.662 50.255 246.782 49.708C246.895 49.155 247.019 48.595 247.152 48.028C247.279 47.468 247.402 46.911 247.522 46.358C247.635 45.805 247.692 45.241 247.692 44.668V44.188C247.692 44.068 247.649 43.938 247.562 43.798C247.475 43.651 247.382 43.511 247.282 43.378C247.175 43.251 247.072 43.138 246.972 43.038C246.872 42.931 246.809 42.878 246.782 42.878C246.722 42.878 246.692 42.895 246.692 42.928C246.719 42.668 246.799 42.268 246.932 41.728C247.059 41.195 247.212 40.645 247.392 40.078C247.565 39.511 247.739 38.991 247.912 38.518C248.085 38.038 248.245 37.725 248.392 37.578C248.565 37.438 248.729 37.288 248.882 37.128C249.042 36.968 249.122 36.758 249.122 36.498C249.122 36.231 249.109 35.978 249.082 35.738C249.055 35.491 249.042 35.235 249.042 34.968C249.042 34.621 249.085 34.411 249.172 34.338C249.259 34.271 249.375 34.238 249.522 34.238C249.662 34.238 249.805 34.215 249.952 34.168C250.099 34.128 250.242 33.975 250.382 33.708C250.649 33.188 250.902 32.705 251.142 32.258C251.389 31.811 251.659 31.398 251.952 31.018C252.239 30.645 252.572 30.298 252.952 29.978C253.325 29.658 253.789 29.351 254.342 29.058C254.802 28.798 255.259 28.481 255.712 28.108C256.159 27.728 256.615 27.351 257.082 26.978C257.542 26.598 258.012 26.278 258.492 26.018C258.972 25.758 259.485 25.628 260.032 25.628C260.819 25.628 261.579 25.491 262.312 25.218C263.052 24.945 263.799 24.735 264.552 24.588C265.739 24.415 266.919 24.248 268.092 24.088C269.265 23.928 270.462 23.848 271.682 23.848C272.349 23.848 273.159 23.958 274.112 24.178C275.072 24.391 276.052 24.671 277.052 25.018C278.045 25.365 278.985 25.758 279.872 26.198C280.759 26.631 281.462 27.065 281.982 27.498V27.628C281.982 28.035 281.909 28.448 281.762 28.868C281.615 29.288 281.542 29.701 281.542 30.108C281.542 30.161 281.542 30.218 281.542 30.278C281.542 30.338 281.572 30.368 281.632 30.368C282.125 30.368 282.595 30.301 283.042 30.168C283.495 30.041 283.965 29.978 284.452 29.978C284.512 30.471 284.732 30.805 285.112 30.978C285.485 31.151 285.862 31.308 286.242 31.448C286.589 31.628 286.912 31.941 287.212 32.388C287.519 32.835 287.802 33.341 288.062 33.908C288.322 34.475 288.575 35.031 288.822 35.578C289.069 36.131 289.309 36.581 289.542 36.928C289.775 37.275 289.985 37.688 290.172 38.168C290.359 38.648 290.519 39.148 290.652 39.668C290.779 40.188 290.872 40.701 290.932 41.208C290.992 41.715 291.022 42.185 291.022 42.618C291.022 43.198 290.912 43.685 290.692 44.078C290.472 44.471 290.232 44.818 289.972 45.118C289.712 45.425 289.475 45.715 289.262 45.988C289.042 46.261 288.932 46.575 288.932 46.928C288.932 47.128 288.975 47.315 289.062 47.488C289.149 47.661 289.265 47.821 289.412 47.968C289.472 47.941 289.595 47.911 289.782 47.878C289.969 47.851 290.062 47.765 290.062 47.618V47.578C290.062 47.345 289.969 47.128 289.782 46.928C289.595 46.721 289.502 46.475 289.502 46.188C289.502 46.128 289.529 46.031 289.582 45.898C289.642 45.771 289.715 45.708 289.802 45.708C289.975 45.708 290.149 45.815 290.322 46.028C290.495 46.248 290.662 46.481 290.822 46.728C290.982 46.975 291.105 47.185 291.192 47.358C291.279 47.531 291.322 47.588 291.322 47.528L291.282 47.488C291.309 47.635 291.329 47.758 291.342 47.858C291.355 47.958 291.362 48.068 291.362 48.188Z" fill="#333333"/>
<path d="M287.012 37.68C287.012 36.06 286.872 34.453 286.592 32.86C286.319 31.267 286.052 29.673 285.792 28.08C285.672 27.5 285.492 26.947 285.252 26.42C285.006 25.9 284.792 25.367 284.612 24.82C284.266 23.773 283.936 22.73 283.622 21.69C283.302 20.643 282.982 19.6 282.662 18.56C282.462 17.92 282.056 17.363 281.442 16.89C280.836 16.41 280.126 16.003 279.312 15.67C278.506 15.337 277.629 15.06 276.682 14.84C275.742 14.627 274.839 14.453 273.972 14.32C273.099 14.193 272.296 14.107 271.562 14.06C270.822 14.02 270.262 14 269.882 14L270.452 13.95L269.972 14C269.332 14 268.702 13.97 268.082 13.91C267.462 13.85 266.832 13.82 266.192 13.82C265.672 13.82 265.159 13.857 264.652 13.93C264.146 14.003 263.689 14.2 263.282 14.52C262.322 15.273 261.422 15.973 260.582 16.62C259.742 17.273 259.049 18.167 258.502 19.3C258.329 19.673 258.139 19.94 257.932 20.1C257.732 20.26 257.539 20.42 257.352 20.58C257.159 20.74 256.992 20.92 256.852 21.12C256.706 21.327 256.602 21.66 256.542 22.12C256.396 22.96 256.229 23.793 256.042 24.62C255.856 25.447 255.762 26.28 255.762 27.12C255.762 28.02 255.682 28.91 255.522 29.79C255.362 30.677 255.109 31.54 254.762 32.38C254.676 32.613 254.596 32.83 254.522 33.03C254.449 33.23 254.412 33.447 254.412 33.68C254.412 34.113 254.516 34.483 254.722 34.79C254.922 35.097 255.022 35.363 255.022 35.59C255.022 35.71 254.986 35.777 254.912 35.79C254.839 35.803 254.766 35.833 254.692 35.88C254.626 35.92 254.556 36.013 254.482 36.16C254.409 36.307 254.372 36.567 254.372 36.94C254.372 37.78 254.379 38.633 254.392 39.5C254.406 40.373 254.486 41.23 254.632 42.07C254.719 42.563 254.872 43.033 255.092 43.48C255.306 43.927 255.412 44.397 255.412 44.89C255.412 45.21 255.339 45.53 255.192 45.85C255.052 46.17 254.982 46.503 254.982 46.85C254.982 47.257 255.096 47.583 255.322 47.83C255.556 48.077 255.789 48.357 256.022 48.67C256.196 48.903 256.349 49.2 256.482 49.56C256.609 49.927 256.739 50.27 256.872 50.59C256.999 50.903 257.122 51.177 257.242 51.41C257.356 51.643 257.486 51.76 257.632 51.76C257.746 51.76 257.846 51.737 257.932 51.69C258.019 51.65 258.122 51.63 258.242 51.63C258.822 51.63 259.262 51.883 259.562 52.39C259.869 52.897 260.022 53.397 260.022 53.89C260.022 54.297 260.139 54.637 260.372 54.91C260.599 55.183 260.872 55.437 261.192 55.67C261.512 55.903 261.839 56.127 262.172 56.34C262.506 56.56 262.789 56.8 263.022 57.06C263.396 57.493 263.692 57.783 263.912 57.93C264.126 58.077 264.319 58.17 264.492 58.21C264.672 58.257 264.839 58.293 264.992 58.32C265.152 58.347 265.362 58.45 265.622 58.63C265.942 58.857 266.269 59.11 266.602 59.39C266.936 59.663 267.262 59.917 267.582 60.15C268.482 60.783 269.489 61.167 270.602 61.3C271.716 61.427 272.809 61.49 273.882 61.49C274.316 61.49 274.722 61.39 275.102 61.19C275.476 60.99 275.852 60.767 276.232 60.52C276.606 60.273 276.989 60.047 277.382 59.84C277.776 59.64 278.202 59.54 278.662 59.54C279.042 59.54 279.432 59.627 279.832 59.8C280.499 58.787 281.139 57.977 281.752 57.37C282.359 56.757 282.909 56.16 283.402 55.58C283.896 55 284.316 54.333 284.662 53.58C285.009 52.827 285.256 51.8 285.402 50.5C285.456 49.947 285.606 49.433 285.852 48.96C286.099 48.48 286.252 47.98 286.312 47.46C286.459 46.3 286.539 45.14 286.552 43.98C286.566 42.82 286.659 41.66 286.832 40.5C286.892 40.04 286.936 39.577 286.962 39.11C286.996 38.65 287.012 38.173 287.012 37.68ZM294.092 37.98C294.092 38.593 294.032 39.18 293.912 39.74C293.799 40.307 293.669 40.873 293.522 41.44C293.382 42.007 293.252 42.577 293.132 43.15C293.019 43.73 292.962 44.31 292.962 44.89C292.962 45.123 292.982 45.35 293.022 45.57C293.069 45.783 293.092 46.007 293.092 46.24C293.092 46.82 292.999 47.37 292.812 47.89C292.619 48.41 292.392 48.917 292.132 49.41C291.906 49.843 291.769 50.293 291.722 50.76C291.676 51.227 291.646 51.69 291.632 52.15C291.619 52.617 291.569 53.08 291.482 53.54C291.396 54.007 291.222 54.44 290.962 54.84C290.902 55.133 290.822 55.563 290.722 56.13C290.622 56.69 290.499 57.087 290.352 57.32C290.326 57.38 290.239 57.423 290.092 57.45C289.946 57.483 289.786 57.513 289.612 57.54C289.439 57.567 289.252 57.623 289.052 57.71C288.846 57.797 288.672 57.927 288.532 58.1C288.386 58.247 288.269 58.45 288.182 58.71C288.096 58.97 287.992 59.23 287.872 59.49C287.759 59.757 287.622 59.983 287.462 60.17C287.302 60.357 287.092 60.45 286.832 60.45C286.572 60.45 286.342 60.4 286.142 60.3C285.936 60.2 285.732 60.097 285.532 59.99C285.326 59.89 285.122 59.813 284.922 59.76C284.716 59.7 284.469 59.713 284.182 59.8C284.269 59.86 284.299 59.997 284.272 60.21C284.239 60.43 284.246 60.657 284.292 60.89C284.332 61.117 284.456 61.333 284.662 61.54C284.862 61.74 285.222 61.84 285.742 61.84C286.009 61.84 286.266 61.827 286.512 61.8C286.752 61.767 287.006 61.723 287.272 61.67C287.039 62.303 286.762 62.803 286.442 63.17C286.122 63.53 285.769 63.847 285.382 64.12C284.989 64.4 284.582 64.677 284.162 64.95C283.742 65.223 283.329 65.577 282.922 66.01C282.429 66.503 281.959 66.81 281.512 66.93C281.059 67.043 280.529 67.187 279.922 67.36C279.229 67.56 278.736 67.807 278.442 68.1C278.156 68.387 277.839 68.66 277.492 68.92C277.146 69.187 276.676 69.413 276.082 69.6C275.482 69.787 274.546 69.88 273.272 69.88C272.112 69.88 270.962 69.837 269.822 69.75C268.676 69.663 267.539 69.547 266.412 69.4C265.886 69.347 265.456 69.253 265.122 69.12C264.789 68.987 264.479 68.843 264.192 68.69C263.906 68.53 263.616 68.363 263.322 68.19C263.036 68.017 262.672 67.84 262.232 67.66C262.006 67.573 261.732 67.467 261.412 67.34C261.092 67.207 260.759 67.07 260.412 66.93C260.066 66.783 259.746 66.63 259.452 66.47C259.166 66.31 258.936 66.157 258.762 66.01C258.556 65.837 258.419 65.643 258.352 65.43C258.279 65.21 258.212 64.977 258.152 64.73C258.092 64.483 258.026 64.253 257.952 64.04C257.886 63.82 257.749 63.637 257.542 63.49C257.109 63.437 256.689 63.357 256.282 63.25C255.876 63.15 255.469 63.027 255.062 62.88C254.949 62.567 254.842 62.257 254.742 61.95C254.642 61.643 254.532 61.333 254.412 61.02C254.039 60.613 253.679 60.27 253.332 59.99C252.979 59.717 252.672 59.437 252.412 59.15C252.152 58.857 251.929 58.517 251.742 58.13C251.556 57.737 251.432 57.22 251.372 56.58C251.286 55.827 251.112 55.097 250.852 54.39C250.592 53.677 250.322 52.973 250.042 52.28C249.769 51.587 249.526 50.877 249.312 50.15C249.092 49.423 248.982 48.687 248.982 47.94C248.982 47.153 249.142 46.353 249.462 45.54C248.622 44.353 248.099 43.06 247.892 41.66C247.692 40.253 247.592 38.84 247.592 37.42C247.592 36.953 247.599 36.497 247.612 36.05C247.626 35.603 247.632 35.16 247.632 34.72C247.632 34.233 247.526 33.85 247.312 33.57C247.092 33.297 246.982 32.957 246.982 32.55C246.982 31.917 247.076 31.293 247.262 30.68C247.456 30.073 247.579 29.45 247.632 28.81C247.259 28.757 247.012 28.613 246.892 28.38L246.982 28.21C247.189 27.857 247.356 27.537 247.482 27.25C247.616 26.957 247.709 26.68 247.762 26.42C247.822 26.16 247.882 25.887 247.942 25.6C247.996 25.307 248.066 24.973 248.152 24.6C248.386 23.413 248.686 22.253 249.052 21.12C249.412 19.993 249.766 18.85 250.112 17.69C250.486 16.357 250.949 15.183 251.502 14.17C252.056 13.157 252.909 12.213 254.062 11.34C254.556 10.94 255.006 10.507 255.412 10.04C255.819 9.57999 256.109 9.03 256.282 8.39C256.429 8.277 256.589 8.203 256.762 8.17C256.936 8.143 257.109 8.13 257.282 8.13H257.632C257.832 8.13 258.026 8.107 258.212 8.06C258.406 8.02 258.589 7.927 258.762 7.78C259.196 7.373 259.579 7.083 259.912 6.91C260.246 6.737 260.702 6.64999 261.282 6.64999C261.689 6.64999 262.079 6.68699 262.452 6.75999C262.832 6.83299 263.226 6.913 263.632 7C263.772 6.853 263.982 6.657 264.262 6.41C264.536 6.163 264.772 5.997 264.972 5.91V6.03999C264.972 6.15999 264.996 6.27 265.042 6.37C265.082 6.47 265.176 6.52 265.322 6.52C265.696 6.52 266.059 6.43299 266.412 6.25999C266.759 6.08699 267.119 5.97 267.492 5.91C268.332 5.763 269.172 5.54001 270.012 5.24001C270.852 4.93301 271.709 4.78 272.582 4.78C273.509 4.78 274.499 4.84001 275.552 4.96001C276.612 5.07301 277.649 5.29 278.662 5.61C279.676 5.93 280.619 6.36999 281.492 6.92999C282.359 7.49699 283.052 8.23 283.572 9.13C283.806 9.537 284.039 9.847 284.272 10.06C284.499 10.28 284.729 10.47 284.962 10.63C285.196 10.79 285.429 10.95 285.662 11.11C285.896 11.263 286.142 11.487 286.402 11.78C286.949 12.413 287.389 13.1 287.722 13.84C288.056 14.58 288.526 15.24 289.132 15.82C289.886 16.513 290.446 17.353 290.812 18.34C291.172 19.327 291.352 20.327 291.352 21.34C291.352 21.66 291.309 21.98 291.222 22.3C291.136 22.613 291.092 22.943 291.092 23.29C291.092 23.583 291.159 23.89 291.292 24.21C291.419 24.53 291.569 24.863 291.742 25.21C291.916 25.557 292.076 25.917 292.222 26.29C292.369 26.67 292.469 27.033 292.522 27.38C292.609 28.16 292.742 28.92 292.922 29.66C293.096 30.4 293.269 31.16 293.442 31.94C293.669 32.927 293.842 33.927 293.962 34.94C294.076 35.953 294.119 36.967 294.092 37.98Z" fill="#333333"/>
<path d="M240.263 64.788C240.263 65.221 240.053 65.581 239.633 65.868C239.213 66.161 238.676 66.395 238.023 66.568C237.37 66.741 236.653 66.878 235.873 66.978C235.093 67.078 234.32 67.151 233.553 67.198C232.786 67.238 232.09 67.258 231.463 67.258C230.843 67.258 230.373 67.258 230.053 67.258C229.3 67.258 228.62 67.345 228.013 67.518C227.4 67.691 226.826 67.881 226.293 68.088C225.76 68.288 225.26 68.475 224.793 68.648C224.326 68.821 223.863 68.908 223.403 68.908C222.996 68.908 222.656 68.778 222.383 68.518C222.11 68.258 221.77 68.128 221.363 68.128C220.896 68.128 220.46 68.028 220.053 67.828C219.646 67.621 219.286 67.351 218.973 67.018C218.653 66.685 218.4 66.301 218.213 65.868C218.02 65.435 217.923 65.001 217.923 64.568C217.923 64.015 218.063 63.551 218.343 63.178C218.616 62.798 218.97 62.485 219.403 62.238C219.836 61.991 220.306 61.818 220.813 61.718C221.32 61.618 221.806 61.568 222.273 61.568C222.68 61.568 223.07 61.618 223.443 61.718C223.823 61.818 224.173 62.001 224.493 62.268C224.52 61.828 224.633 61.458 224.833 61.158C225.04 60.851 225.26 60.561 225.493 60.288C225.72 60.015 225.93 59.718 226.123 59.398C226.31 59.078 226.403 58.685 226.403 58.218C226.403 57.465 226.36 56.705 226.273 55.938C226.186 55.171 226.143 54.411 226.143 53.658C226.143 53.165 226.193 52.671 226.293 52.178C226.393 51.691 226.443 51.185 226.443 50.658C226.443 50.078 226.406 49.485 226.333 48.878C226.26 48.271 226.223 47.665 226.223 47.058C226.223 46.478 226.31 45.998 226.483 45.618C226.663 45.245 226.753 44.898 226.753 44.578C226.753 43.971 226.65 43.355 226.443 42.728C226.243 42.108 225.97 41.545 225.623 41.038C225.27 40.531 224.863 40.095 224.403 39.728C223.936 39.368 223.456 39.145 222.963 39.058C221.516 38.798 220.07 38.668 218.623 38.668C218.216 38.668 217.84 38.731 217.493 38.858C217.146 38.991 216.87 39.058 216.663 39.058C216.49 39.058 216.29 38.991 216.063 38.858C215.83 38.731 215.67 38.668 215.583 38.668C215.203 38.668 214.82 38.731 214.433 38.858C214.04 38.991 213.64 39.131 213.233 39.278C212.826 39.418 212.42 39.555 212.013 39.688C211.613 39.821 211.223 39.888 210.843 39.888C210.203 39.888 209.543 39.895 208.863 39.908C208.183 39.921 207.516 39.978 206.863 40.078C206.216 40.178 205.596 40.368 205.003 40.648C204.403 40.921 203.873 41.318 203.413 41.838V42.148C203.413 42.721 203.426 43.278 203.453 43.818C203.486 44.351 203.503 44.908 203.503 45.488C203.503 46.155 203.46 46.778 203.373 47.358C203.286 47.938 203.083 48.531 202.763 49.138C202.676 49.371 202.633 49.575 202.633 49.748C202.633 50.215 202.72 50.658 202.893 51.078C203.066 51.498 203.153 51.938 203.153 52.398C203.153 52.605 203.08 52.821 202.933 53.048C202.786 53.281 202.713 53.528 202.713 53.788C202.713 54.195 202.78 54.588 202.913 54.968C203.046 55.341 203.2 55.725 203.373 56.118C203.546 56.505 203.703 56.888 203.843 57.268C203.99 57.641 204.093 58.031 204.153 58.438C204.24 59.278 204.536 59.908 205.043 60.328C205.55 60.748 206.136 61.081 206.803 61.328C207.47 61.575 208.173 61.801 208.913 62.008C209.646 62.208 210.29 62.495 210.843 62.868C210.783 63.161 210.753 63.381 210.753 63.528C210.753 64.015 210.84 64.478 211.013 64.918C211.186 65.351 211.273 65.815 211.273 66.308C211.273 66.801 211.093 67.191 210.733 67.478C210.373 67.771 209.933 67.981 209.413 68.108C208.886 68.241 208.356 68.321 207.823 68.348C207.29 68.375 206.846 68.388 206.493 68.388C206.44 68.388 206.326 68.368 206.153 68.328C205.98 68.281 205.796 68.221 205.603 68.148C205.416 68.081 205.236 68.018 205.063 67.958C204.89 67.898 204.76 67.855 204.673 67.828C203.053 68.148 201.403 68.351 199.723 68.438C198.036 68.525 196.37 68.568 194.723 68.568C194.29 68.568 193.723 68.531 193.023 68.458C192.33 68.385 191.643 68.238 190.963 68.018C190.283 67.805 189.703 67.501 189.223 67.108C188.743 66.715 188.503 66.201 188.503 65.568C188.503 65.275 188.546 64.935 188.633 64.548C188.72 64.155 188.85 63.771 189.023 63.398C189.203 63.018 189.406 62.668 189.633 62.348C189.866 62.028 190.13 61.798 190.423 61.658C191.056 61.365 191.773 61.138 192.573 60.978C193.366 60.818 194.12 60.558 194.833 60.198C195.54 59.838 196.14 59.281 196.633 58.528C197.126 57.775 197.373 56.645 197.373 55.138C197.373 54.385 197.343 53.645 197.283 52.918C197.223 52.198 197.193 51.461 197.193 50.708C197.193 50.301 197.21 49.888 197.243 49.468C197.27 49.048 197.283 48.635 197.283 48.228C197.283 46.981 197.22 45.741 197.093 44.508C196.96 43.281 196.893 42.045 196.893 40.798C196.893 40.278 196.936 39.748 197.023 39.208C197.11 38.675 197.153 38.161 197.153 37.668C197.153 36.941 197.053 36.231 196.853 35.538C196.646 34.845 196.543 34.148 196.543 33.448C196.543 33.308 196.56 33.208 196.593 33.148C196.706 33.001 196.806 32.705 196.893 32.258C196.98 31.811 197.06 31.325 197.133 30.798C197.206 30.278 197.263 29.788 197.303 29.328C197.35 28.861 197.373 28.511 197.373 28.278C197.373 27.585 197.306 26.898 197.173 26.218C197.046 25.538 196.983 24.848 196.983 24.148C196.983 23.748 197.02 23.338 197.093 22.918C197.16 22.498 197.193 22.085 197.193 21.678C197.193 21.505 197.166 21.395 197.113 21.348C197.053 21.308 196.98 21.271 196.893 21.238C196.806 21.211 196.733 21.161 196.673 21.088C196.62 21.015 196.593 20.848 196.593 20.588C196.593 20.355 196.723 20.058 196.983 19.698C197.243 19.338 197.373 18.998 197.373 18.678C197.373 18.418 197.286 18.048 197.113 17.568C196.94 17.088 196.713 16.601 196.433 16.108C196.16 15.621 195.873 15.175 195.573 14.768C195.266 14.361 194.983 14.085 194.723 13.938C194.17 13.678 193.54 13.485 192.833 13.358C192.12 13.225 191.446 13.048 190.813 12.828C190.173 12.615 189.636 12.291 189.203 11.858C188.77 11.418 188.553 10.765 188.553 9.89799C188.553 9.118 188.77 8.475 189.203 7.968C189.636 7.461 190.18 7.048 190.833 6.728C191.486 6.408 192.19 6.181 192.943 6.048C193.696 5.921 194.376 5.858 194.983 5.858C195.416 5.858 195.9 5.878 196.433 5.918C196.973 5.965 197.51 6.045 198.043 6.158C198.583 6.278 199.106 6.418 199.613 6.578C200.12 6.731 200.56 6.911 200.933 7.118C201.633 6.885 202.343 6.695 203.063 6.548C203.79 6.408 204.53 6.338 205.283 6.338C205.716 6.338 206.186 6.381 206.693 6.468C207.2 6.555 207.663 6.72801 208.083 6.98801C208.503 7.24801 208.85 7.601 209.123 8.048C209.403 8.501 209.543 9.088 209.543 9.808C209.543 10.128 209.5 10.381 209.413 10.568C209.326 10.761 209.18 10.858 208.973 10.858C208.193 10.858 207.403 11.038 206.603 11.398C205.81 11.758 205.08 12.245 204.413 12.858C203.746 13.465 203.203 14.151 202.783 14.918C202.363 15.685 202.153 16.458 202.153 17.238C202.153 17.618 202.196 17.981 202.283 18.328C202.543 19.228 202.76 20.111 202.933 20.978C203.106 21.851 203.193 22.751 203.193 23.678C203.193 24.458 203.136 25.231 203.023 25.998C202.903 26.765 202.843 27.541 202.843 28.328C202.843 29.341 203.083 30.158 203.563 30.778C204.043 31.405 204.66 31.891 205.413 32.238C206.166 32.585 206.983 32.815 207.863 32.928C208.75 33.048 209.613 33.108 210.453 33.108C211.293 33.108 212.133 33.071 212.973 32.998C213.813 32.925 214.666 32.888 215.533 32.888C216.406 32.888 217.263 32.995 218.103 33.208C218.943 33.428 219.796 33.538 220.663 33.538C220.983 33.538 221.303 33.518 221.623 33.478C221.943 33.431 222.216 33.335 222.443 33.188C222.53 33.135 222.67 33.035 222.863 32.888C223.05 32.741 223.25 32.605 223.463 32.478C223.683 32.345 223.886 32.221 224.073 32.108C224.266 31.988 224.406 31.928 224.493 31.928C224.98 31.841 225.356 31.551 225.623 31.058C225.883 30.565 226.076 30.008 226.203 29.388C226.336 28.768 226.416 28.131 226.443 27.478C226.47 26.825 226.483 26.295 226.483 25.888C226.483 25.428 226.413 24.981 226.273 24.548C226.126 24.108 225.96 23.678 225.773 23.258C225.586 22.838 225.42 22.411 225.273 21.978C225.126 21.545 225.053 21.081 225.053 20.588C225.053 20.008 225.103 19.421 225.203 18.828C225.31 18.235 225.363 17.648 225.363 17.068C225.363 15.855 225.136 14.941 224.683 14.328C224.236 13.721 223.68 13.275 223.013 12.988C222.346 12.695 221.613 12.505 220.813 12.418C220.02 12.331 219.29 12.195 218.623 12.008C217.956 11.821 217.4 11.525 216.953 11.118C216.5 10.711 216.273 10.045 216.273 9.118C216.273 8.511 216.403 8.03099 216.663 7.67799C216.923 7.33099 217.263 7.06501 217.683 6.87801C218.11 6.69101 218.566 6.568 219.053 6.508C219.546 6.448 220.026 6.418 220.493 6.418C221.42 6.418 222.323 6.47801 223.203 6.59801C224.09 6.71101 224.996 6.76801 225.923 6.76801C226.79 6.76801 227.746 6.681 228.793 6.508C229.833 6.335 230.89 6.248 231.963 6.248C232.543 6.248 233.223 6.285 234.003 6.358C234.79 6.431 235.543 6.581 236.263 6.808C236.99 7.041 237.6 7.391 238.093 7.858C238.586 8.318 238.833 8.95501 238.833 9.76801C238.833 10.321 238.686 10.765 238.393 11.098C238.106 11.425 237.746 11.711 237.313 11.958C236.873 12.205 236.38 12.415 235.833 12.588C235.28 12.768 234.743 12.951 234.223 13.138C233.703 13.325 233.226 13.541 232.793 13.788C232.353 14.035 232.033 14.361 231.833 14.768C231.633 15.115 231.51 15.505 231.463 15.938C231.423 16.371 231.403 16.791 231.403 17.198C231.403 17.951 231.436 18.691 231.503 19.418C231.576 20.138 231.613 20.875 231.613 21.628C231.613 24.235 231.526 26.821 231.353 29.388C231.18 31.955 231.093 34.525 231.093 37.098C231.093 37.998 231.1 38.891 231.113 39.778C231.126 40.658 231.18 41.548 231.273 42.448C231.326 43.288 231.483 44.105 231.743 44.898C232.003 45.698 232.133 46.518 232.133 47.358C232.133 47.765 232.09 48.085 232.003 48.318C231.916 48.545 231.823 48.745 231.723 48.918C231.623 49.098 231.53 49.258 231.443 49.398C231.356 49.545 231.313 49.705 231.313 49.878C231.313 50.371 231.43 50.848 231.663 51.308C231.89 51.775 232.003 52.255 232.003 52.748C232.003 53.381 231.94 54.018 231.813 54.658C231.68 55.298 231.613 55.935 231.613 56.568C231.613 56.628 231.663 56.855 231.763 57.248C231.87 57.635 231.986 58.061 232.113 58.528C232.246 58.988 232.386 59.421 232.533 59.828C232.673 60.235 232.786 60.481 232.873 60.568C233.22 60.915 233.64 61.175 234.133 61.348C234.626 61.521 235.15 61.675 235.703 61.808C236.25 61.941 236.793 62.078 237.333 62.218C237.866 62.365 238.336 62.581 238.743 62.868C239.03 63.075 239.356 63.345 239.723 63.678C240.083 64.011 240.263 64.381 240.263 64.788Z" fill="#333333"/>
<path d="M156.135 65.178C156.135 65.378 156.099 65.688 156.025 66.108C155.952 66.528 155.835 66.948 155.675 67.368C155.522 67.788 155.342 68.158 155.135 68.478C154.935 68.798 154.705 68.958 154.445 68.958C154.125 68.958 153.805 68.891 153.485 68.758C153.165 68.631 152.845 68.568 152.525 68.568C151.512 68.568 150.512 68.661 149.525 68.848C148.545 69.035 147.549 69.128 146.535 69.128C146.042 69.128 145.579 69.065 145.145 68.938C144.705 68.805 144.275 68.665 143.855 68.518C143.435 68.378 143.009 68.235 142.575 68.088C142.142 67.941 141.692 67.838 141.225 67.778C140.532 67.725 140.005 67.451 139.645 66.958C139.285 66.465 139.105 65.885 139.105 65.218C139.105 64.438 139.315 63.778 139.735 63.238C140.155 62.705 140.625 62.141 141.145 61.548C141.665 60.955 142.135 60.238 142.555 59.398C142.975 58.558 143.185 57.428 143.185 56.008C143.185 53.168 143.062 50.351 142.815 47.558C142.569 44.758 142.445 41.938 142.445 39.098V37.798C142.445 37.191 142.415 36.568 142.355 35.928C142.302 35.288 142.159 34.715 141.925 34.208C141.692 33.701 141.359 33.291 140.925 32.978C140.492 32.658 139.885 32.498 139.105 32.498C138.439 32.905 137.799 33.345 137.185 33.818C136.579 34.298 136.045 34.858 135.585 35.498C135.379 35.785 135.159 36.261 134.925 36.928C134.699 37.595 134.482 38.361 134.275 39.228C134.075 40.101 133.879 41.028 133.685 42.008C133.499 42.995 133.335 43.938 133.195 44.838C133.049 45.738 132.932 46.565 132.845 47.318C132.759 48.071 132.715 48.635 132.715 49.008C132.715 50.108 132.795 51.218 132.955 52.338C133.115 53.451 133.195 54.558 133.195 55.658C133.195 56.238 133.142 56.795 133.035 57.328C132.935 57.868 132.885 58.428 132.885 59.008C132.885 59.235 132.899 59.465 132.925 59.698C132.959 59.931 133.049 60.165 133.195 60.398C133.509 60.571 133.892 60.788 134.345 61.048C134.792 61.308 135.212 61.605 135.605 61.938C135.992 62.271 136.325 62.625 136.605 62.998C136.879 63.378 137.015 63.771 137.015 64.178C137.015 65.018 136.712 65.698 136.105 66.218C135.492 66.738 134.782 66.998 133.975 66.998C133.769 66.998 133.579 66.985 133.405 66.958C133.232 66.931 133.045 66.918 132.845 66.918C132.552 66.918 132.269 66.968 131.995 67.068C131.722 67.168 131.439 67.285 131.145 67.418C130.859 67.545 130.562 67.658 130.255 67.758C129.955 67.865 129.629 67.918 129.275 67.918C128.382 67.918 127.515 67.801 126.675 67.568C125.835 67.335 124.965 67.218 124.065 67.218C123.805 67.218 123.572 67.108 123.365 66.888C123.165 66.675 122.999 66.421 122.865 66.128C122.739 65.841 122.645 65.538 122.585 65.218C122.525 64.898 122.495 64.638 122.495 64.438C122.495 63.918 122.605 63.518 122.825 63.238C123.045 62.965 123.312 62.728 123.625 62.528C123.945 62.321 124.302 62.111 124.695 61.898C125.089 61.678 125.442 61.381 125.755 61.008C126.075 60.628 126.345 60.111 126.565 59.458C126.779 58.811 126.885 57.951 126.885 56.878C126.885 56.445 126.829 56.025 126.715 55.618C126.602 55.211 126.479 54.805 126.345 54.398C126.212 53.991 126.095 53.585 125.995 53.178C125.895 52.771 125.845 52.351 125.845 51.918C125.845 51.165 125.932 50.411 126.105 49.658C126.279 48.905 126.365 48.151 126.365 47.398C126.365 46.851 126.265 46.331 126.065 45.838C125.859 45.345 125.755 44.838 125.755 44.318C125.755 43.938 125.865 43.605 126.085 43.318C126.305 43.025 126.415 42.691 126.415 42.318C126.415 42.205 126.385 41.988 126.325 41.668C126.265 41.348 126.199 40.978 126.125 40.558C126.052 40.138 125.989 39.695 125.935 39.228C125.875 38.768 125.845 38.335 125.845 37.928C125.845 37.408 125.912 36.888 126.045 36.368C126.172 35.841 126.235 35.318 126.235 34.798C126.235 34.478 126.155 34.181 125.995 33.908C125.835 33.635 125.625 33.388 125.365 33.168C125.105 32.955 124.815 32.788 124.495 32.668C124.182 32.555 123.879 32.498 123.585 32.498C123.092 32.498 122.615 32.591 122.155 32.778C121.689 32.965 121.252 33.205 120.845 33.498C120.439 33.785 120.049 34.101 119.675 34.448C119.295 34.795 118.932 35.128 118.585 35.448C118.499 35.708 118.419 35.985 118.345 36.278C118.279 36.565 118.172 36.825 118.025 37.058C117.905 37.231 117.725 37.378 117.485 37.498C117.239 37.611 116.992 37.725 116.745 37.838C116.499 37.958 116.279 38.081 116.085 38.208C115.899 38.341 115.805 38.538 115.805 38.798C115.805 39.031 115.885 39.218 116.045 39.358C116.205 39.505 116.372 39.608 116.545 39.668C116.839 40.301 116.985 40.895 116.985 41.448C116.985 41.941 116.932 42.418 116.825 42.878C116.725 43.345 116.612 43.801 116.485 44.248C116.352 44.701 116.235 45.165 116.135 45.638C116.035 46.118 115.985 46.591 115.985 47.058L116.025 51.398C116.025 51.805 116.075 52.075 116.175 52.208C116.275 52.335 116.392 52.435 116.525 52.508C116.652 52.581 116.782 52.691 116.915 52.838C117.049 52.978 117.159 53.281 117.245 53.748C117.332 54.328 117.412 54.915 117.485 55.508C117.552 56.101 117.585 56.688 117.585 57.268C117.585 57.875 117.529 58.475 117.415 59.068C117.302 59.661 117.245 60.265 117.245 60.878C117.245 61.511 117.339 61.981 117.525 62.288C117.712 62.588 117.952 62.805 118.245 62.938C118.532 63.071 118.835 63.158 119.155 63.198C119.475 63.245 119.779 63.325 120.065 63.438C120.359 63.551 120.599 63.755 120.785 64.048C120.972 64.335 121.065 64.798 121.065 65.438C121.065 66.018 120.905 66.488 120.585 66.848C120.265 67.208 119.832 67.461 119.285 67.608C117.459 68.101 115.562 68.491 113.595 68.778C111.622 69.071 109.695 69.218 107.815 69.218C107.235 69.218 106.742 69.195 106.335 69.148C105.929 69.108 105.602 68.995 105.355 68.808C105.109 68.615 104.929 68.318 104.815 67.918C104.695 67.511 104.635 66.931 104.635 66.178C104.635 65.511 104.905 64.908 105.445 64.368C105.979 63.835 106.559 63.321 107.185 62.828C107.805 62.335 108.382 61.835 108.915 61.328C109.455 60.821 109.725 60.265 109.725 59.658C109.725 59.398 109.719 59.158 109.705 58.938C109.685 58.725 109.675 58.528 109.675 58.348C109.675 58.088 109.712 57.828 109.785 57.568C109.859 57.308 110.012 57.018 110.245 56.698C110.245 56.065 110.179 55.428 110.045 54.788C109.919 54.155 109.782 53.525 109.635 52.898C109.489 52.278 109.352 51.655 109.225 51.028C109.092 50.408 109.025 49.765 109.025 49.098C109.025 47.738 109.149 46.405 109.395 45.098C109.642 43.791 109.765 42.458 109.765 41.098C109.765 40.345 109.745 39.608 109.705 38.888C109.659 38.161 109.605 37.421 109.545 36.668C109.459 35.801 109.359 35.098 109.245 34.558C109.132 34.025 108.952 33.568 108.705 33.188C108.459 32.815 108.109 32.491 107.655 32.218C107.209 31.938 106.579 31.611 105.765 31.238C105.305 31.005 104.895 30.698 104.535 30.318C104.169 29.945 103.985 29.481 103.985 28.928C103.985 28.321 104.122 27.895 104.395 27.648C104.675 27.401 104.995 27.215 105.355 27.088C105.715 26.955 106.072 26.831 106.425 26.718C106.772 26.598 107.015 26.365 107.155 26.018C107.275 25.758 107.385 25.608 107.485 25.568C107.585 25.521 107.782 25.498 108.075 25.498C108.855 25.498 109.609 25.621 110.335 25.868C111.055 26.115 111.749 26.375 112.415 26.648C113.082 26.928 113.729 27.191 114.355 27.438C114.975 27.678 115.575 27.798 116.155 27.798C116.762 27.798 117.405 27.605 118.085 27.218C118.765 26.825 119.512 26.398 120.325 25.938C121.139 25.471 122.045 25.041 123.045 24.648C124.045 24.261 125.182 24.068 126.455 24.068C126.949 24.068 127.455 24.181 127.975 24.408C128.495 24.641 129.002 24.931 129.495 25.278C129.989 25.631 130.445 26.008 130.865 26.408C131.285 26.815 131.639 27.208 131.925 27.588C132.625 26.921 133.439 26.341 134.365 25.848C135.292 25.355 136.262 24.948 137.275 24.628C138.289 24.308 139.319 24.078 140.365 23.938C141.405 23.791 142.402 23.718 143.355 23.718C144.082 23.718 144.735 23.915 145.315 24.308C145.895 24.695 146.409 25.215 146.855 25.868C147.309 26.521 147.702 27.255 148.035 28.068C148.369 28.875 148.672 29.685 148.945 30.498C149.219 31.311 149.459 32.101 149.665 32.868C149.865 33.635 150.052 34.278 150.225 34.798C150.285 34.945 150.329 35.091 150.355 35.238C150.382 35.378 150.395 35.535 150.395 35.708C150.395 36.115 150.339 36.508 150.225 36.888C150.112 37.261 149.989 37.631 149.855 37.998C149.729 38.358 149.605 38.725 149.485 39.098C149.372 39.478 149.315 39.871 149.315 40.278C149.315 40.685 149.395 41.075 149.555 41.448C149.715 41.821 149.795 42.211 149.795 42.618C149.795 43.058 149.705 43.471 149.525 43.858C149.352 44.251 149.265 44.665 149.265 45.098C149.265 45.678 149.375 46.228 149.595 46.748C149.815 47.268 149.925 47.818 149.925 48.398C149.925 48.831 149.859 49.245 149.725 49.638C149.592 50.031 149.449 50.431 149.295 50.838C149.135 51.245 148.989 51.641 148.855 52.028C148.729 52.421 148.665 52.835 148.665 53.268C148.665 53.415 148.679 53.551 148.705 53.678C148.732 53.811 148.775 53.951 148.835 54.098L150.525 58.348C150.792 58.961 151.229 59.541 151.835 60.088C152.442 60.641 153.065 61.178 153.705 61.698C154.339 62.218 154.902 62.761 155.395 63.328C155.889 63.895 156.135 64.511 156.135 65.178Z" fill="#333333"/>
<path d="M91.867 48.528C91.867 48.068 91.693 47.788 91.347 47.688C91 47.581 90.607 47.515 90.167 47.488C89.733 47.461 89.307 47.418 88.887 47.358C88.467 47.298 88.183 47.081 88.037 46.708V46.268C88.037 45.635 87.96 44.891 87.807 44.038C87.647 43.178 87.45 42.308 87.217 41.428C86.983 40.541 86.737 39.671 86.477 38.818C86.217 37.965 85.97 37.205 85.737 36.538C85.503 35.871 85.317 35.335 85.177 34.928C85.03 34.521 84.957 34.318 84.957 34.318C84.723 34.378 84.533 34.408 84.387 34.408C83.9 34.408 83.473 34.308 83.107 34.108C82.747 33.901 82.343 33.681 81.897 33.448C81.443 33.221 80.89 33.005 80.237 32.798C79.59 32.598 78.73 32.498 77.657 32.498C76.47 32.498 75.297 32.418 74.137 32.258C72.977 32.098 71.803 32.018 70.617 32.018C68.99 32.018 67.47 32.388 66.057 33.128C64.637 33.868 63.39 34.838 62.317 36.038C61.243 37.238 60.403 38.591 59.797 40.098C59.183 41.605 58.877 43.128 58.877 44.668C58.877 45.301 58.893 46.045 58.927 46.898C58.953 47.758 59.027 48.615 59.147 49.468C59.26 50.321 59.447 51.118 59.707 51.858C59.967 52.598 60.33 53.155 60.797 53.528V54.748C60.91 54.861 61.06 54.925 61.247 54.938C61.44 54.958 61.63 54.968 61.817 54.968C62.003 54.968 62.17 54.988 62.317 55.028C62.463 55.075 62.58 55.198 62.667 55.398C63.04 56.471 63.53 57.291 64.137 57.858C64.75 58.418 65.403 58.895 66.097 59.288C66.79 59.681 67.483 60.071 68.177 60.458C68.877 60.851 69.517 61.425 70.097 62.178C70.323 62.151 70.57 62.128 70.837 62.108C71.097 62.095 71.34 62.088 71.567 62.088C72.493 62.088 73.4 62.155 74.287 62.288C75.173 62.415 76.063 62.478 76.957 62.478C77.917 62.478 78.78 62.231 79.547 61.738C80.313 61.251 80.973 60.631 81.527 59.878C81.873 59.385 82.19 58.965 82.477 58.618C82.77 58.265 83.067 57.938 83.367 57.638C83.673 57.331 84.007 57.041 84.367 56.768C84.733 56.495 85.16 56.181 85.647 55.828C85.82 55.715 86.03 55.571 86.277 55.398C86.523 55.225 86.77 55.028 87.017 54.808C87.263 54.595 87.473 54.378 87.647 54.158C87.82 53.945 87.907 53.735 87.907 53.528C87.907 53.268 87.873 53.008 87.807 52.748C87.733 52.488 87.697 52.228 87.697 51.968C87.697 51.675 87.74 51.325 87.827 50.918C87.913 50.518 88.05 50.128 88.237 49.748C88.423 49.375 88.657 49.065 88.937 48.818C89.21 48.571 89.55 48.448 89.957 48.448C90.27 48.448 90.587 48.518 90.907 48.658C91.227 48.805 91.517 48.981 91.777 49.188C91.837 48.895 91.867 48.675 91.867 48.528ZM96.207 48.188C96.207 48.588 96.143 48.971 96.017 49.338C95.883 49.698 95.737 50.008 95.577 50.268C95.423 50.528 95.28 50.745 95.147 50.918C95.013 51.091 94.947 51.195 94.947 51.228C94.947 51.515 95.043 51.818 95.237 52.138C95.423 52.458 95.517 52.805 95.517 53.178C95.517 53.351 95.45 53.468 95.317 53.528C95.19 53.588 95.053 53.618 94.907 53.618C94.647 53.618 94.43 53.588 94.257 53.528C94.283 54.081 94.333 54.618 94.407 55.138C94.48 55.658 94.517 56.195 94.517 56.748C94.517 57.588 94.437 58.131 94.277 58.378C94.117 58.625 93.95 58.775 93.777 58.828C93.603 58.888 93.437 58.955 93.277 59.028C93.117 59.101 93.037 59.368 93.037 59.828C93.037 60.088 92.857 60.421 92.497 60.828C92.137 61.235 91.7 61.641 91.187 62.048C90.68 62.455 90.16 62.801 89.627 63.088C89.093 63.381 88.667 63.528 88.347 63.528C88.26 63.528 88.157 63.498 88.037 63.438C88.037 63.671 88.053 63.918 88.087 64.178C88.113 64.438 88.127 64.685 88.127 64.918C88.127 65.291 88.01 65.545 87.777 65.678C87.55 65.805 87.29 65.928 86.997 66.048C86.563 66.248 86.113 66.545 85.647 66.938C85.187 67.325 84.71 67.721 84.217 68.128C83.723 68.535 83.223 68.891 82.717 69.198C82.21 69.498 81.68 69.648 81.127 69.648C80.667 69.648 80.24 69.535 79.847 69.308C79.46 69.075 79.003 68.958 78.477 68.958C78.017 68.958 77.627 69.021 77.307 69.148C76.987 69.281 76.69 69.428 76.417 69.588C76.143 69.748 75.86 69.891 75.567 70.018C75.28 70.151 74.947 70.218 74.567 70.218C73.813 70.218 73.06 70.021 72.307 69.628C71.553 69.241 70.83 68.931 70.137 68.698C69.73 68.551 69.297 68.441 68.837 68.368C68.37 68.295 67.92 68.215 67.487 68.128C67.053 68.041 66.64 67.905 66.247 67.718C65.853 67.531 65.513 67.265 65.227 66.918C64.62 66.165 63.91 65.541 63.097 65.048C62.283 64.555 61.457 64.091 60.617 63.658C59.777 63.218 58.967 62.761 58.187 62.288C57.407 61.808 56.727 61.178 56.147 60.398C55.707 59.785 55.213 59.125 54.667 58.418C54.113 57.711 53.6 56.965 53.127 56.178C52.647 55.398 52.247 54.601 51.927 53.788C51.607 52.975 51.447 52.178 51.447 51.398C51.447 50.818 51.507 50.255 51.627 49.708C51.74 49.155 51.863 48.595 51.997 48.028C52.123 47.468 52.247 46.911 52.367 46.358C52.48 45.805 52.537 45.241 52.537 44.668V44.188C52.537 44.068 52.493 43.938 52.407 43.798C52.32 43.651 52.227 43.511 52.127 43.378C52.02 43.251 51.917 43.138 51.817 43.038C51.717 42.931 51.653 42.878 51.627 42.878C51.567 42.878 51.537 42.895 51.537 42.928C51.563 42.668 51.643 42.268 51.777 41.728C51.903 41.195 52.057 40.645 52.237 40.078C52.41 39.511 52.583 38.991 52.757 38.518C52.93 38.038 53.09 37.725 53.237 37.578C53.41 37.438 53.573 37.288 53.727 37.128C53.887 36.968 53.967 36.758 53.967 36.498C53.967 36.231 53.953 35.978 53.927 35.738C53.9 35.491 53.887 35.235 53.887 34.968C53.887 34.621 53.93 34.411 54.017 34.338C54.103 34.271 54.22 34.238 54.367 34.238C54.507 34.238 54.65 34.215 54.797 34.168C54.943 34.128 55.087 33.975 55.227 33.708C55.493 33.188 55.747 32.705 55.987 32.258C56.233 31.811 56.503 31.398 56.797 31.018C57.083 30.645 57.417 30.298 57.797 29.978C58.17 29.658 58.633 29.351 59.187 29.058C59.647 28.798 60.103 28.481 60.557 28.108C61.003 27.728 61.46 27.351 61.927 26.978C62.387 26.598 62.857 26.278 63.337 26.018C63.817 25.758 64.33 25.628 64.877 25.628C65.663 25.628 66.423 25.491 67.157 25.218C67.897 24.945 68.643 24.735 69.397 24.588C70.583 24.415 71.763 24.248 72.937 24.088C74.11 23.928 75.307 23.848 76.527 23.848C77.193 23.848 78.003 23.958 78.957 24.178C79.917 24.391 80.897 24.671 81.897 25.018C82.89 25.365 83.83 25.758 84.717 26.198C85.603 26.631 86.307 27.065 86.827 27.498V27.628C86.827 28.035 86.753 28.448 86.607 28.868C86.46 29.288 86.387 29.701 86.387 30.108C86.387 30.161 86.387 30.218 86.387 30.278C86.387 30.338 86.417 30.368 86.477 30.368C86.97 30.368 87.44 30.301 87.887 30.168C88.34 30.041 88.81 29.978 89.297 29.978C89.357 30.471 89.577 30.805 89.957 30.978C90.33 31.151 90.707 31.308 91.087 31.448C91.433 31.628 91.757 31.941 92.057 32.388C92.363 32.835 92.647 33.341 92.907 33.908C93.167 34.475 93.42 35.031 93.667 35.578C93.913 36.131 94.153 36.581 94.387 36.928C94.62 37.275 94.83 37.688 95.017 38.168C95.203 38.648 95.363 39.148 95.497 39.668C95.623 40.188 95.717 40.701 95.777 41.208C95.837 41.715 95.867 42.185 95.867 42.618C95.867 43.198 95.757 43.685 95.537 44.078C95.317 44.471 95.077 44.818 94.817 45.118C94.557 45.425 94.32 45.715 94.107 45.988C93.887 46.261 93.777 46.575 93.777 46.928C93.777 47.128 93.82 47.315 93.907 47.488C93.993 47.661 94.11 47.821 94.257 47.968C94.317 47.941 94.44 47.911 94.627 47.878C94.813 47.851 94.907 47.765 94.907 47.618V47.578C94.907 47.345 94.813 47.128 94.627 46.928C94.44 46.721 94.347 46.475 94.347 46.188C94.347 46.128 94.373 46.031 94.427 45.898C94.487 45.771 94.56 45.708 94.647 45.708C94.82 45.708 94.993 45.815 95.167 46.028C95.34 46.248 95.507 46.481 95.667 46.728C95.827 46.975 95.95 47.185 96.037 47.358C96.123 47.531 96.167 47.588 96.167 47.528L96.127 47.488C96.153 47.635 96.173 47.758 96.187 47.858C96.2 47.958 96.207 48.068 96.207 48.188Z" fill="#333333"/>
<path d="M47.93 21.848C47.93 22.368 47.923 22.898 47.91 23.438C47.897 23.971 47.833 24.485 47.72 24.978C47.66 25.238 47.527 25.521 47.32 25.828C47.12 26.128 46.883 26.418 46.61 26.698C46.33 26.971 46.033 27.201 45.72 27.388C45.4 27.575 45.11 27.668 44.85 27.668C44.417 27.668 44.14 27.495 44.02 27.148C43.907 26.801 43.827 26.425 43.78 26.018C43.74 25.611 43.653 25.235 43.52 24.888C43.393 24.541 43.097 24.368 42.63 24.368C42.483 24.368 42.36 24.398 42.26 24.458C42.16 24.518 42.037 24.548 41.89 24.548C41.837 24.548 41.78 24.371 41.72 24.018C41.66 23.671 41.587 23.251 41.5 22.758C41.413 22.265 41.313 21.765 41.2 21.258C41.08 20.751 40.95 20.325 40.81 19.978C40.543 19.431 40.273 18.861 40 18.268C39.727 17.668 39.59 17.038 39.59 16.378C39.59 15.911 39.677 15.511 39.85 15.178C40.023 14.845 40.21 14.535 40.41 14.248C40.617 13.955 40.807 13.665 40.98 13.378C41.153 13.085 41.24 12.735 41.24 12.328C41.24 11.748 41.053 11.241 40.68 10.808C40.3 10.375 39.827 10.021 39.26 9.748C38.7 9.475 38.107 9.271 37.48 9.138C36.86 9.005 36.317 8.938 35.85 8.938C35.07 8.938 34.31 9.035 33.57 9.228C32.83 9.415 32.09 9.638 31.35 9.89799C30.617 10.158 29.887 10.435 29.16 10.728C28.433 11.015 27.71 11.258 26.99 11.458C27.13 11.865 27.223 12.285 27.27 12.718C27.31 13.158 27.33 13.595 27.33 14.028C27.33 15.015 27.287 15.991 27.2 16.958C27.113 17.931 27.07 18.911 27.07 19.898C27.07 20.965 27.13 22.028 27.25 23.088C27.363 24.148 27.487 25.198 27.62 26.238C27.747 27.278 27.87 28.328 27.99 29.388C28.103 30.448 28.16 31.498 28.16 32.538C28.16 33.811 27.943 35.058 27.51 36.278C27.423 36.511 27.38 36.698 27.38 36.838C27.38 37.158 27.45 37.471 27.59 37.778C27.737 38.078 27.903 38.395 28.09 38.728C28.283 39.061 28.45 39.405 28.59 39.758C28.737 40.105 28.81 40.465 28.81 40.838C28.81 41.185 28.753 41.518 28.64 41.838C28.52 42.158 28.46 42.478 28.46 42.798C28.46 43.258 28.527 43.705 28.66 44.138C28.793 44.578 28.86 45.028 28.86 45.488C28.86 45.748 28.793 45.908 28.66 45.968C28.527 46.028 28.373 46.058 28.2 46.058C28.027 46.058 27.877 46.065 27.75 46.078C27.617 46.091 27.55 46.171 27.55 46.318C27.55 46.751 27.643 47.165 27.83 47.558C28.023 47.945 28.12 48.355 28.12 48.788C28.12 49.168 28.04 49.525 27.88 49.858C27.72 50.191 27.64 50.545 27.64 50.918C27.64 51.298 27.807 51.631 28.14 51.918C28.473 52.211 28.713 52.561 28.86 52.968C29 53.455 29.12 54.018 29.22 54.658C29.327 55.298 29.53 55.908 29.83 56.488C30.137 57.068 30.61 57.551 31.25 57.938C31.883 58.331 32.823 58.528 34.07 58.528H35.33C35.677 58.528 36.103 58.558 36.61 58.618C37.117 58.671 37.61 58.778 38.09 58.938C38.57 59.098 38.977 59.331 39.31 59.638C39.643 59.938 39.81 60.321 39.81 60.788C39.81 61.248 39.723 61.698 39.55 62.138C39.37 62.571 39.28 63.018 39.28 63.478C39.28 63.625 39.31 63.841 39.37 64.128C38.937 64.128 38.553 64.225 38.22 64.418C37.887 64.605 37.647 64.915 37.5 65.348C36.92 65.235 36.333 65.155 35.74 65.108C35.147 65.068 34.56 65.048 33.98 65.048C32.507 65.048 31.043 65.155 29.59 65.368C28.143 65.588 26.69 65.821 25.23 66.068C23.763 66.315 22.3 66.545 20.84 66.758C19.373 66.978 17.903 67.088 16.43 67.088C15.937 67.088 15.327 67.075 14.6 67.048C13.873 67.015 13.18 66.911 12.52 66.738C11.853 66.565 11.28 66.298 10.8 65.938C10.32 65.571 10.08 65.041 10.08 64.348C10.08 63.541 10.16 62.941 10.32 62.548C10.48 62.155 10.677 61.878 10.91 61.718C11.143 61.558 11.41 61.465 11.71 61.438C12.017 61.411 12.313 61.355 12.6 61.268C12.687 61.181 12.73 61.095 12.73 61.008C12.73 60.861 12.667 60.738 12.54 60.638C12.407 60.531 12.267 60.451 12.12 60.398C12.613 59.965 13.173 59.658 13.8 59.478C14.42 59.305 15.057 59.191 15.71 59.138C16.363 59.078 17.023 59.018 17.69 58.958C18.357 58.905 18.98 58.761 19.56 58.528C19.787 58.441 20.03 58.195 20.29 57.788C20.557 57.381 20.797 56.931 21.01 56.438C21.23 55.945 21.403 55.455 21.53 54.968C21.663 54.475 21.73 54.098 21.73 53.838V53.748C21.523 52.355 21.363 50.991 21.25 49.658C21.137 48.325 21.08 46.965 21.08 45.578C21.08 45.458 21.123 45.261 21.21 44.988C21.297 44.715 21.41 44.431 21.55 44.138C21.67 43.825 21.83 43.465 22.03 43.058C21.797 42.678 21.593 42.328 21.42 42.008C21.28 41.721 21.15 41.448 21.03 41.188C20.917 40.928 20.86 40.725 20.86 40.578C20.86 40.231 20.917 39.898 21.03 39.578C21.15 39.258 21.237 38.941 21.29 38.628C21.463 37.408 21.55 36.175 21.55 34.928C21.55 34.408 21.517 33.895 21.45 33.388C21.377 32.881 21.28 32.381 21.16 31.888C20.787 30.121 20.6 28.295 20.6 26.408C20.6 24.208 20.743 22.021 21.03 19.848C21.323 17.675 21.47 15.488 21.47 13.288C21.47 12.535 21.34 11.948 21.08 11.528C20.82 11.108 20.313 10.781 19.56 10.548C18.54 10.261 17.487 10.031 16.4 9.858C15.32 9.685 14.243 9.59801 13.17 9.59801C12.357 9.59801 11.51 9.69101 10.63 9.87801C9.743 10.065 8.93 10.368 8.19 10.788C7.45 11.208 6.843 11.758 6.37 12.438C5.89 13.118 5.65 13.938 5.65 14.898C5.65 15.391 5.68 15.868 5.74 16.328C5.793 16.795 5.82 17.275 5.82 17.768C5.82 18.228 5.727 18.625 5.54 18.958C5.353 19.291 5.26 19.618 5.26 19.938C5.26 20.371 5.377 20.778 5.61 21.158C5.837 21.531 5.95 21.935 5.95 22.368C5.95 22.661 5.887 22.981 5.76 23.328C5.627 23.675 5.473 24.028 5.3 24.388C5.127 24.755 4.96 25.111 4.8 25.458C4.64 25.805 4.517 26.121 4.43 26.408C4.29 26.848 4.103 27.225 3.87 27.538C3.637 27.858 3.273 28.018 2.78 28.018C2.373 28.018 1.997 27.881 1.65 27.608C1.303 27.335 1.13 26.995 1.13 26.588C1.13 26.268 1.21 26.015 1.37 25.828C1.53 25.635 1.61 25.408 1.61 25.148C1.61 24.861 1.55 24.565 1.43 24.258C1.317 23.958 1.18 23.655 1.02 23.348C0.859997 23.041 0.722997 22.731 0.609997 22.418C0.489997 22.098 0.43 21.778 0.43 21.458C0.43 21.051 0.496997 20.661 0.629997 20.288C0.762997 19.908 0.829998 19.515 0.829998 19.108C0.829998 18.241 0.69 17.388 0.41 16.548C0.137 15.708 0 14.855 0 13.988C0 13.201 0.0869983 12.271 0.259998 11.198C0.432998 10.131 0.729998 9.105 1.15 8.118C1.57 7.131 2.12 6.298 2.8 5.618C3.48 4.938 4.343 4.59801 5.39 4.59801C6.11 4.59801 6.827 4.678 7.54 4.838C8.247 4.998 8.977 5.078 9.73 5.078C10.57 5.078 11.41 5.005 12.25 4.858C13.09 4.711 13.933 4.638 14.78 4.638C15.353 4.638 15.893 4.731 16.4 4.918C16.913 5.111 17.457 5.20799 18.03 5.20799C18.383 5.20799 18.683 5.128 18.93 4.968C19.17 4.808 19.45 4.728 19.77 4.728C20.117 4.728 20.457 4.808 20.79 4.968C21.123 5.128 21.467 5.20799 21.82 5.20799C22.133 5.20799 22.43 5.165 22.71 5.078C22.983 4.991 23.263 4.948 23.55 4.948C23.99 4.948 24.42 5.005 24.84 5.118C25.26 5.231 25.67 5.28799 26.07 5.28799L31.33 4.638C32.117 4.578 32.9 4.521 33.68 4.468C34.46 4.408 35.257 4.37801 36.07 4.37801C37.463 4.37801 38.847 4.48799 40.22 4.70799C41.593 4.92099 42.977 5.188 44.37 5.508V5.548C45.323 5.781 46.003 6.275 46.41 7.028C46.817 7.781 47.087 8.645 47.22 9.618C47.347 10.585 47.397 11.575 47.37 12.588C47.337 13.608 47.35 14.478 47.41 15.198C47.497 16.298 47.607 17.408 47.74 18.528C47.867 19.641 47.93 20.748 47.93 21.848Z" fill="#333333"/>
</svg>
