<?xml version="1.0" encoding="UTF-8" standalone="no"?>
<svg id="tw-name" height="75" width="419" xmlns="http://www.w3.org/2000/svg">
    <path id="tw-cursor" fill="black" d="M419 29.1562C419 29.3438 418.976 29.7031 418.929 30.2344C418.906 30.7344 418.871 31.2812 418.824 31.875C418.776 32.4375 418.729 32.9844 418.682 33.5156C418.659 34.0469 418.647 34.4062 418.647 34.5938C418.647 35.0938 418.682 35.5938 418.753 36.0938C418.824 36.5625 418.859 37.0781 418.859 37.6406C418.859 37.9531 418.812 38.2656 418.718 38.5781C418.624 38.8594 418.576 39.1719 418.576 39.5156C418.576 39.7656 418.588 40.1875 418.612 40.7812C418.635 41.375 418.659 42.0156 418.682 42.7031C418.729 43.3594 418.765 43.9844 418.788 44.5781C418.835 45.1719 418.859 45.5938 418.859 45.8438C418.859 46.1875 418.824 46.5 418.753 46.7812C418.682 47.0625 418.647 47.375 418.647 47.7188C418.647 48.0312 418.694 48.3125 418.788 48.5625C418.882 48.7812 418.929 49.0469 418.929 49.3594C418.929 49.5469 418.918 49.9062 418.894 50.4375C418.871 50.9375 418.847 51.4844 418.824 52.0781C418.8 52.6406 418.765 53.1719 418.718 53.6719C418.694 54.1719 418.671 54.5 418.647 54.6562C418.6 55.25 418.612 55.8281 418.682 56.3906C418.753 56.9531 418.788 57.5156 418.788 58.0781C418.788 58.2656 418.765 58.5312 418.718 58.875C418.694 59.1875 418.659 59.5312 418.612 59.9062C418.588 60.2812 418.565 60.6406 418.541 60.9844C418.518 61.2969 418.506 61.5312 418.506 61.6875C418.506 61.9062 418.529 62.0938 418.576 62.25C418.624 62.4062 418.647 62.6094 418.647 62.8594C418.694 63.3281 418.694 63.7969 418.647 64.2656C418.6 64.7031 418.576 65.1562 418.576 65.625C418.576 65.9375 418.624 66.2188 418.718 66.4688C418.812 66.6875 418.859 66.9531 418.859 67.2656C418.859 67.5469 418.824 67.7812 418.753 67.9688C418.682 68.1562 418.647 68.375 418.647 68.625C418.647 68.875 418.694 69.0781 418.788 69.2344C418.882 69.3906 418.929 69.5781 418.929 69.7969C418.929 70.0469 418.871 70.2812 418.753 70.5C418.635 70.7188 418.576 71 418.576 71.3438C418.576 71.5625 418.612 71.7656 418.682 71.9531C418.753 72.1719 418.788 72.4062 418.788 72.6562C418.788 73 418.682 73.2969 418.471 73.5469C418.259 73.7969 418 74 417.694 74.1562C417.388 74.3125 417.071 74.4375 416.741 74.5312C416.412 74.625 416.129 74.6719 415.894 74.6719C414.906 74.6719 414.176 74.2812 413.706 73.5C413.235 72.7188 413 71.7812 413 70.6875C413 69.7812 413.082 68.8906 413.247 68.0156C413.435 67.1094 413.529 66.2031 413.529 65.2969C413.529 64.8906 413.447 64.5312 413.282 64.2188C413.141 63.9062 413.071 63.5312 413.071 63.0938C413.071 62.7812 413.094 62.3906 413.141 61.9219C413.212 61.4219 413.271 60.9062 413.318 60.375C413.388 59.8438 413.447 59.3438 413.494 58.875C413.565 58.375 413.6 57.9531 413.6 57.6094C413.6 57.1406 413.529 56.6562 413.388 56.1562C413.247 55.6562 413.176 55.125 413.176 54.5625C413.176 54.0938 413.188 53.4531 413.212 52.6406C413.235 51.8281 413.259 50.9844 413.282 50.1094C413.329 49.2031 413.365 48.3281 413.388 47.4844C413.435 46.6406 413.459 45.9844 413.459 45.5156C413.459 45.3594 413.447 45.0312 413.424 44.5312C413.4 44.0312 413.376 43.4844 413.353 42.8906C413.329 42.2969 413.306 41.75 413.282 41.25C413.259 40.75 413.247 40.4219 413.247 40.2656C413.247 39.8594 413.294 39.4688 413.388 39.0938C413.482 38.6875 413.529 38.2656 413.529 37.8281C413.529 37.1719 413.506 36.5 413.459 35.8125C413.412 35.0938 413.388 34.3906 413.388 33.7031C413.388 33.3906 413.412 32.9062 413.459 32.25C413.529 31.5625 413.6 30.8594 413.671 30.1406C413.741 29.4219 413.8 28.75 413.847 28.125C413.918 27.4688 413.953 26.9844 413.953 26.6719C413.953 26.4531 413.929 26.1562 413.882 25.7812C413.835 25.375 413.776 24.9531 413.706 24.5156C413.635 24.0781 413.576 23.6562 413.529 23.25C413.482 22.8438 413.459 22.5156 413.459 22.2656C413.459 21.9531 413.482 21.5469 413.529 21.0469C413.576 20.5156 413.624 19.9688 413.671 19.4062C413.718 18.8438 413.765 18.3125 413.812 17.8125C413.859 17.3125 413.882 16.8906 413.882 16.5469C413.882 16.2656 413.835 15.8281 413.741 15.2344C413.671 14.6406 413.576 14 413.459 13.3125C413.365 12.5938 413.271 11.8906 413.176 11.2031C413.106 10.4844 413.071 9.84375 413.071 9.28125C413.071 8.8125 413.141 8.375 413.282 7.96875C413.447 7.53125 413.529 7.10938 413.529 6.70312C413.529 6.39062 413.494 6.10938 413.424 5.85938C413.353 5.60938 413.318 5.35938 413.318 5.10938C413.318 4.57812 413.353 4.01562 413.424 3.42188C413.518 2.82812 413.671 2.28125 413.882 1.78125C414.094 1.25 414.376 0.828125 414.729 0.515625C415.106 0.171875 415.576 0 416.141 0C416.635 0 417.035 0.140625 417.341 0.421875C417.647 0.703125 417.894 1.0625 418.082 1.5C418.271 1.9375 418.4 2.42188 418.471 2.95312C418.541 3.45312 418.576 3.9375 418.576 4.40625C418.576 4.75 418.529 5.0625 418.435 5.34375C418.341 5.625 418.294 5.92188 418.294 6.23438C418.294 7.20312 418.353 8.25 418.471 9.375C418.588 10.4688 418.647 11.6094 418.647 12.7969C418.647 13.3906 418.6 14.1406 418.506 15.0469C418.412 15.9219 418.365 16.6562 418.365 17.25C418.365 17.5938 418.388 18.0156 418.435 18.5156C418.506 18.9844 418.576 19.5 418.647 20.0625C418.718 20.5938 418.776 21.1094 418.824 21.6094C418.894 22.1094 418.929 22.5156 418.929 22.8281C418.929 22.9844 418.906 23.2344 418.859 23.5781C418.835 23.8906 418.8 24.2344 418.753 24.6094C418.729 24.9844 418.706 25.3438 418.682 25.6875C418.659 26 418.647 26.2188 418.647 26.3438C418.647 26.8125 418.706 27.2812 418.824 27.75C418.941 28.2188 419 28.6875 419 29.1562Z" />
    <path id="tw-e" fill="black" d="M393.443 41.488C393.443 41.055 393.369 40.635 393.223 40.228C393.076 39.828 392.959 39.408 392.873 38.968C392.733 38.161 392.663 37.375 392.663 36.608C392.663 35.835 392.546 35.058 392.313 34.278H392.273C392.273 34.451 392.213 34.618 392.093 34.778C391.979 34.938 391.819 35.018 391.613 35.018C391.266 35.018 390.933 34.931 390.613 34.758C390.299 34.585 390.026 34.368 389.793 34.108C388.693 33.615 387.699 33.151 386.813 32.718C385.933 32.278 385.049 31.891 384.163 31.558C383.276 31.225 382.336 30.965 381.343 30.778C380.343 30.591 379.189 30.498 377.883 30.498C377.769 30.498 377.659 30.505 377.553 30.518C377.453 30.531 377.359 30.581 377.273 30.668L377.493 31.148L377.143 31.238C376.363 31.385 375.719 31.521 375.213 31.648C374.706 31.781 374.249 31.961 373.843 32.188C373.436 32.421 373.036 32.705 372.643 33.038C372.256 33.371 371.756 33.798 371.143 34.318C370.856 34.578 370.546 34.775 370.213 34.908C369.879 35.041 369.546 35.158 369.213 35.258C368.879 35.358 368.563 35.465 368.263 35.578C367.956 35.698 367.699 35.888 367.493 36.148C367.293 36.875 366.996 37.578 366.603 38.258C366.216 38.938 366.023 39.655 366.023 40.408C366.023 40.841 366.203 41.225 366.563 41.558C366.923 41.891 367.386 42.175 367.953 42.408C368.519 42.635 369.143 42.835 369.823 43.008C370.503 43.188 371.176 43.321 371.843 43.408C372.509 43.495 373.126 43.558 373.693 43.598C374.253 43.645 374.693 43.668 375.013 43.668C376.113 43.668 377.199 43.558 378.273 43.338C379.346 43.118 380.433 43.008 381.533 43.008C382.666 43.008 383.796 43.061 384.923 43.168C386.056 43.268 387.186 43.318 388.313 43.318C388.606 43.318 389.039 43.305 389.613 43.278C390.193 43.245 390.766 43.165 391.333 43.038C391.899 42.905 392.393 42.715 392.813 42.468C393.233 42.221 393.443 41.895 393.443 41.488ZM399.963 59.138C399.963 59.918 399.839 60.585 399.593 61.138C399.346 61.685 399.026 62.175 398.633 62.608C398.239 63.048 397.789 63.455 397.283 63.828C396.776 64.208 396.263 64.615 395.743 65.048C395.336 65.395 394.976 65.655 394.663 65.828C394.343 66.001 394.029 66.145 393.723 66.258C393.416 66.378 393.096 66.495 392.763 66.608C392.436 66.728 392.053 66.888 391.613 67.088C391.033 67.375 390.549 67.641 390.163 67.888C389.769 68.135 389.376 68.361 388.983 68.568C388.596 68.768 388.169 68.935 387.703 69.068C387.243 69.195 386.663 69.301 385.963 69.388C384.809 69.535 383.646 69.708 382.473 69.908C381.299 70.115 380.133 70.218 378.973 70.218C378.739 70.218 378.499 70.168 378.253 70.068C378.006 69.961 377.723 69.858 377.403 69.758C377.083 69.658 376.729 69.558 376.343 69.458C375.949 69.358 375.479 69.308 374.933 69.308C374.353 69.308 373.889 69.221 373.543 69.048C373.189 68.868 372.876 68.665 372.603 68.438C372.329 68.205 372.046 67.951 371.753 67.678C371.466 67.398 371.089 67.158 370.623 66.958C368.889 66.178 367.413 65.238 366.193 64.138C364.979 63.031 363.936 61.798 363.063 60.438C362.196 59.078 361.473 57.601 360.893 56.008C360.313 54.415 359.819 52.748 359.413 51.008C359.093 49.795 358.933 48.578 358.933 47.358C358.933 45.765 359.309 44.288 360.063 42.928C359.776 42.115 359.633 41.331 359.633 40.578C359.633 40.031 359.793 39.215 360.113 38.128C360.426 37.041 360.839 35.945 361.353 34.838C361.859 33.738 362.409 32.748 363.003 31.868C363.596 30.981 364.153 30.438 364.673 30.238C365.079 30.091 365.363 29.968 365.523 29.868C365.683 29.768 365.763 29.485 365.763 29.018C365.763 28.671 365.899 28.381 366.173 28.148C366.446 27.915 366.779 27.728 367.173 27.588C367.566 27.441 367.956 27.311 368.343 27.198C368.736 27.078 369.063 26.961 369.323 26.848C370.396 26.328 371.416 25.885 372.383 25.518C373.356 25.158 374.329 24.855 375.303 24.608C376.269 24.361 377.276 24.181 378.323 24.068C379.363 23.948 380.476 23.888 381.663 23.888C382.303 23.888 382.926 23.975 383.533 24.148C384.139 24.328 384.726 24.555 385.293 24.828C385.859 25.101 386.416 25.405 386.963 25.738C387.516 26.071 388.053 26.398 388.573 26.718H388.533C388.966 26.778 389.379 26.901 389.773 27.088C390.159 27.275 390.569 27.398 391.003 27.458C391.409 27.951 391.939 28.421 392.593 28.868C393.246 29.315 393.883 29.785 394.503 30.278C395.129 30.771 395.666 31.301 396.113 31.868C396.559 32.435 396.783 33.078 396.783 33.798C396.783 33.918 396.776 34.035 396.763 34.148C396.749 34.261 396.729 34.391 396.703 34.538L396.873 34.318C396.993 34.405 397.103 34.551 397.203 34.758C397.303 34.958 397.396 35.181 397.483 35.428C397.569 35.675 397.643 35.921 397.703 36.168C397.756 36.415 397.799 36.611 397.833 36.758C398.066 37.131 398.376 37.435 398.763 37.668C399.156 37.901 399.469 38.221 399.703 38.628C399.409 38.915 399.263 39.291 399.263 39.758C399.263 40.245 399.366 40.728 399.573 41.208C399.773 41.688 399.873 42.175 399.873 42.668C399.873 43.248 399.843 43.805 399.783 44.338C399.729 44.871 399.703 45.428 399.703 46.008C399.703 46.448 399.536 46.781 399.203 47.008C398.869 47.241 398.506 47.445 398.113 47.618C397.719 47.791 397.366 47.965 397.053 48.138C396.733 48.311 396.573 48.558 396.573 48.878C396.573 49.111 396.433 49.221 396.153 49.208C395.879 49.195 395.656 49.188 395.483 49.188C394.209 49.188 392.943 49.028 391.683 48.708C390.423 48.388 389.169 48.228 387.923 48.228C386.563 48.228 385.216 48.321 383.883 48.508C382.549 48.695 381.203 48.788 379.843 48.788C378.829 48.788 377.823 48.761 376.823 48.708C375.823 48.648 374.816 48.618 373.803 48.618C373.536 48.618 373.043 48.668 372.323 48.768C371.596 48.875 370.836 49.005 370.043 49.158C369.243 49.318 368.483 49.508 367.763 49.728C367.036 49.941 366.526 50.151 366.233 50.358C366.206 50.505 366.193 50.708 366.193 50.968C366.193 52.328 366.593 53.731 367.393 55.178C368.186 56.631 369.236 57.951 370.543 59.138C371.843 60.325 373.306 61.308 374.933 62.088C376.553 62.875 378.189 63.268 379.843 63.268C380.796 63.268 381.743 63.301 382.683 63.368C383.629 63.441 384.549 63.651 385.443 63.998C386.229 63.625 386.946 63.191 387.593 62.698C388.246 62.205 388.876 61.685 389.483 61.138C390.096 60.585 390.693 60.018 391.273 59.438C391.846 58.858 392.439 58.278 393.053 57.698C393.166 57.585 393.446 57.478 393.893 57.378C394.346 57.278 394.833 57.191 395.353 57.118C395.873 57.045 396.373 56.985 396.853 56.938C397.333 56.898 397.659 56.878 397.833 56.878C398.499 56.878 399.123 56.978 399.703 57.178C399.876 57.845 399.963 58.498 399.963 59.138Z"/>
    <path id="tw-w" fill="black" d="M340.56 34.368C340.18 33.901 339.687 33.445 339.08 32.998C338.474 32.545 337.844 32.145 337.19 31.798C336.537 31.451 335.92 31.178 335.34 30.978C334.76 30.771 334.297 30.668 333.95 30.668C333.89 30.668 333.79 30.748 333.65 30.908C333.504 31.068 333.337 31.258 333.15 31.478C332.957 31.691 332.747 31.895 332.52 32.088C332.287 32.275 332.084 32.411 331.91 32.498C331.91 33.918 331.887 35.331 331.84 36.738C331.8 38.138 331.78 39.548 331.78 40.968C331.78 41.695 331.844 42.368 331.97 42.988C332.104 43.615 332.417 44.218 332.91 44.798C333.144 45.085 333.367 45.541 333.58 46.168C333.8 46.788 334.034 47.418 334.28 48.058C334.527 48.691 334.807 49.248 335.12 49.728C335.44 50.208 335.804 50.448 336.21 50.448C336.73 50.448 337.174 50.115 337.54 49.448C337.9 48.781 338.21 47.925 338.47 46.878C338.73 45.838 338.947 44.681 339.12 43.408C339.294 42.128 339.454 40.895 339.6 39.708C339.747 38.521 339.89 37.441 340.03 36.468C340.177 35.501 340.354 34.801 340.56 34.368ZM330.47 29.628C330.47 29.368 330.35 29.171 330.11 29.038C329.864 28.911 329.637 28.818 329.43 28.758C329.404 29.078 329.31 29.331 329.15 29.518C328.99 29.705 328.88 29.931 328.82 30.198C328.88 30.251 328.91 30.351 328.91 30.498C328.91 30.558 328.99 30.578 329.15 30.558C329.31 30.545 329.49 30.501 329.69 30.428C329.897 30.361 330.08 30.255 330.24 30.108C330.394 29.961 330.47 29.801 330.47 29.628ZM354.9 28.278C354.9 29.205 354.604 29.931 354.01 30.458C353.417 30.978 352.714 31.425 351.9 31.798C351.087 32.178 350.254 32.548 349.4 32.908C348.547 33.268 347.874 33.755 347.38 34.368C346.54 35.381 345.94 36.568 345.58 37.928C345.214 39.288 344.937 40.708 344.75 42.188C344.564 43.668 344.404 45.145 344.27 46.618C344.144 48.098 343.89 49.461 343.51 50.708C343.364 51.141 343.29 51.641 343.29 52.208C343.29 52.768 343.27 53.318 343.23 53.858C343.184 54.391 343.06 54.881 342.86 55.328C342.66 55.781 342.297 56.108 341.77 56.308C341.63 56.368 341.457 56.441 341.25 56.528C341.05 56.615 340.95 56.745 340.95 56.918C340.95 57.125 341.037 57.285 341.21 57.398C341.384 57.511 341.564 57.621 341.75 57.728C341.937 57.828 342.117 57.958 342.29 58.118C342.47 58.278 342.56 58.501 342.56 58.788C342.56 59.368 342.48 59.948 342.32 60.528C342.16 61.108 341.984 61.688 341.79 62.268C341.604 62.848 341.43 63.448 341.27 64.068C341.11 64.688 341.03 65.348 341.03 66.048C341.03 66.481 340.98 66.798 340.88 66.998C340.78 67.205 340.644 67.365 340.47 67.478C340.297 67.598 340.08 67.691 339.82 67.758C339.56 67.831 339.27 67.971 338.95 68.178C338.657 68.351 338.36 68.508 338.06 68.648C337.754 68.795 337.414 68.868 337.04 68.868C336.72 68.868 336.4 68.795 336.08 68.648C335.76 68.508 335.434 68.341 335.1 68.148C334.767 67.961 334.434 67.775 334.1 67.588C333.767 67.401 333.444 67.265 333.13 67.178C332.897 66.278 332.67 65.538 332.45 64.958C332.237 64.378 332.034 63.871 331.84 63.438C331.654 63.005 331.487 62.598 331.34 62.218C331.2 61.845 331.07 61.405 330.95 60.898C330.837 60.391 330.75 59.788 330.69 59.088C330.63 58.395 330.6 57.498 330.6 56.398C330.6 55.905 330.557 55.418 330.47 54.938C330.384 54.465 330.21 54.025 329.95 53.618C329.457 52.865 329.074 52.081 328.8 51.268C328.527 50.455 328.317 49.638 328.17 48.818C328.024 47.991 327.917 47.151 327.85 46.298C327.777 45.438 327.697 44.575 327.61 43.708C327.577 43.508 327.547 43.218 327.52 42.838C327.494 42.465 327.427 42.088 327.32 41.708C327.22 41.335 327.077 41.018 326.89 40.758C326.704 40.491 326.45 40.358 326.13 40.358C325.81 40.358 325.47 40.498 325.11 40.778C324.744 41.051 324.33 41.355 323.87 41.688C323.404 42.021 322.867 42.325 322.26 42.598C321.654 42.871 320.944 43.008 320.13 43.008C320.424 43.361 320.714 43.595 321 43.708C321.294 43.821 321.64 43.908 322.04 43.968C322.447 44.055 322.744 44.171 322.93 44.318C323.124 44.465 323.27 44.638 323.37 44.838C323.47 45.038 323.557 45.271 323.63 45.538C323.704 45.798 323.827 46.071 324 46.358C324.287 46.851 324.43 47.388 324.43 47.968C324.43 48.781 324.257 49.585 323.91 50.378C323.564 51.178 323.174 51.911 322.74 52.578C322.447 53.038 322.25 53.528 322.15 54.048C322.05 54.575 321.98 55.098 321.94 55.618C321.894 56.138 321.84 56.658 321.78 57.178C321.727 57.698 321.584 58.205 321.35 58.698C321.264 58.905 321.134 59.188 320.96 59.548C320.787 59.908 320.7 60.205 320.7 60.438C320.7 60.525 320.737 60.641 320.81 60.788C320.877 60.935 320.964 61.101 321.07 61.288C321.17 61.475 321.257 61.678 321.33 61.898C321.404 62.111 321.44 62.305 321.44 62.478C321.44 62.771 321.367 63.098 321.22 63.458C321.074 63.818 320.907 64.195 320.72 64.588C320.534 64.981 320.344 65.365 320.15 65.738C319.964 66.118 319.827 66.468 319.74 66.788C319.567 67.335 319.327 67.761 319.02 68.068C318.72 68.368 318.36 68.591 317.94 68.738C317.52 68.885 317.07 68.971 316.59 68.998C316.11 69.031 315.64 69.048 315.18 69.048C314.34 69.048 313.687 69.011 313.22 68.938C312.76 68.865 312.407 68.705 312.16 68.458C311.914 68.211 311.724 67.855 311.59 67.388C311.464 66.928 311.314 66.321 311.14 65.568C310.967 64.875 310.784 64.178 310.59 63.478C310.404 62.785 310.31 62.075 310.31 61.348C310.31 60.568 310.484 59.831 310.83 59.138C310.597 58.758 310.394 58.321 310.22 57.828C310.047 57.335 309.83 56.945 309.57 56.658C309.284 56.338 308.98 56.028 308.66 55.728C308.34 55.421 308.037 55.108 307.75 54.788C307.777 54.468 307.79 54.171 307.79 53.898C307.79 53.625 307.79 53.328 307.79 53.008C307.79 50.661 307.544 48.248 307.05 45.768C306.557 43.295 305.964 40.928 305.27 38.668C304.95 37.741 304.604 36.828 304.23 35.928C303.85 35.028 303.574 34.088 303.4 33.108C303.08 33.108 302.777 33.098 302.49 33.078C302.197 33.065 301.894 33.058 301.58 33.058C301.314 33.058 301.094 33.131 300.92 33.278C300.747 33.425 300.567 33.585 300.38 33.758C300.194 33.931 299.99 34.091 299.77 34.238C299.557 34.378 299.304 34.448 299.01 34.448C298.577 34.448 298.15 34.305 297.73 34.018C297.31 33.725 296.934 33.368 296.6 32.948C296.267 32.528 296 32.081 295.8 31.608C295.594 31.128 295.49 30.685 295.49 30.278C295.49 29.731 295.644 29.181 295.95 28.628C296.25 28.075 296.64 27.575 297.12 27.128C297.6 26.681 298.13 26.318 298.71 26.038C299.29 25.765 299.84 25.628 300.36 25.628C301.027 25.628 301.664 25.758 302.27 26.018C302.877 26.278 303.514 26.408 304.18 26.408C304.707 26.408 305.23 26.375 305.75 26.308C306.27 26.235 306.807 26.198 307.36 26.198C308.14 26.198 308.92 26.225 309.7 26.278C310.487 26.338 311.27 26.368 312.05 26.368C312.457 26.368 312.847 26.461 313.22 26.648C313.6 26.841 313.964 27.061 314.31 27.308C314.657 27.548 315.004 27.808 315.35 28.088C315.697 28.361 316.044 28.585 316.39 28.758C316.364 29.398 316.214 29.885 315.94 30.218C315.667 30.551 315.32 30.825 314.9 31.038C314.474 31.258 314.024 31.468 313.55 31.668C313.07 31.875 312.634 32.158 312.24 32.518C311.854 32.878 311.52 33.371 311.24 33.998C310.967 34.618 310.83 35.451 310.83 36.498C310.83 37.771 311.134 38.901 311.74 39.888C311.887 40.148 311.96 40.481 311.96 40.888C311.96 41.201 311.93 41.525 311.87 41.858C311.817 42.191 311.79 42.505 311.79 42.798C311.79 43.145 311.877 43.418 312.05 43.618C312.484 44.145 312.75 44.818 312.85 45.638C312.95 46.465 313.037 47.315 313.11 48.188C313.184 49.055 313.3 49.871 313.46 50.638C313.62 51.405 313.977 51.961 314.53 52.308H314.83C315.61 52.308 316.184 52.021 316.55 51.448C316.91 50.868 317.164 50.178 317.31 49.378C317.45 48.585 317.53 47.768 317.55 46.928C317.564 46.088 317.597 45.405 317.65 44.878C318.117 44.478 318.48 43.878 318.74 43.078C319 42.285 319.204 41.438 319.35 40.538C319.497 39.638 319.59 38.748 319.63 37.868C319.677 36.981 319.7 36.248 319.7 35.668C319.7 34.768 319.59 34.038 319.37 33.478C319.157 32.911 318.91 32.425 318.63 32.018C318.357 31.611 318.11 31.228 317.89 30.868C317.677 30.508 317.57 30.065 317.57 29.538C317.57 28.931 317.91 28.405 318.59 27.958C319.27 27.505 320.087 27.141 321.04 26.868C322 26.595 322.974 26.391 323.96 26.258C324.94 26.131 325.737 26.068 326.35 26.068C326.784 26.068 327.08 26.075 327.24 26.088C327.4 26.101 327.507 26.121 327.56 26.148C327.56 25.921 327.837 25.808 328.39 25.808C328.824 25.808 329.36 25.865 330 25.978C330.634 26.091 331.27 26.215 331.91 26.348C332.544 26.475 333.137 26.598 333.69 26.718C334.244 26.831 334.65 26.888 334.91 26.888C335.75 26.888 336.61 26.771 337.49 26.538C338.377 26.311 339.197 26.025 339.95 25.678C341.11 25.151 342.277 24.795 343.45 24.608C344.624 24.421 345.83 24.328 347.07 24.328C347.737 24.328 348.52 24.401 349.42 24.548C350.32 24.688 351.184 24.911 352.01 25.218C352.837 25.525 353.53 25.895 354.09 26.328C354.657 26.761 354.94 27.251 354.94 27.798C354.94 27.918 354.934 28.021 354.92 28.108C354.907 28.195 354.9 28.251 354.9 28.278Z"/>
    <path id="tw-little-o" fill="black" d="M287.022 49.528C287.022 49.068 286.849 48.788 286.502 48.688C286.155 48.581 285.762 48.515 285.322 48.488C284.889 48.461 284.462 48.418 284.042 48.358C283.622 48.298 283.339 48.081 283.192 47.708V47.268C283.192 46.635 283.115 45.891 282.962 45.038C282.802 44.178 282.605 43.308 282.372 42.428C282.139 41.541 281.892 40.671 281.632 39.818C281.372 38.965 281.125 38.205 280.892 37.538C280.659 36.871 280.472 36.335 280.332 35.928C280.185 35.521 280.112 35.318 280.112 35.318C279.879 35.378 279.689 35.408 279.542 35.408C279.055 35.408 278.629 35.308 278.262 35.108C277.902 34.901 277.499 34.681 277.052 34.448C276.599 34.221 276.045 34.005 275.392 33.798C274.745 33.598 273.885 33.498 272.812 33.498C271.625 33.498 270.452 33.418 269.292 33.258C268.132 33.098 266.959 33.018 265.772 33.018C264.145 33.018 262.625 33.388 261.212 34.128C259.792 34.868 258.545 35.838 257.472 37.038C256.399 38.238 255.559 39.591 254.952 41.098C254.339 42.605 254.032 44.128 254.032 45.668C254.032 46.301 254.049 47.045 254.082 47.898C254.109 48.758 254.182 49.615 254.302 50.468C254.415 51.321 254.602 52.118 254.862 52.858C255.122 53.598 255.485 54.155 255.952 54.528V55.748C256.065 55.861 256.215 55.925 256.402 55.938C256.595 55.958 256.785 55.968 256.972 55.968C257.159 55.968 257.325 55.988 257.472 56.028C257.619 56.075 257.735 56.198 257.822 56.398C258.195 57.471 258.685 58.291 259.292 58.858C259.905 59.418 260.559 59.895 261.252 60.288C261.945 60.681 262.639 61.071 263.332 61.458C264.032 61.851 264.672 62.425 265.252 63.178C265.479 63.151 265.725 63.128 265.992 63.108C266.252 63.095 266.495 63.088 266.722 63.088C267.649 63.088 268.555 63.155 269.442 63.288C270.329 63.415 271.219 63.478 272.112 63.478C273.072 63.478 273.935 63.231 274.702 62.738C275.469 62.251 276.129 61.631 276.682 60.878C277.029 60.385 277.345 59.965 277.632 59.618C277.925 59.265 278.222 58.938 278.522 58.638C278.829 58.331 279.162 58.041 279.522 57.768C279.889 57.495 280.315 57.181 280.802 56.828C280.975 56.715 281.185 56.571 281.432 56.398C281.679 56.225 281.925 56.028 282.172 55.808C282.419 55.595 282.629 55.378 282.802 55.158C282.975 54.945 283.062 54.735 283.062 54.528C283.062 54.268 283.029 54.008 282.962 53.748C282.889 53.488 282.852 53.228 282.852 52.968C282.852 52.675 282.895 52.325 282.982 51.918C283.069 51.518 283.205 51.128 283.392 50.748C283.579 50.375 283.812 50.065 284.092 49.818C284.365 49.571 284.705 49.448 285.112 49.448C285.425 49.448 285.742 49.518 286.062 49.658C286.382 49.805 286.672 49.981 286.932 50.188C286.992 49.895 287.022 49.675 287.022 49.528ZM291.362 49.188C291.362 49.588 291.299 49.971 291.172 50.338C291.039 50.698 290.892 51.008 290.732 51.268C290.579 51.528 290.435 51.745 290.302 51.918C290.169 52.091 290.102 52.195 290.102 52.228C290.102 52.515 290.199 52.818 290.392 53.138C290.579 53.458 290.672 53.805 290.672 54.178C290.672 54.351 290.605 54.468 290.472 54.528C290.345 54.588 290.209 54.618 290.062 54.618C289.802 54.618 289.585 54.588 289.412 54.528C289.439 55.081 289.489 55.618 289.562 56.138C289.635 56.658 289.672 57.195 289.672 57.748C289.672 58.588 289.592 59.131 289.432 59.378C289.272 59.625 289.105 59.775 288.932 59.828C288.759 59.888 288.592 59.955 288.432 60.028C288.272 60.101 288.192 60.368 288.192 60.828C288.192 61.088 288.012 61.421 287.652 61.828C287.292 62.235 286.855 62.641 286.342 63.048C285.835 63.455 285.315 63.801 284.782 64.088C284.249 64.381 283.822 64.528 283.502 64.528C283.415 64.528 283.312 64.498 283.192 64.438C283.192 64.671 283.209 64.918 283.242 65.178C283.269 65.438 283.282 65.685 283.282 65.918C283.282 66.291 283.165 66.545 282.932 66.678C282.705 66.805 282.445 66.928 282.152 67.048C281.719 67.248 281.269 67.545 280.802 67.938C280.342 68.325 279.865 68.721 279.372 69.128C278.879 69.535 278.379 69.891 277.872 70.198C277.365 70.498 276.835 70.648 276.282 70.648C275.822 70.648 275.395 70.535 275.002 70.308C274.615 70.075 274.159 69.958 273.632 69.958C273.172 69.958 272.782 70.021 272.462 70.148C272.142 70.281 271.845 70.428 271.572 70.588C271.299 70.748 271.015 70.891 270.722 71.018C270.435 71.151 270.102 71.218 269.722 71.218C268.969 71.218 268.215 71.021 267.462 70.628C266.709 70.241 265.985 69.931 265.292 69.698C264.885 69.551 264.452 69.441 263.992 69.368C263.525 69.295 263.075 69.215 262.642 69.128C262.209 69.041 261.795 68.905 261.402 68.718C261.009 68.531 260.669 68.265 260.382 67.918C259.775 67.165 259.065 66.541 258.252 66.048C257.439 65.555 256.612 65.091 255.772 64.658C254.932 64.218 254.122 63.761 253.342 63.288C252.562 62.808 251.882 62.178 251.302 61.398C250.862 60.785 250.369 60.125 249.822 59.418C249.269 58.711 248.755 57.965 248.282 57.178C247.802 56.398 247.402 55.601 247.082 54.788C246.762 53.975 246.602 53.178 246.602 52.398C246.602 51.818 246.662 51.255 246.782 50.708C246.895 50.155 247.019 49.595 247.152 49.028C247.279 48.468 247.402 47.911 247.522 47.358C247.635 46.805 247.692 46.241 247.692 45.668V45.188C247.692 45.068 247.649 44.938 247.562 44.798C247.475 44.651 247.382 44.511 247.282 44.378C247.175 44.251 247.072 44.138 246.972 44.038C246.872 43.931 246.809 43.878 246.782 43.878C246.722 43.878 246.692 43.895 246.692 43.928C246.719 43.668 246.799 43.268 246.932 42.728C247.059 42.195 247.212 41.645 247.392 41.078C247.565 40.511 247.739 39.991 247.912 39.518C248.085 39.038 248.245 38.725 248.392 38.578C248.565 38.438 248.729 38.288 248.882 38.128C249.042 37.968 249.122 37.758 249.122 37.498C249.122 37.231 249.109 36.978 249.082 36.738C249.055 36.491 249.042 36.235 249.042 35.968C249.042 35.621 249.085 35.411 249.172 35.338C249.259 35.271 249.375 35.238 249.522 35.238C249.662 35.238 249.805 35.215 249.952 35.168C250.099 35.128 250.242 34.975 250.382 34.708C250.649 34.188 250.902 33.705 251.142 33.258C251.389 32.811 251.659 32.398 251.952 32.018C252.239 31.645 252.572 31.298 252.952 30.978C253.325 30.658 253.789 30.351 254.342 30.058C254.802 29.798 255.259 29.481 255.712 29.108C256.159 28.728 256.615 28.351 257.082 27.978C257.542 27.598 258.012 27.278 258.492 27.018C258.972 26.758 259.485 26.628 260.032 26.628C260.819 26.628 261.579 26.491 262.312 26.218C263.052 25.945 263.799 25.735 264.552 25.588C265.739 25.415 266.919 25.248 268.092 25.088C269.265 24.928 270.462 24.848 271.682 24.848C272.349 24.848 273.159 24.958 274.112 25.178C275.072 25.391 276.052 25.671 277.052 26.018C278.045 26.365 278.985 26.758 279.872 27.198C280.759 27.631 281.462 28.065 281.982 28.498V28.628C281.982 29.035 281.909 29.448 281.762 29.868C281.615 30.288 281.542 30.701 281.542 31.108C281.542 31.161 281.542 31.218 281.542 31.278C281.542 31.338 281.572 31.368 281.632 31.368C282.125 31.368 282.595 31.301 283.042 31.168C283.495 31.041 283.965 30.978 284.452 30.978C284.512 31.471 284.732 31.805 285.112 31.978C285.485 32.151 285.862 32.308 286.242 32.448C286.589 32.628 286.912 32.941 287.212 33.388C287.519 33.835 287.802 34.341 288.062 34.908C288.322 35.475 288.575 36.031 288.822 36.578C289.069 37.131 289.309 37.581 289.542 37.928C289.775 38.275 289.985 38.688 290.172 39.168C290.359 39.648 290.519 40.148 290.652 40.668C290.779 41.188 290.872 41.701 290.932 42.208C290.992 42.715 291.022 43.185 291.022 43.618C291.022 44.198 290.912 44.685 290.692 45.078C290.472 45.471 290.232 45.818 289.972 46.118C289.712 46.425 289.475 46.715 289.262 46.988C289.042 47.261 288.932 47.575 288.932 47.928C288.932 48.128 288.975 48.315 289.062 48.488C289.149 48.661 289.265 48.821 289.412 48.968C289.472 48.941 289.595 48.911 289.782 48.878C289.969 48.851 290.062 48.765 290.062 48.618V48.578C290.062 48.345 289.969 48.128 289.782 47.928C289.595 47.721 289.502 47.475 289.502 47.188C289.502 47.128 289.529 47.031 289.582 46.898C289.642 46.771 289.715 46.708 289.802 46.708C289.975 46.708 290.149 46.815 290.322 47.028C290.495 47.248 290.662 47.481 290.822 47.728C290.982 47.975 291.105 48.185 291.192 48.358C291.279 48.531 291.322 48.588 291.322 48.528L291.282 48.488C291.309 48.635 291.329 48.758 291.342 48.858C291.355 48.958 291.362 49.068 291.362 49.188Z"/>
    <path id="tw-big-o" fill="black" d="M287.012 38.68C287.012 37.06 286.872 35.453 286.592 33.86C286.319 32.267 286.052 30.673 285.792 29.08C285.672 28.5 285.492 27.947 285.252 27.42C285.006 26.9 284.792 26.367 284.612 25.82C284.266 24.773 283.936 23.73 283.622 22.69C283.302 21.643 282.982 20.6 282.662 19.56C282.462 18.92 282.056 18.363 281.442 17.89C280.836 17.41 280.126 17.003 279.312 16.67C278.506 16.337 277.629 16.06 276.682 15.84C275.742 15.627 274.839 15.453 273.972 15.32C273.099 15.193 272.296 15.107 271.562 15.06C270.822 15.02 270.262 15 269.882 15L270.452 14.95L269.972 15C269.332 15 268.702 14.97 268.082 14.91C267.462 14.85 266.832 14.82 266.192 14.82C265.672 14.82 265.159 14.857 264.652 14.93C264.146 15.003 263.689 15.2 263.282 15.52C262.322 16.273 261.422 16.973 260.582 17.62C259.742 18.273 259.049 19.167 258.502 20.3C258.329 20.673 258.139 20.94 257.932 21.1C257.732 21.26 257.539 21.42 257.352 21.58C257.159 21.74 256.992 21.92 256.852 22.12C256.706 22.327 256.602 22.66 256.542 23.12C256.396 23.96 256.229 24.793 256.042 25.62C255.856 26.447 255.762 27.28 255.762 28.12C255.762 29.02 255.682 29.91 255.522 30.79C255.362 31.677 255.109 32.54 254.762 33.38C254.676 33.613 254.596 33.83 254.522 34.03C254.449 34.23 254.412 34.447 254.412 34.68C254.412 35.113 254.516 35.483 254.722 35.79C254.922 36.097 255.022 36.363 255.022 36.59C255.022 36.71 254.986 36.777 254.912 36.79C254.839 36.803 254.766 36.833 254.692 36.88C254.626 36.92 254.556 37.013 254.482 37.16C254.409 37.307 254.372 37.567 254.372 37.94C254.372 38.78 254.379 39.633 254.392 40.5C254.406 41.373 254.486 42.23 254.632 43.07C254.719 43.563 254.872 44.033 255.092 44.48C255.306 44.927 255.412 45.397 255.412 45.89C255.412 46.21 255.339 46.53 255.192 46.85C255.052 47.17 254.982 47.503 254.982 47.85C254.982 48.257 255.096 48.583 255.322 48.83C255.556 49.077 255.789 49.357 256.022 49.67C256.196 49.903 256.349 50.2 256.482 50.56C256.609 50.927 256.739 51.27 256.872 51.59C256.999 51.903 257.122 52.177 257.242 52.41C257.356 52.643 257.486 52.76 257.632 52.76C257.746 52.76 257.846 52.737 257.932 52.69C258.019 52.65 258.122 52.63 258.242 52.63C258.822 52.63 259.262 52.883 259.562 53.39C259.869 53.897 260.022 54.397 260.022 54.89C260.022 55.297 260.139 55.637 260.372 55.91C260.599 56.183 260.872 56.437 261.192 56.67C261.512 56.903 261.839 57.127 262.172 57.34C262.506 57.56 262.789 57.8 263.022 58.06C263.396 58.493 263.692 58.783 263.912 58.93C264.126 59.077 264.319 59.17 264.492 59.21C264.672 59.257 264.839 59.293 264.992 59.32C265.152 59.347 265.362 59.45 265.622 59.63C265.942 59.857 266.269 60.11 266.602 60.39C266.936 60.663 267.262 60.917 267.582 61.15C268.482 61.783 269.489 62.167 270.602 62.3C271.716 62.427 272.809 62.49 273.882 62.49C274.316 62.49 274.722 62.39 275.102 62.19C275.476 61.99 275.852 61.767 276.232 61.52C276.606 61.273 276.989 61.047 277.382 60.84C277.776 60.64 278.202 60.54 278.662 60.54C279.042 60.54 279.432 60.627 279.832 60.8C280.499 59.787 281.139 58.977 281.752 58.37C282.359 57.757 282.909 57.16 283.402 56.58C283.896 56 284.316 55.333 284.662 54.58C285.009 53.827 285.256 52.8 285.402 51.5C285.456 50.947 285.606 50.433 285.852 49.96C286.099 49.48 286.252 48.98 286.312 48.46C286.459 47.3 286.539 46.14 286.552 44.98C286.566 43.82 286.659 42.66 286.832 41.5C286.892 41.04 286.936 40.577 286.962 40.11C286.996 39.65 287.012 39.173 287.012 38.68ZM294.092 38.98C294.092 39.593 294.032 40.18 293.912 40.74C293.799 41.307 293.669 41.873 293.522 42.44C293.382 43.007 293.252 43.577 293.132 44.15C293.019 44.73 292.962 45.31 292.962 45.89C292.962 46.123 292.982 46.35 293.022 46.57C293.069 46.783 293.092 47.007 293.092 47.24C293.092 47.82 292.999 48.37 292.812 48.89C292.619 49.41 292.392 49.917 292.132 50.41C291.906 50.843 291.769 51.293 291.722 51.76C291.676 52.227 291.646 52.69 291.632 53.15C291.619 53.617 291.569 54.08 291.482 54.54C291.396 55.007 291.222 55.44 290.962 55.84C290.902 56.133 290.822 56.563 290.722 57.13C290.622 57.69 290.499 58.087 290.352 58.32C290.326 58.38 290.239 58.423 290.092 58.45C289.946 58.483 289.786 58.513 289.612 58.54C289.439 58.567 289.252 58.623 289.052 58.71C288.846 58.797 288.672 58.927 288.532 59.1C288.386 59.247 288.269 59.45 288.182 59.71C288.096 59.97 287.992 60.23 287.872 60.49C287.759 60.757 287.622 60.983 287.462 61.17C287.302 61.357 287.092 61.45 286.832 61.45C286.572 61.45 286.342 61.4 286.142 61.3C285.936 61.2 285.732 61.097 285.532 60.99C285.326 60.89 285.122 60.813 284.922 60.76C284.716 60.7 284.469 60.713 284.182 60.8C284.269 60.86 284.299 60.997 284.272 61.21C284.239 61.43 284.246 61.657 284.292 61.89C284.332 62.117 284.456 62.333 284.662 62.54C284.862 62.74 285.222 62.84 285.742 62.84C286.009 62.84 286.266 62.827 286.512 62.8C286.752 62.767 287.006 62.723 287.272 62.67C287.039 63.303 286.762 63.803 286.442 64.17C286.122 64.53 285.769 64.847 285.382 65.12C284.989 65.4 284.582 65.677 284.162 65.95C283.742 66.223 283.329 66.577 282.922 67.01C282.429 67.503 281.959 67.81 281.512 67.93C281.059 68.043 280.529 68.187 279.922 68.36C279.229 68.56 278.736 68.807 278.442 69.1C278.156 69.387 277.839 69.66 277.492 69.92C277.146 70.187 276.676 70.413 276.082 70.6C275.482 70.787 274.546 70.88 273.272 70.88C272.112 70.88 270.962 70.837 269.822 70.75C268.676 70.663 267.539 70.547 266.412 70.4C265.886 70.347 265.456 70.253 265.122 70.12C264.789 69.987 264.479 69.843 264.192 69.69C263.906 69.53 263.616 69.363 263.322 69.19C263.036 69.017 262.672 68.84 262.232 68.66C262.006 68.573 261.732 68.467 261.412 68.34C261.092 68.207 260.759 68.07 260.412 67.93C260.066 67.783 259.746 67.63 259.452 67.47C259.166 67.31 258.936 67.157 258.762 67.01C258.556 66.837 258.419 66.643 258.352 66.43C258.279 66.21 258.212 65.977 258.152 65.73C258.092 65.483 258.026 65.253 257.952 65.04C257.886 64.82 257.749 64.637 257.542 64.49C257.109 64.437 256.689 64.357 256.282 64.25C255.876 64.15 255.469 64.027 255.062 63.88C254.949 63.567 254.842 63.257 254.742 62.95C254.642 62.643 254.532 62.333 254.412 62.02C254.039 61.613 253.679 61.27 253.332 60.99C252.979 60.717 252.672 60.437 252.412 60.15C252.152 59.857 251.929 59.517 251.742 59.13C251.556 58.737 251.432 58.22 251.372 57.58C251.286 56.827 251.112 56.097 250.852 55.39C250.592 54.677 250.322 53.973 250.042 53.28C249.769 52.587 249.526 51.877 249.312 51.15C249.092 50.423 248.982 49.687 248.982 48.94C248.982 48.153 249.142 47.353 249.462 46.54C248.622 45.353 248.099 44.06 247.892 42.66C247.692 41.253 247.592 39.84 247.592 38.42C247.592 37.953 247.599 37.497 247.612 37.05C247.626 36.603 247.632 36.16 247.632 35.72C247.632 35.233 247.526 34.85 247.312 34.57C247.092 34.297 246.982 33.957 246.982 33.55C246.982 32.917 247.076 32.293 247.262 31.68C247.456 31.073 247.579 30.45 247.632 29.81C247.259 29.757 247.012 29.613 246.892 29.38L246.982 29.21C247.189 28.857 247.356 28.537 247.482 28.25C247.616 27.957 247.709 27.68 247.762 27.42C247.822 27.16 247.882 26.887 247.942 26.6C247.996 26.307 248.066 25.973 248.152 25.6C248.386 24.413 248.686 23.253 249.052 22.12C249.412 20.993 249.766 19.85 250.112 18.69C250.486 17.357 250.949 16.183 251.502 15.17C252.056 14.157 252.909 13.213 254.062 12.34C254.556 11.94 255.006 11.507 255.412 11.04C255.819 10.58 256.109 10.03 256.282 9.39C256.429 9.277 256.589 9.203 256.762 9.17C256.936 9.143 257.109 9.13 257.282 9.13H257.632C257.832 9.13 258.026 9.107 258.212 9.06C258.406 9.02 258.589 8.927 258.762 8.78C259.196 8.373 259.579 8.083 259.912 7.91C260.246 7.737 260.702 7.64999 261.282 7.64999C261.689 7.64999 262.079 7.68699 262.452 7.75999C262.832 7.83299 263.226 7.913 263.632 8C263.772 7.853 263.982 7.657 264.262 7.41C264.536 7.163 264.772 6.997 264.972 6.91V7.03999C264.972 7.15999 264.996 7.27 265.042 7.37C265.082 7.47 265.176 7.52 265.322 7.52C265.696 7.52 266.059 7.43299 266.412 7.25999C266.759 7.08699 267.119 6.97 267.492 6.91C268.332 6.763 269.172 6.54001 270.012 6.24001C270.852 5.93301 271.709 5.78 272.582 5.78C273.509 5.78 274.499 5.84001 275.552 5.96001C276.612 6.07301 277.649 6.29 278.662 6.61C279.676 6.93 280.619 7.36999 281.492 7.92999C282.359 8.49699 283.052 9.23 283.572 10.13C283.806 10.537 284.039 10.847 284.272 11.06C284.499 11.28 284.729 11.47 284.962 11.63C285.196 11.79 285.429 11.95 285.662 12.11C285.896 12.263 286.142 12.487 286.402 12.78C286.949 13.413 287.389 14.1 287.722 14.84C288.056 15.58 288.526 16.24 289.132 16.82C289.886 17.513 290.446 18.353 290.812 19.34C291.172 20.327 291.352 21.327 291.352 22.34C291.352 22.66 291.309 22.98 291.222 23.3C291.136 23.613 291.092 23.943 291.092 24.29C291.092 24.583 291.159 24.89 291.292 25.21C291.419 25.53 291.569 25.863 291.742 26.21C291.916 26.557 292.076 26.917 292.222 27.29C292.369 27.67 292.469 28.033 292.522 28.38C292.609 29.16 292.742 29.92 292.922 30.66C293.096 31.4 293.269 32.16 293.442 32.94C293.669 33.927 293.842 34.927 293.962 35.94C294.076 36.953 294.119 37.967 294.092 38.98Z"/>
    <path id="tw-h" fill="black" d="M240.263 65.788C240.263 66.221 240.053 66.581 239.633 66.868C239.213 67.161 238.676 67.395 238.023 67.568C237.37 67.741 236.653 67.878 235.873 67.978C235.093 68.078 234.32 68.151 233.553 68.198C232.786 68.238 232.09 68.258 231.463 68.258C230.843 68.258 230.373 68.258 230.053 68.258C229.3 68.258 228.62 68.345 228.013 68.518C227.4 68.691 226.826 68.881 226.293 69.088C225.76 69.288 225.26 69.475 224.793 69.648C224.326 69.821 223.863 69.908 223.403 69.908C222.996 69.908 222.656 69.778 222.383 69.518C222.11 69.258 221.77 69.128 221.363 69.128C220.896 69.128 220.46 69.028 220.053 68.828C219.646 68.621 219.286 68.351 218.973 68.018C218.653 67.685 218.4 67.301 218.213 66.868C218.02 66.435 217.923 66.001 217.923 65.568C217.923 65.015 218.063 64.551 218.343 64.178C218.616 63.798 218.97 63.485 219.403 63.238C219.836 62.991 220.306 62.818 220.813 62.718C221.32 62.618 221.806 62.568 222.273 62.568C222.68 62.568 223.07 62.618 223.443 62.718C223.823 62.818 224.173 63.001 224.493 63.268C224.52 62.828 224.633 62.458 224.833 62.158C225.04 61.851 225.26 61.561 225.493 61.288C225.72 61.015 225.93 60.718 226.123 60.398C226.31 60.078 226.403 59.685 226.403 59.218C226.403 58.465 226.36 57.705 226.273 56.938C226.186 56.171 226.143 55.411 226.143 54.658C226.143 54.165 226.193 53.671 226.293 53.178C226.393 52.691 226.443 52.185 226.443 51.658C226.443 51.078 226.406 50.485 226.333 49.878C226.26 49.271 226.223 48.665 226.223 48.058C226.223 47.478 226.31 46.998 226.483 46.618C226.663 46.245 226.753 45.898 226.753 45.578C226.753 44.971 226.65 44.355 226.443 43.728C226.243 43.108 225.97 42.545 225.623 42.038C225.27 41.531 224.863 41.095 224.403 40.728C223.936 40.368 223.456 40.145 222.963 40.058C221.516 39.798 220.07 39.668 218.623 39.668C218.216 39.668 217.84 39.731 217.493 39.858C217.146 39.991 216.87 40.058 216.663 40.058C216.49 40.058 216.29 39.991 216.063 39.858C215.83 39.731 215.67 39.668 215.583 39.668C215.203 39.668 214.82 39.731 214.433 39.858C214.04 39.991 213.64 40.131 213.233 40.278C212.826 40.418 212.42 40.555 212.013 40.688C211.613 40.821 211.223 40.888 210.843 40.888C210.203 40.888 209.543 40.895 208.863 40.908C208.183 40.921 207.516 40.978 206.863 41.078C206.216 41.178 205.596 41.368 205.003 41.648C204.403 41.921 203.873 42.318 203.413 42.838V43.148C203.413 43.721 203.426 44.278 203.453 44.818C203.486 45.351 203.503 45.908 203.503 46.488C203.503 47.155 203.46 47.778 203.373 48.358C203.286 48.938 203.083 49.531 202.763 50.138C202.676 50.371 202.633 50.575 202.633 50.748C202.633 51.215 202.72 51.658 202.893 52.078C203.066 52.498 203.153 52.938 203.153 53.398C203.153 53.605 203.08 53.821 202.933 54.048C202.786 54.281 202.713 54.528 202.713 54.788C202.713 55.195 202.78 55.588 202.913 55.968C203.046 56.341 203.2 56.725 203.373 57.118C203.546 57.505 203.703 57.888 203.843 58.268C203.99 58.641 204.093 59.031 204.153 59.438C204.24 60.278 204.536 60.908 205.043 61.328C205.55 61.748 206.136 62.081 206.803 62.328C207.47 62.575 208.173 62.801 208.913 63.008C209.646 63.208 210.29 63.495 210.843 63.868C210.783 64.161 210.753 64.381 210.753 64.528C210.753 65.015 210.84 65.478 211.013 65.918C211.186 66.351 211.273 66.815 211.273 67.308C211.273 67.801 211.093 68.191 210.733 68.478C210.373 68.771 209.933 68.981 209.413 69.108C208.886 69.241 208.356 69.321 207.823 69.348C207.29 69.375 206.846 69.388 206.493 69.388C206.44 69.388 206.326 69.368 206.153 69.328C205.98 69.281 205.796 69.221 205.603 69.148C205.416 69.081 205.236 69.018 205.063 68.958C204.89 68.898 204.76 68.855 204.673 68.828C203.053 69.148 201.403 69.351 199.723 69.438C198.036 69.525 196.37 69.568 194.723 69.568C194.29 69.568 193.723 69.531 193.023 69.458C192.33 69.385 191.643 69.238 190.963 69.018C190.283 68.805 189.703 68.501 189.223 68.108C188.743 67.715 188.503 67.201 188.503 66.568C188.503 66.275 188.546 65.935 188.633 65.548C188.72 65.155 188.85 64.771 189.023 64.398C189.203 64.018 189.406 63.668 189.633 63.348C189.866 63.028 190.13 62.798 190.423 62.658C191.056 62.365 191.773 62.138 192.573 61.978C193.366 61.818 194.12 61.558 194.833 61.198C195.54 60.838 196.14 60.281 196.633 59.528C197.126 58.775 197.373 57.645 197.373 56.138C197.373 55.385 197.343 54.645 197.283 53.918C197.223 53.198 197.193 52.461 197.193 51.708C197.193 51.301 197.21 50.888 197.243 50.468C197.27 50.048 197.283 49.635 197.283 49.228C197.283 47.981 197.22 46.741 197.093 45.508C196.96 44.281 196.893 43.045 196.893 41.798C196.893 41.278 196.936 40.748 197.023 40.208C197.11 39.675 197.153 39.161 197.153 38.668C197.153 37.941 197.053 37.231 196.853 36.538C196.646 35.845 196.543 35.148 196.543 34.448C196.543 34.308 196.56 34.208 196.593 34.148C196.706 34.001 196.806 33.705 196.893 33.258C196.98 32.811 197.06 32.325 197.133 31.798C197.206 31.278 197.263 30.788 197.303 30.328C197.35 29.861 197.373 29.511 197.373 29.278C197.373 28.585 197.306 27.898 197.173 27.218C197.046 26.538 196.983 25.848 196.983 25.148C196.983 24.748 197.02 24.338 197.093 23.918C197.16 23.498 197.193 23.085 197.193 22.678C197.193 22.505 197.166 22.395 197.113 22.348C197.053 22.308 196.98 22.271 196.893 22.238C196.806 22.211 196.733 22.161 196.673 22.088C196.62 22.015 196.593 21.848 196.593 21.588C196.593 21.355 196.723 21.058 196.983 20.698C197.243 20.338 197.373 19.998 197.373 19.678C197.373 19.418 197.286 19.048 197.113 18.568C196.94 18.088 196.713 17.601 196.433 17.108C196.16 16.621 195.873 16.175 195.573 15.768C195.266 15.361 194.983 15.085 194.723 14.938C194.17 14.678 193.54 14.485 192.833 14.358C192.12 14.225 191.446 14.048 190.813 13.828C190.173 13.615 189.636 13.291 189.203 12.858C188.77 12.418 188.553 11.765 188.553 10.898C188.553 10.118 188.77 9.475 189.203 8.968C189.636 8.461 190.18 8.048 190.833 7.728C191.486 7.408 192.19 7.181 192.943 7.048C193.696 6.921 194.376 6.858 194.983 6.858C195.416 6.858 195.9 6.878 196.433 6.918C196.973 6.965 197.51 7.045 198.043 7.158C198.583 7.278 199.106 7.418 199.613 7.578C200.12 7.731 200.56 7.911 200.933 8.118C201.633 7.885 202.343 7.695 203.063 7.548C203.79 7.408 204.53 7.338 205.283 7.338C205.716 7.338 206.186 7.381 206.693 7.468C207.2 7.555 207.663 7.72801 208.083 7.98801C208.503 8.24801 208.85 8.601 209.123 9.048C209.403 9.501 209.543 10.088 209.543 10.808C209.543 11.128 209.5 11.381 209.413 11.568C209.326 11.761 209.18 11.858 208.973 11.858C208.193 11.858 207.403 12.038 206.603 12.398C205.81 12.758 205.08 13.245 204.413 13.858C203.746 14.465 203.203 15.151 202.783 15.918C202.363 16.685 202.153 17.458 202.153 18.238C202.153 18.618 202.196 18.981 202.283 19.328C202.543 20.228 202.76 21.111 202.933 21.978C203.106 22.851 203.193 23.751 203.193 24.678C203.193 25.458 203.136 26.231 203.023 26.998C202.903 27.765 202.843 28.541 202.843 29.328C202.843 30.341 203.083 31.158 203.563 31.778C204.043 32.405 204.66 32.891 205.413 33.238C206.166 33.585 206.983 33.815 207.863 33.928C208.75 34.048 209.613 34.108 210.453 34.108C211.293 34.108 212.133 34.071 212.973 33.998C213.813 33.925 214.666 33.888 215.533 33.888C216.406 33.888 217.263 33.995 218.103 34.208C218.943 34.428 219.796 34.538 220.663 34.538C220.983 34.538 221.303 34.518 221.623 34.478C221.943 34.431 222.216 34.335 222.443 34.188C222.53 34.135 222.67 34.035 222.863 33.888C223.05 33.741 223.25 33.605 223.463 33.478C223.683 33.345 223.886 33.221 224.073 33.108C224.266 32.988 224.406 32.928 224.493 32.928C224.98 32.841 225.356 32.551 225.623 32.058C225.883 31.565 226.076 31.008 226.203 30.388C226.336 29.768 226.416 29.131 226.443 28.478C226.47 27.825 226.483 27.295 226.483 26.888C226.483 26.428 226.413 25.981 226.273 25.548C226.126 25.108 225.96 24.678 225.773 24.258C225.586 23.838 225.42 23.411 225.273 22.978C225.126 22.545 225.053 22.081 225.053 21.588C225.053 21.008 225.103 20.421 225.203 19.828C225.31 19.235 225.363 18.648 225.363 18.068C225.363 16.855 225.136 15.941 224.683 15.328C224.236 14.721 223.68 14.275 223.013 13.988C222.346 13.695 221.613 13.505 220.813 13.418C220.02 13.331 219.29 13.195 218.623 13.008C217.956 12.821 217.4 12.525 216.953 12.118C216.5 11.711 216.273 11.045 216.273 10.118C216.273 9.511 216.403 9.03099 216.663 8.67799C216.923 8.33099 217.263 8.06501 217.683 7.87801C218.11 7.69101 218.566 7.568 219.053 7.508C219.546 7.448 220.026 7.418 220.493 7.418C221.42 7.418 222.323 7.47801 223.203 7.59801C224.09 7.71101 224.996 7.76801 225.923 7.76801C226.79 7.76801 227.746 7.681 228.793 7.508C229.833 7.335 230.89 7.248 231.963 7.248C232.543 7.248 233.223 7.285 234.003 7.358C234.79 7.431 235.543 7.581 236.263 7.808C236.99 8.041 237.6 8.391 238.093 8.858C238.586 9.318 238.833 9.95501 238.833 10.768C238.833 11.321 238.686 11.765 238.393 12.098C238.106 12.425 237.746 12.711 237.313 12.958C236.873 13.205 236.38 13.415 235.833 13.588C235.28 13.768 234.743 13.951 234.223 14.138C233.703 14.325 233.226 14.541 232.793 14.788C232.353 15.035 232.033 15.361 231.833 15.768C231.633 16.115 231.51 16.505 231.463 16.938C231.423 17.371 231.403 17.791 231.403 18.198C231.403 18.951 231.436 19.691 231.503 20.418C231.576 21.138 231.613 21.875 231.613 22.628C231.613 25.235 231.526 27.821 231.353 30.388C231.18 32.955 231.093 35.525 231.093 38.098C231.093 38.998 231.1 39.891 231.113 40.778C231.126 41.658 231.18 42.548 231.273 43.448C231.326 44.288 231.483 45.105 231.743 45.898C232.003 46.698 232.133 47.518 232.133 48.358C232.133 48.765 232.09 49.085 232.003 49.318C231.916 49.545 231.823 49.745 231.723 49.918C231.623 50.098 231.53 50.258 231.443 50.398C231.356 50.545 231.313 50.705 231.313 50.878C231.313 51.371 231.43 51.848 231.663 52.308C231.89 52.775 232.003 53.255 232.003 53.748C232.003 54.381 231.94 55.018 231.813 55.658C231.68 56.298 231.613 56.935 231.613 57.568C231.613 57.628 231.663 57.855 231.763 58.248C231.87 58.635 231.986 59.061 232.113 59.528C232.246 59.988 232.386 60.421 232.533 60.828C232.673 61.235 232.786 61.481 232.873 61.568C233.22 61.915 233.64 62.175 234.133 62.348C234.626 62.521 235.15 62.675 235.703 62.808C236.25 62.941 236.793 63.078 237.333 63.218C237.866 63.365 238.336 63.581 238.743 63.868C239.03 64.075 239.356 64.345 239.723 64.678C240.083 65.011 240.263 65.381 240.263 65.788Z"/>
    <path id="tw-m" fill="black" d="M156.135 66.178C156.135 66.378 156.099 66.688 156.025 67.108C155.952 67.528 155.835 67.948 155.675 68.368C155.522 68.788 155.342 69.158 155.135 69.478C154.935 69.798 154.705 69.958 154.445 69.958C154.125 69.958 153.805 69.891 153.485 69.758C153.165 69.631 152.845 69.568 152.525 69.568C151.512 69.568 150.512 69.661 149.525 69.848C148.545 70.035 147.549 70.128 146.535 70.128C146.042 70.128 145.579 70.065 145.145 69.938C144.705 69.805 144.275 69.665 143.855 69.518C143.435 69.378 143.009 69.235 142.575 69.088C142.142 68.941 141.692 68.838 141.225 68.778C140.532 68.725 140.005 68.451 139.645 67.958C139.285 67.465 139.105 66.885 139.105 66.218C139.105 65.438 139.315 64.778 139.735 64.238C140.155 63.705 140.625 63.141 141.145 62.548C141.665 61.955 142.135 61.238 142.555 60.398C142.975 59.558 143.185 58.428 143.185 57.008C143.185 54.168 143.062 51.351 142.815 48.558C142.569 45.758 142.445 42.938 142.445 40.098V38.798C142.445 38.191 142.415 37.568 142.355 36.928C142.302 36.288 142.159 35.715 141.925 35.208C141.692 34.701 141.359 34.291 140.925 33.978C140.492 33.658 139.885 33.498 139.105 33.498C138.439 33.905 137.799 34.345 137.185 34.818C136.579 35.298 136.045 35.858 135.585 36.498C135.379 36.785 135.159 37.261 134.925 37.928C134.699 38.595 134.482 39.361 134.275 40.228C134.075 41.101 133.879 42.028 133.685 43.008C133.499 43.995 133.335 44.938 133.195 45.838C133.049 46.738 132.932 47.565 132.845 48.318C132.759 49.071 132.715 49.635 132.715 50.008C132.715 51.108 132.795 52.218 132.955 53.338C133.115 54.451 133.195 55.558 133.195 56.658C133.195 57.238 133.142 57.795 133.035 58.328C132.935 58.868 132.885 59.428 132.885 60.008C132.885 60.235 132.899 60.465 132.925 60.698C132.959 60.931 133.049 61.165 133.195 61.398C133.509 61.571 133.892 61.788 134.345 62.048C134.792 62.308 135.212 62.605 135.605 62.938C135.992 63.271 136.325 63.625 136.605 63.998C136.879 64.378 137.015 64.771 137.015 65.178C137.015 66.018 136.712 66.698 136.105 67.218C135.492 67.738 134.782 67.998 133.975 67.998C133.769 67.998 133.579 67.985 133.405 67.958C133.232 67.931 133.045 67.918 132.845 67.918C132.552 67.918 132.269 67.968 131.995 68.068C131.722 68.168 131.439 68.285 131.145 68.418C130.859 68.545 130.562 68.658 130.255 68.758C129.955 68.865 129.629 68.918 129.275 68.918C128.382 68.918 127.515 68.801 126.675 68.568C125.835 68.335 124.965 68.218 124.065 68.218C123.805 68.218 123.572 68.108 123.365 67.888C123.165 67.675 122.999 67.421 122.865 67.128C122.739 66.841 122.645 66.538 122.585 66.218C122.525 65.898 122.495 65.638 122.495 65.438C122.495 64.918 122.605 64.518 122.825 64.238C123.045 63.965 123.312 63.728 123.625 63.528C123.945 63.321 124.302 63.111 124.695 62.898C125.089 62.678 125.442 62.381 125.755 62.008C126.075 61.628 126.345 61.111 126.565 60.458C126.779 59.811 126.885 58.951 126.885 57.878C126.885 57.445 126.829 57.025 126.715 56.618C126.602 56.211 126.479 55.805 126.345 55.398C126.212 54.991 126.095 54.585 125.995 54.178C125.895 53.771 125.845 53.351 125.845 52.918C125.845 52.165 125.932 51.411 126.105 50.658C126.279 49.905 126.365 49.151 126.365 48.398C126.365 47.851 126.265 47.331 126.065 46.838C125.859 46.345 125.755 45.838 125.755 45.318C125.755 44.938 125.865 44.605 126.085 44.318C126.305 44.025 126.415 43.691 126.415 43.318C126.415 43.205 126.385 42.988 126.325 42.668C126.265 42.348 126.199 41.978 126.125 41.558C126.052 41.138 125.989 40.695 125.935 40.228C125.875 39.768 125.845 39.335 125.845 38.928C125.845 38.408 125.912 37.888 126.045 37.368C126.172 36.841 126.235 36.318 126.235 35.798C126.235 35.478 126.155 35.181 125.995 34.908C125.835 34.635 125.625 34.388 125.365 34.168C125.105 33.955 124.815 33.788 124.495 33.668C124.182 33.555 123.879 33.498 123.585 33.498C123.092 33.498 122.615 33.591 122.155 33.778C121.689 33.965 121.252 34.205 120.845 34.498C120.439 34.785 120.049 35.101 119.675 35.448C119.295 35.795 118.932 36.128 118.585 36.448C118.499 36.708 118.419 36.985 118.345 37.278C118.279 37.565 118.172 37.825 118.025 38.058C117.905 38.231 117.725 38.378 117.485 38.498C117.239 38.611 116.992 38.725 116.745 38.838C116.499 38.958 116.279 39.081 116.085 39.208C115.899 39.341 115.805 39.538 115.805 39.798C115.805 40.031 115.885 40.218 116.045 40.358C116.205 40.505 116.372 40.608 116.545 40.668C116.839 41.301 116.985 41.895 116.985 42.448C116.985 42.941 116.932 43.418 116.825 43.878C116.725 44.345 116.612 44.801 116.485 45.248C116.352 45.701 116.235 46.165 116.135 46.638C116.035 47.118 115.985 47.591 115.985 48.058L116.025 52.398C116.025 52.805 116.075 53.075 116.175 53.208C116.275 53.335 116.392 53.435 116.525 53.508C116.652 53.581 116.782 53.691 116.915 53.838C117.049 53.978 117.159 54.281 117.245 54.748C117.332 55.328 117.412 55.915 117.485 56.508C117.552 57.101 117.585 57.688 117.585 58.268C117.585 58.875 117.529 59.475 117.415 60.068C117.302 60.661 117.245 61.265 117.245 61.878C117.245 62.511 117.339 62.981 117.525 63.288C117.712 63.588 117.952 63.805 118.245 63.938C118.532 64.071 118.835 64.158 119.155 64.198C119.475 64.245 119.779 64.325 120.065 64.438C120.359 64.551 120.599 64.755 120.785 65.048C120.972 65.335 121.065 65.798 121.065 66.438C121.065 67.018 120.905 67.488 120.585 67.848C120.265 68.208 119.832 68.461 119.285 68.608C117.459 69.101 115.562 69.491 113.595 69.778C111.622 70.071 109.695 70.218 107.815 70.218C107.235 70.218 106.742 70.195 106.335 70.148C105.929 70.108 105.602 69.995 105.355 69.808C105.109 69.615 104.929 69.318 104.815 68.918C104.695 68.511 104.635 67.931 104.635 67.178C104.635 66.511 104.905 65.908 105.445 65.368C105.979 64.835 106.559 64.321 107.185 63.828C107.805 63.335 108.382 62.835 108.915 62.328C109.455 61.821 109.725 61.265 109.725 60.658C109.725 60.398 109.719 60.158 109.705 59.938C109.685 59.725 109.675 59.528 109.675 59.348C109.675 59.088 109.712 58.828 109.785 58.568C109.859 58.308 110.012 58.018 110.245 57.698C110.245 57.065 110.179 56.428 110.045 55.788C109.919 55.155 109.782 54.525 109.635 53.898C109.489 53.278 109.352 52.655 109.225 52.028C109.092 51.408 109.025 50.765 109.025 50.098C109.025 48.738 109.149 47.405 109.395 46.098C109.642 44.791 109.765 43.458 109.765 42.098C109.765 41.345 109.745 40.608 109.705 39.888C109.659 39.161 109.605 38.421 109.545 37.668C109.459 36.801 109.359 36.098 109.245 35.558C109.132 35.025 108.952 34.568 108.705 34.188C108.459 33.815 108.109 33.491 107.655 33.218C107.209 32.938 106.579 32.611 105.765 32.238C105.305 32.005 104.895 31.698 104.535 31.318C104.169 30.945 103.985 30.481 103.985 29.928C103.985 29.321 104.122 28.895 104.395 28.648C104.675 28.401 104.995 28.215 105.355 28.088C105.715 27.955 106.072 27.831 106.425 27.718C106.772 27.598 107.015 27.365 107.155 27.018C107.275 26.758 107.385 26.608 107.485 26.568C107.585 26.521 107.782 26.498 108.075 26.498C108.855 26.498 109.609 26.621 110.335 26.868C111.055 27.115 111.749 27.375 112.415 27.648C113.082 27.928 113.729 28.191 114.355 28.438C114.975 28.678 115.575 28.798 116.155 28.798C116.762 28.798 117.405 28.605 118.085 28.218C118.765 27.825 119.512 27.398 120.325 26.938C121.139 26.471 122.045 26.041 123.045 25.648C124.045 25.261 125.182 25.068 126.455 25.068C126.949 25.068 127.455 25.181 127.975 25.408C128.495 25.641 129.002 25.931 129.495 26.278C129.989 26.631 130.445 27.008 130.865 27.408C131.285 27.815 131.639 28.208 131.925 28.588C132.625 27.921 133.439 27.341 134.365 26.848C135.292 26.355 136.262 25.948 137.275 25.628C138.289 25.308 139.319 25.078 140.365 24.938C141.405 24.791 142.402 24.718 143.355 24.718C144.082 24.718 144.735 24.915 145.315 25.308C145.895 25.695 146.409 26.215 146.855 26.868C147.309 27.521 147.702 28.255 148.035 29.068C148.369 29.875 148.672 30.685 148.945 31.498C149.219 32.311 149.459 33.101 149.665 33.868C149.865 34.635 150.052 35.278 150.225 35.798C150.285 35.945 150.329 36.091 150.355 36.238C150.382 36.378 150.395 36.535 150.395 36.708C150.395 37.115 150.339 37.508 150.225 37.888C150.112 38.261 149.989 38.631 149.855 38.998C149.729 39.358 149.605 39.725 149.485 40.098C149.372 40.478 149.315 40.871 149.315 41.278C149.315 41.685 149.395 42.075 149.555 42.448C149.715 42.821 149.795 43.211 149.795 43.618C149.795 44.058 149.705 44.471 149.525 44.858C149.352 45.251 149.265 45.665 149.265 46.098C149.265 46.678 149.375 47.228 149.595 47.748C149.815 48.268 149.925 48.818 149.925 49.398C149.925 49.831 149.859 50.245 149.725 50.638C149.592 51.031 149.449 51.431 149.295 51.838C149.135 52.245 148.989 52.641 148.855 53.028C148.729 53.421 148.665 53.835 148.665 54.268C148.665 54.415 148.679 54.551 148.705 54.678C148.732 54.811 148.775 54.951 148.835 55.098L150.525 59.348C150.792 59.961 151.229 60.541 151.835 61.088C152.442 61.641 153.065 62.178 153.705 62.698C154.339 63.218 154.902 63.761 155.395 64.328C155.889 64.895 156.135 65.511 156.135 66.178Z"/>
    <path id="tw-o" fill="black" d="M91.867 49.528C91.867 49.068 91.693 48.788 91.347 48.688C91 48.581 90.607 48.515 90.167 48.488C89.733 48.461 89.307 48.418 88.887 48.358C88.467 48.298 88.183 48.081 88.037 47.708V47.268C88.037 46.635 87.96 45.891 87.807 45.038C87.647 44.178 87.45 43.308 87.217 42.428C86.983 41.541 86.737 40.671 86.477 39.818C86.217 38.965 85.97 38.205 85.737 37.538C85.503 36.871 85.317 36.335 85.177 35.928C85.03 35.521 84.957 35.318 84.957 35.318C84.723 35.378 84.533 35.408 84.387 35.408C83.9 35.408 83.473 35.308 83.107 35.108C82.747 34.901 82.343 34.681 81.897 34.448C81.443 34.221 80.89 34.005 80.237 33.798C79.59 33.598 78.73 33.498 77.657 33.498C76.47 33.498 75.297 33.418 74.137 33.258C72.977 33.098 71.803 33.018 70.617 33.018C68.99 33.018 67.47 33.388 66.057 34.128C64.637 34.868 63.39 35.838 62.317 37.038C61.243 38.238 60.403 39.591 59.797 41.098C59.183 42.605 58.877 44.128 58.877 45.668C58.877 46.301 58.893 47.045 58.927 47.898C58.953 48.758 59.027 49.615 59.147 50.468C59.26 51.321 59.447 52.118 59.707 52.858C59.967 53.598 60.33 54.155 60.797 54.528V55.748C60.91 55.861 61.06 55.925 61.247 55.938C61.44 55.958 61.63 55.968 61.817 55.968C62.003 55.968 62.17 55.988 62.317 56.028C62.463 56.075 62.58 56.198 62.667 56.398C63.04 57.471 63.53 58.291 64.137 58.858C64.75 59.418 65.403 59.895 66.097 60.288C66.79 60.681 67.483 61.071 68.177 61.458C68.877 61.851 69.517 62.425 70.097 63.178C70.323 63.151 70.57 63.128 70.837 63.108C71.097 63.095 71.34 63.088 71.567 63.088C72.493 63.088 73.4 63.155 74.287 63.288C75.173 63.415 76.063 63.478 76.957 63.478C77.917 63.478 78.78 63.231 79.547 62.738C80.313 62.251 80.973 61.631 81.527 60.878C81.873 60.385 82.19 59.965 82.477 59.618C82.77 59.265 83.067 58.938 83.367 58.638C83.673 58.331 84.007 58.041 84.367 57.768C84.733 57.495 85.16 57.181 85.647 56.828C85.82 56.715 86.03 56.571 86.277 56.398C86.523 56.225 86.77 56.028 87.017 55.808C87.263 55.595 87.473 55.378 87.647 55.158C87.82 54.945 87.907 54.735 87.907 54.528C87.907 54.268 87.873 54.008 87.807 53.748C87.733 53.488 87.697 53.228 87.697 52.968C87.697 52.675 87.74 52.325 87.827 51.918C87.913 51.518 88.05 51.128 88.237 50.748C88.423 50.375 88.657 50.065 88.937 49.818C89.21 49.571 89.55 49.448 89.957 49.448C90.27 49.448 90.587 49.518 90.907 49.658C91.227 49.805 91.517 49.981 91.777 50.188C91.837 49.895 91.867 49.675 91.867 49.528ZM96.207 49.188C96.207 49.588 96.143 49.971 96.017 50.338C95.883 50.698 95.737 51.008 95.577 51.268C95.423 51.528 95.28 51.745 95.147 51.918C95.013 52.091 94.947 52.195 94.947 52.228C94.947 52.515 95.043 52.818 95.237 53.138C95.423 53.458 95.517 53.805 95.517 54.178C95.517 54.351 95.45 54.468 95.317 54.528C95.19 54.588 95.053 54.618 94.907 54.618C94.647 54.618 94.43 54.588 94.257 54.528C94.283 55.081 94.333 55.618 94.407 56.138C94.48 56.658 94.517 57.195 94.517 57.748C94.517 58.588 94.437 59.131 94.277 59.378C94.117 59.625 93.95 59.775 93.777 59.828C93.603 59.888 93.437 59.955 93.277 60.028C93.117 60.101 93.037 60.368 93.037 60.828C93.037 61.088 92.857 61.421 92.497 61.828C92.137 62.235 91.7 62.641 91.187 63.048C90.68 63.455 90.16 63.801 89.627 64.088C89.093 64.381 88.667 64.528 88.347 64.528C88.26 64.528 88.157 64.498 88.037 64.438C88.037 64.671 88.053 64.918 88.087 65.178C88.113 65.438 88.127 65.685 88.127 65.918C88.127 66.291 88.01 66.545 87.777 66.678C87.55 66.805 87.29 66.928 86.997 67.048C86.563 67.248 86.113 67.545 85.647 67.938C85.187 68.325 84.71 68.721 84.217 69.128C83.723 69.535 83.223 69.891 82.717 70.198C82.21 70.498 81.68 70.648 81.127 70.648C80.667 70.648 80.24 70.535 79.847 70.308C79.46 70.075 79.003 69.958 78.477 69.958C78.017 69.958 77.627 70.021 77.307 70.148C76.987 70.281 76.69 70.428 76.417 70.588C76.143 70.748 75.86 70.891 75.567 71.018C75.28 71.151 74.947 71.218 74.567 71.218C73.813 71.218 73.06 71.021 72.307 70.628C71.553 70.241 70.83 69.931 70.137 69.698C69.73 69.551 69.297 69.441 68.837 69.368C68.37 69.295 67.92 69.215 67.487 69.128C67.053 69.041 66.64 68.905 66.247 68.718C65.853 68.531 65.513 68.265 65.227 67.918C64.62 67.165 63.91 66.541 63.097 66.048C62.283 65.555 61.457 65.091 60.617 64.658C59.777 64.218 58.967 63.761 58.187 63.288C57.407 62.808 56.727 62.178 56.147 61.398C55.707 60.785 55.213 60.125 54.667 59.418C54.113 58.711 53.6 57.965 53.127 57.178C52.647 56.398 52.247 55.601 51.927 54.788C51.607 53.975 51.447 53.178 51.447 52.398C51.447 51.818 51.507 51.255 51.627 50.708C51.74 50.155 51.863 49.595 51.997 49.028C52.123 48.468 52.247 47.911 52.367 47.358C52.48 46.805 52.537 46.241 52.537 45.668V45.188C52.537 45.068 52.493 44.938 52.407 44.798C52.32 44.651 52.227 44.511 52.127 44.378C52.02 44.251 51.917 44.138 51.817 44.038C51.717 43.931 51.653 43.878 51.627 43.878C51.567 43.878 51.537 43.895 51.537 43.928C51.563 43.668 51.643 43.268 51.777 42.728C51.903 42.195 52.057 41.645 52.237 41.078C52.41 40.511 52.583 39.991 52.757 39.518C52.93 39.038 53.09 38.725 53.237 38.578C53.41 38.438 53.573 38.288 53.727 38.128C53.887 37.968 53.967 37.758 53.967 37.498C53.967 37.231 53.953 36.978 53.927 36.738C53.9 36.491 53.887 36.235 53.887 35.968C53.887 35.621 53.93 35.411 54.017 35.338C54.103 35.271 54.22 35.238 54.367 35.238C54.507 35.238 54.65 35.215 54.797 35.168C54.943 35.128 55.087 34.975 55.227 34.708C55.493 34.188 55.747 33.705 55.987 33.258C56.233 32.811 56.503 32.398 56.797 32.018C57.083 31.645 57.417 31.298 57.797 30.978C58.17 30.658 58.633 30.351 59.187 30.058C59.647 29.798 60.103 29.481 60.557 29.108C61.003 28.728 61.46 28.351 61.927 27.978C62.387 27.598 62.857 27.278 63.337 27.018C63.817 26.758 64.33 26.628 64.877 26.628C65.663 26.628 66.423 26.491 67.157 26.218C67.897 25.945 68.643 25.735 69.397 25.588C70.583 25.415 71.763 25.248 72.937 25.088C74.11 24.928 75.307 24.848 76.527 24.848C77.193 24.848 78.003 24.958 78.957 25.178C79.917 25.391 80.897 25.671 81.897 26.018C82.89 26.365 83.83 26.758 84.717 27.198C85.603 27.631 86.307 28.065 86.827 28.498V28.628C86.827 29.035 86.753 29.448 86.607 29.868C86.46 30.288 86.387 30.701 86.387 31.108C86.387 31.161 86.387 31.218 86.387 31.278C86.387 31.338 86.417 31.368 86.477 31.368C86.97 31.368 87.44 31.301 87.887 31.168C88.34 31.041 88.81 30.978 89.297 30.978C89.357 31.471 89.577 31.805 89.957 31.978C90.33 32.151 90.707 32.308 91.087 32.448C91.433 32.628 91.757 32.941 92.057 33.388C92.363 33.835 92.647 34.341 92.907 34.908C93.167 35.475 93.42 36.031 93.667 36.578C93.913 37.131 94.153 37.581 94.387 37.928C94.62 38.275 94.83 38.688 95.017 39.168C95.203 39.648 95.363 40.148 95.497 40.668C95.623 41.188 95.717 41.701 95.777 42.208C95.837 42.715 95.867 43.185 95.867 43.618C95.867 44.198 95.757 44.685 95.537 45.078C95.317 45.471 95.077 45.818 94.817 46.118C94.557 46.425 94.32 46.715 94.107 46.988C93.887 47.261 93.777 47.575 93.777 47.928C93.777 48.128 93.82 48.315 93.907 48.488C93.993 48.661 94.11 48.821 94.257 48.968C94.317 48.941 94.44 48.911 94.627 48.878C94.813 48.851 94.907 48.765 94.907 48.618V48.578C94.907 48.345 94.813 48.128 94.627 47.928C94.44 47.721 94.347 47.475 94.347 47.188C94.347 47.128 94.373 47.031 94.427 46.898C94.487 46.771 94.56 46.708 94.647 46.708C94.82 46.708 94.993 46.815 95.167 47.028C95.34 47.248 95.507 47.481 95.667 47.728C95.827 47.975 95.95 48.185 96.037 48.358C96.123 48.531 96.167 48.588 96.167 48.528L96.127 48.488C96.153 48.635 96.173 48.758 96.187 48.858C96.2 48.958 96.207 49.068 96.207 49.188Z"/>
    <path id="tw-t" fill="black" d="M47.93 22.848C47.93 23.368 47.923 23.898 47.91 24.438C47.897 24.971 47.833 25.485 47.72 25.978C47.66 26.238 47.527 26.521 47.32 26.828C47.12 27.128 46.883 27.418 46.61 27.698C46.33 27.971 46.033 28.201 45.72 28.388C45.4 28.575 45.11 28.668 44.85 28.668C44.417 28.668 44.14 28.495 44.02 28.148C43.907 27.801 43.827 27.425 43.78 27.018C43.74 26.611 43.653 26.235 43.52 25.888C43.393 25.541 43.097 25.368 42.63 25.368C42.483 25.368 42.36 25.398 42.26 25.458C42.16 25.518 42.037 25.548 41.89 25.548C41.837 25.548 41.78 25.371 41.72 25.018C41.66 24.671 41.587 24.251 41.5 23.758C41.413 23.265 41.313 22.765 41.2 22.258C41.08 21.751 40.95 21.325 40.81 20.978C40.543 20.431 40.273 19.861 40 19.268C39.727 18.668 39.59 18.038 39.59 17.378C39.59 16.911 39.677 16.511 39.85 16.178C40.023 15.845 40.21 15.535 40.41 15.248C40.617 14.955 40.807 14.665 40.98 14.378C41.153 14.085 41.24 13.735 41.24 13.328C41.24 12.748 41.053 12.241 40.68 11.808C40.3 11.375 39.827 11.021 39.26 10.748C38.7 10.475 38.107 10.271 37.48 10.138C36.86 10.005 36.317 9.938 35.85 9.938C35.07 9.938 34.31 10.035 33.57 10.228C32.83 10.415 32.09 10.638 31.35 10.898C30.617 11.158 29.887 11.435 29.16 11.728C28.433 12.015 27.71 12.258 26.99 12.458C27.13 12.865 27.223 13.285 27.27 13.718C27.31 14.158 27.33 14.595 27.33 15.028C27.33 16.015 27.287 16.991 27.2 17.958C27.113 18.931 27.07 19.911 27.07 20.898C27.07 21.965 27.13 23.028 27.25 24.088C27.363 25.148 27.487 26.198 27.62 27.238C27.747 28.278 27.87 29.328 27.99 30.388C28.103 31.448 28.16 32.498 28.16 33.538C28.16 34.811 27.943 36.058 27.51 37.278C27.423 37.511 27.38 37.698 27.38 37.838C27.38 38.158 27.45 38.471 27.59 38.778C27.737 39.078 27.903 39.395 28.09 39.728C28.283 40.061 28.45 40.405 28.59 40.758C28.737 41.105 28.81 41.465 28.81 41.838C28.81 42.185 28.753 42.518 28.64 42.838C28.52 43.158 28.46 43.478 28.46 43.798C28.46 44.258 28.527 44.705 28.66 45.138C28.793 45.578 28.86 46.028 28.86 46.488C28.86 46.748 28.793 46.908 28.66 46.968C28.527 47.028 28.373 47.058 28.2 47.058C28.027 47.058 27.877 47.065 27.75 47.078C27.617 47.091 27.55 47.171 27.55 47.318C27.55 47.751 27.643 48.165 27.83 48.558C28.023 48.945 28.12 49.355 28.12 49.788C28.12 50.168 28.04 50.525 27.88 50.858C27.72 51.191 27.64 51.545 27.64 51.918C27.64 52.298 27.807 52.631 28.14 52.918C28.473 53.211 28.713 53.561 28.86 53.968C29 54.455 29.12 55.018 29.22 55.658C29.327 56.298 29.53 56.908 29.83 57.488C30.137 58.068 30.61 58.551 31.25 58.938C31.883 59.331 32.823 59.528 34.07 59.528H35.33C35.677 59.528 36.103 59.558 36.61 59.618C37.117 59.671 37.61 59.778 38.09 59.938C38.57 60.098 38.977 60.331 39.31 60.638C39.643 60.938 39.81 61.321 39.81 61.788C39.81 62.248 39.723 62.698 39.55 63.138C39.37 63.571 39.28 64.018 39.28 64.478C39.28 64.625 39.31 64.841 39.37 65.128C38.937 65.128 38.553 65.225 38.22 65.418C37.887 65.605 37.647 65.915 37.5 66.348C36.92 66.235 36.333 66.155 35.74 66.108C35.147 66.068 34.56 66.048 33.98 66.048C32.507 66.048 31.043 66.155 29.59 66.368C28.143 66.588 26.69 66.821 25.23 67.068C23.763 67.315 22.3 67.545 20.84 67.758C19.373 67.978 17.903 68.088 16.43 68.088C15.937 68.088 15.327 68.075 14.6 68.048C13.873 68.015 13.18 67.911 12.52 67.738C11.853 67.565 11.28 67.298 10.8 66.938C10.32 66.571 10.08 66.041 10.08 65.348C10.08 64.541 10.16 63.941 10.32 63.548C10.48 63.155 10.677 62.878 10.91 62.718C11.143 62.558 11.41 62.465 11.71 62.438C12.017 62.411 12.313 62.355 12.6 62.268C12.687 62.181 12.73 62.095 12.73 62.008C12.73 61.861 12.667 61.738 12.54 61.638C12.407 61.531 12.267 61.451 12.12 61.398C12.613 60.965 13.173 60.658 13.8 60.478C14.42 60.305 15.057 60.191 15.71 60.138C16.363 60.078 17.023 60.018 17.69 59.958C18.357 59.905 18.98 59.761 19.56 59.528C19.787 59.441 20.03 59.195 20.29 58.788C20.557 58.381 20.797 57.931 21.01 57.438C21.23 56.945 21.403 56.455 21.53 55.968C21.663 55.475 21.73 55.098 21.73 54.838V54.748C21.523 53.355 21.363 51.991 21.25 50.658C21.137 49.325 21.08 47.965 21.08 46.578C21.08 46.458 21.123 46.261 21.21 45.988C21.297 45.715 21.41 45.431 21.55 45.138C21.67 44.825 21.83 44.465 22.03 44.058C21.797 43.678 21.593 43.328 21.42 43.008C21.28 42.721 21.15 42.448 21.03 42.188C20.917 41.928 20.86 41.725 20.86 41.578C20.86 41.231 20.917 40.898 21.03 40.578C21.15 40.258 21.237 39.941 21.29 39.628C21.463 38.408 21.55 37.175 21.55 35.928C21.55 35.408 21.517 34.895 21.45 34.388C21.377 33.881 21.28 33.381 21.16 32.888C20.787 31.121 20.6 29.295 20.6 27.408C20.6 25.208 20.743 23.021 21.03 20.848C21.323 18.675 21.47 16.488 21.47 14.288C21.47 13.535 21.34 12.948 21.08 12.528C20.82 12.108 20.313 11.781 19.56 11.548C18.54 11.261 17.487 11.031 16.4 10.858C15.32 10.685 14.243 10.598 13.17 10.598C12.357 10.598 11.51 10.691 10.63 10.878C9.743 11.065 8.93 11.368 8.19 11.788C7.45 12.208 6.843 12.758 6.37 13.438C5.89 14.118 5.65 14.938 5.65 15.898C5.65 16.391 5.68 16.868 5.74 17.328C5.793 17.795 5.82 18.275 5.82 18.768C5.82 19.228 5.727 19.625 5.54 19.958C5.353 20.291 5.26 20.618 5.26 20.938C5.26 21.371 5.377 21.778 5.61 22.158C5.837 22.531 5.95 22.935 5.95 23.368C5.95 23.661 5.887 23.981 5.76 24.328C5.627 24.675 5.473 25.028 5.3 25.388C5.127 25.755 4.96 26.111 4.8 26.458C4.64 26.805 4.517 27.121 4.43 27.408C4.29 27.848 4.103 28.225 3.87 28.538C3.637 28.858 3.273 29.018 2.78 29.018C2.373 29.018 1.997 28.881 1.65 28.608C1.303 28.335 1.13 27.995 1.13 27.588C1.13 27.268 1.21 27.015 1.37 26.828C1.53 26.635 1.61 26.408 1.61 26.148C1.61 25.861 1.55 25.565 1.43 25.258C1.317 24.958 1.18 24.655 1.02 24.348C0.859997 24.041 0.722997 23.731 0.609997 23.418C0.489997 23.098 0.43 22.778 0.43 22.458C0.43 22.051 0.496997 21.661 0.629997 21.288C0.762997 20.908 0.829998 20.515 0.829998 20.108C0.829998 19.241 0.69 18.388 0.41 17.548C0.137 16.708 0 15.855 0 14.988C0 14.201 0.0869983 13.271 0.259998 12.198C0.432998 11.131 0.729998 10.105 1.15 9.118C1.57 8.131 2.12 7.298 2.8 6.618C3.48 5.938 4.343 5.59801 5.39 5.59801C6.11 5.59801 6.827 5.678 7.54 5.838C8.247 5.998 8.977 6.078 9.73 6.078C10.57 6.078 11.41 6.005 12.25 5.858C13.09 5.711 13.933 5.638 14.78 5.638C15.353 5.638 15.893 5.731 16.4 5.918C16.913 6.111 17.457 6.20799 18.03 6.20799C18.383 6.20799 18.683 6.128 18.93 5.968C19.17 5.808 19.45 5.728 19.77 5.728C20.117 5.728 20.457 5.808 20.79 5.968C21.123 6.128 21.467 6.20799 21.82 6.20799C22.133 6.20799 22.43 6.165 22.71 6.078C22.983 5.991 23.263 5.948 23.55 5.948C23.99 5.948 24.42 6.005 24.84 6.118C25.26 6.231 25.67 6.28799 26.07 6.28799L31.33 5.638C32.117 5.578 32.9 5.521 33.68 5.468C34.46 5.408 35.257 5.37801 36.07 5.37801C37.463 5.37801 38.847 5.48799 40.22 5.70799C41.593 5.92099 42.977 6.188 44.37 6.508V6.548C45.323 6.781 46.003 7.275 46.41 8.028C46.817 8.781 47.087 9.645 47.22 10.618C47.347 11.585 47.397 12.575 47.37 13.588C47.337 14.608 47.35 15.478 47.41 16.198C47.497 17.298 47.607 18.408 47.74 19.528C47.867 20.641 47.93 21.748 47.93 22.848Z"/>
</svg>