<?xml version="1.0" encoding="UTF-8" standalone="no"?>
<svg id="typewriter-w" height="75" width="360" fill="black" xmlns="http://www.w3.org/2000/svg">
    <!-- <path d="M340.56 34.368C340.18 33.901 339.687 33.445 339.08 32.998C338.474 32.545 337.844 32.145 337.19 31.798C336.537 31.451 335.92 31.178 335.34 30.978C334.76 30.771 334.297 30.668 333.95 30.668C333.89 30.668 333.79 30.748 333.65 30.908C333.504 31.068 333.337 31.258 333.15 31.478C332.957 31.691 332.747 31.895 332.52 32.088C332.287 32.275 332.084 32.411 331.91 32.498C331.91 33.918 331.887 35.331 331.84 36.738C331.8 38.138 331.78 39.548 331.78 40.968C331.78 41.695 331.844 42.368 331.97 42.988C332.104 43.615 332.417 44.218 332.91 44.798C333.144 45.085 333.367 45.541 333.58 46.168C333.8 46.788 334.034 47.418 334.28 48.058C334.527 48.691 334.807 49.248 335.12 49.728C335.44 50.208 335.804 50.448 336.21 50.448C336.73 50.448 337.174 50.115 337.54 49.448C337.9 48.781 338.21 47.925 338.47 46.878C338.73 45.838 338.947 44.681 339.12 43.408C339.294 42.128 339.454 40.895 339.6 39.708C339.747 38.521 339.89 37.441 340.03 36.468C340.177 35.501 340.354 34.801 340.56 34.368ZM330.47 29.628C330.47 29.368 330.35 29.171 330.11 29.038C329.864 28.911 329.637 28.818 329.43 28.758C329.404 29.078 329.31 29.331 329.15 29.518C328.99 29.705 328.88 29.931 328.82 30.198C328.88 30.251 328.91 30.351 328.91 30.498C328.91 30.558 328.99 30.578 329.15 30.558C329.31 30.545 329.49 30.501 329.69 30.428C329.897 30.361 330.08 30.255 330.24 30.108C330.394 29.961 330.47 29.801 330.47 29.628ZM354.9 28.278C354.9 29.205 354.604 29.931 354.01 30.458C353.417 30.978 352.714 31.425 351.9 31.798C351.087 32.178 350.254 32.548 349.4 32.908C348.547 33.268 347.874 33.755 347.38 34.368C346.54 35.381 345.94 36.568 345.58 37.928C345.214 39.288 344.937 40.708 344.75 42.188C344.564 43.668 344.404 45.145 344.27 46.618C344.144 48.098 343.89 49.461 343.51 50.708C343.364 51.141 343.29 51.641 343.29 52.208C343.29 52.768 343.27 53.318 343.23 53.858C343.184 54.391 343.06 54.881 342.86 55.328C342.66 55.781 342.297 56.108 341.77 56.308C341.63 56.368 341.457 56.441 341.25 56.528C341.05 56.615 340.95 56.745 340.95 56.918C340.95 57.125 341.037 57.285 341.21 57.398C341.384 57.511 341.564 57.621 341.75 57.728C341.937 57.828 342.117 57.958 342.29 58.118C342.47 58.278 342.56 58.501 342.56 58.788C342.56 59.368 342.48 59.948 342.32 60.528C342.16 61.108 341.984 61.688 341.79 62.268C341.604 62.848 341.43 63.448 341.27 64.068C341.11 64.688 341.03 65.348 341.03 66.048C341.03 66.481 340.98 66.798 340.88 66.998C340.78 67.205 340.644 67.365 340.47 67.478C340.297 67.598 340.08 67.691 339.82 67.758C339.56 67.831 339.27 67.971 338.95 68.178C338.657 68.351 338.36 68.508 338.06 68.648C337.754 68.795 337.414 68.868 337.04 68.868C336.72 68.868 336.4 68.795 336.08 68.648C335.76 68.508 335.434 68.341 335.1 68.148C334.767 67.961 334.434 67.775 334.1 67.588C333.767 67.401 333.444 67.265 333.13 67.178C332.897 66.278 332.67 65.538 332.45 64.958C332.237 64.378 332.034 63.871 331.84 63.438C331.654 63.005 331.487 62.598 331.34 62.218C331.2 61.845 331.07 61.405 330.95 60.898C330.837 60.391 330.75 59.788 330.69 59.088C330.63 58.395 330.6 57.498 330.6 56.398C330.6 55.905 330.557 55.418 330.47 54.938C330.384 54.465 330.21 54.025 329.95 53.618C329.457 52.865 329.074 52.081 328.8 51.268C328.527 50.455 328.317 49.638 328.17 48.818C328.024 47.991 327.917 47.151 327.85 46.298C327.777 45.438 327.697 44.575 327.61 43.708C327.577 43.508 327.547 43.218 327.52 42.838C327.494 42.465 327.427 42.088 327.32 41.708C327.22 41.335 327.077 41.018 326.89 40.758C326.704 40.491 326.45 40.358 326.13 40.358C325.81 40.358 325.47 40.498 325.11 40.778C324.744 41.051 324.33 41.355 323.87 41.688C323.404 42.021 322.867 42.325 322.26 42.598C321.654 42.871 320.944 43.008 320.13 43.008C320.424 43.361 320.714 43.595 321 43.708C321.294 43.821 321.64 43.908 322.04 43.968C322.447 44.055 322.744 44.171 322.93 44.318C323.124 44.465 323.27 44.638 323.37 44.838C323.47 45.038 323.557 45.271 323.63 45.538C323.704 45.798 323.827 46.071 324 46.358C324.287 46.851 324.43 47.388 324.43 47.968C324.43 48.781 324.257 49.585 323.91 50.378C323.564 51.178 323.174 51.911 322.74 52.578C322.447 53.038 322.25 53.528 322.15 54.048C322.05 54.575 321.98 55.098 321.94 55.618C321.894 56.138 321.84 56.658 321.78 57.178C321.727 57.698 321.584 58.205 321.35 58.698C321.264 58.905 321.134 59.188 320.96 59.548C320.787 59.908 320.7 60.205 320.7 60.438C320.7 60.525 320.737 60.641 320.81 60.788C320.877 60.935 320.964 61.101 321.07 61.288C321.17 61.475 321.257 61.678 321.33 61.898C321.404 62.111 321.44 62.305 321.44 62.478C321.44 62.771 321.367 63.098 321.22 63.458C321.074 63.818 320.907 64.195 320.72 64.588C320.534 64.981 320.344 65.365 320.15 65.738C319.964 66.118 319.827 66.468 319.74 66.788C319.567 67.335 319.327 67.761 319.02 68.068C318.72 68.368 318.36 68.591 317.94 68.738C317.52 68.885 317.07 68.971 316.59 68.998C316.11 69.031 315.64 69.048 315.18 69.048C314.34 69.048 313.687 69.011 313.22 68.938C312.76 68.865 312.407 68.705 312.16 68.458C311.914 68.211 311.724 67.855 311.59 67.388C311.464 66.928 311.314 66.321 311.14 65.568C310.967 64.875 310.784 64.178 310.59 63.478C310.404 62.785 310.31 62.075 310.31 61.348C310.31 60.568 310.484 59.831 310.83 59.138C310.597 58.758 310.394 58.321 310.22 57.828C310.047 57.335 309.83 56.945 309.57 56.658C309.284 56.338 308.98 56.028 308.66 55.728C308.34 55.421 308.037 55.108 307.75 54.788C307.777 54.468 307.79 54.171 307.79 53.898C307.79 53.625 307.79 53.328 307.79 53.008C307.79 50.661 307.544 48.248 307.05 45.768C306.557 43.295 305.964 40.928 305.27 38.668C304.95 37.741 304.604 36.828 304.23 35.928C303.85 35.028 303.574 34.088 303.4 33.108C303.08 33.108 302.777 33.098 302.49 33.078C302.197 33.065 301.894 33.058 301.58 33.058C301.314 33.058 301.094 33.131 300.92 33.278C300.747 33.425 300.567 33.585 300.38 33.758C300.194 33.931 299.99 34.091 299.77 34.238C299.557 34.378 299.304 34.448 299.01 34.448C298.577 34.448 298.15 34.305 297.73 34.018C297.31 33.725 296.934 33.368 296.6 32.948C296.267 32.528 296 32.081 295.8 31.608C295.594 31.128 295.49 30.685 295.49 30.278C295.49 29.731 295.644 29.181 295.95 28.628C296.25 28.075 296.64 27.575 297.12 27.128C297.6 26.681 298.13 26.318 298.71 26.038C299.29 25.765 299.84 25.628 300.36 25.628C301.027 25.628 301.664 25.758 302.27 26.018C302.877 26.278 303.514 26.408 304.18 26.408C304.707 26.408 305.23 26.375 305.75 26.308C306.27 26.235 306.807 26.198 307.36 26.198C308.14 26.198 308.92 26.225 309.7 26.278C310.487 26.338 311.27 26.368 312.05 26.368C312.457 26.368 312.847 26.461 313.22 26.648C313.6 26.841 313.964 27.061 314.31 27.308C314.657 27.548 315.004 27.808 315.35 28.088C315.697 28.361 316.044 28.585 316.39 28.758C316.364 29.398 316.214 29.885 315.94 30.218C315.667 30.551 315.32 30.825 314.9 31.038C314.474 31.258 314.024 31.468 313.55 31.668C313.07 31.875 312.634 32.158 312.24 32.518C311.854 32.878 311.52 33.371 311.24 33.998C310.967 34.618 310.83 35.451 310.83 36.498C310.83 37.771 311.134 38.901 311.74 39.888C311.887 40.148 311.96 40.481 311.96 40.888C311.96 41.201 311.93 41.525 311.87 41.858C311.817 42.191 311.79 42.505 311.79 42.798C311.79 43.145 311.877 43.418 312.05 43.618C312.484 44.145 312.75 44.818 312.85 45.638C312.95 46.465 313.037 47.315 313.11 48.188C313.184 49.055 313.3 49.871 313.46 50.638C313.62 51.405 313.977 51.961 314.53 52.308H314.83C315.61 52.308 316.184 52.021 316.55 51.448C316.91 50.868 317.164 50.178 317.31 49.378C317.45 48.585 317.53 47.768 317.55 46.928C317.564 46.088 317.597 45.405 317.65 44.878C318.117 44.478 318.48 43.878 318.74 43.078C319 42.285 319.204 41.438 319.35 40.538C319.497 39.638 319.59 38.748 319.63 37.868C319.677 36.981 319.7 36.248 319.7 35.668C319.7 34.768 319.59 34.038 319.37 33.478C319.157 32.911 318.91 32.425 318.63 32.018C318.357 31.611 318.11 31.228 317.89 30.868C317.677 30.508 317.57 30.065 317.57 29.538C317.57 28.931 317.91 28.405 318.59 27.958C319.27 27.505 320.087 27.141 321.04 26.868C322 26.595 322.974 26.391 323.96 26.258C324.94 26.131 325.737 26.068 326.35 26.068C326.784 26.068 327.08 26.075 327.24 26.088C327.4 26.101 327.507 26.121 327.56 26.148C327.56 25.921 327.837 25.808 328.39 25.808C328.824 25.808 329.36 25.865 330 25.978C330.634 26.091 331.27 26.215 331.91 26.348C332.544 26.475 333.137 26.598 333.69 26.718C334.244 26.831 334.65 26.888 334.91 26.888C335.75 26.888 336.61 26.771 337.49 26.538C338.377 26.311 339.197 26.025 339.95 25.678C341.11 25.151 342.277 24.795 343.45 24.608C344.624 24.421 345.83 24.328 347.07 24.328C347.737 24.328 348.52 24.401 349.42 24.548C350.32 24.688 351.184 24.911 352.01 25.218C352.837 25.525 353.53 25.895 354.09 26.328C354.657 26.761 354.94 27.251 354.94 27.798C354.94 27.918 354.934 28.021 354.92 28.108C354.907 28.195 354.9 28.251 354.9 28.278Z"/> -->
      <path fill="black" d="m 262.15993,67.169424 -9.44999,-37.125001 h 10.19999 l 3.9,17.85 q 0.45001,2.7 0.825,5.474999 0.45001,2.700004 0.9,5.475004 h 0.30001 q 0.52499,-2.775 1.05,-5.475004 0.52499,-2.774999 1.19999,-5.474999 l 4.35001,-17.85 h 9 l 4.42499,17.85 q 0.67499,2.7 1.20001,5.474999 0.59999,2.700004 1.12499,5.475004 h 0.3 q 0.525,-2.775 0.9,-5.475004 0.37501,-2.774999 0.90001,-5.474999 l 3.82499,-17.85 h 9.52499 l -9.07498,37.125001 h -12.00001 l -3.75,-15.675001 q -0.52499,-2.625 -1.05,-5.25 -0.44999,-2.625001 -0.975,-5.55 h -0.29999 q -0.52501,2.924999 -0.97501,5.625 -0.44999,2.625 -1.05,5.25 l -3.52499,15.600001 z"/>
</svg>